<mxfile host="Electron" agent="Mozilla/5.0 (Windows NT 10.0; Win64; x64) AppleWebKit/537.36 (KHTML, like Gecko) draw.io/24.7.17 Chrome/128.0.6613.36 Electron/32.0.1 Safari/537.36" version="24.7.17" pages="4">
  <diagram id="C5RBs43oDa-KdzZeNtuy" name="Visa-structuur">
    <mxGraphModel dx="1034" dy="605" grid="1" gridSize="10" guides="1" tooltips="1" connect="1" arrows="1" fold="1" page="1" pageScale="1" pageWidth="827" pageHeight="1169" math="0" shadow="0">
      <root>
        <mxCell id="WIyWlLk6GJQsqaUBKTNV-0" />
        <mxCell id="WIyWlLk6GJQsqaUBKTNV-1" parent="WIyWlLk6GJQsqaUBKTNV-0" />
        <mxCell id="zkfFHV4jXpPFQw0GAbJ--0" value="VISAInstrument" style="swimlane;fontStyle=2;align=center;verticalAlign=top;childLayout=stackLayout;horizontal=1;startSize=26;horizontalStack=0;resizeParent=1;resizeLast=0;collapsible=1;marginBottom=0;rounded=0;shadow=0;strokeWidth=1;" parent="WIyWlLk6GJQsqaUBKTNV-1" vertex="1">
          <mxGeometry x="220" y="120" width="160" height="138" as="geometry">
            <mxRectangle x="230" y="140" width="160" height="26" as="alternateBounds" />
          </mxGeometry>
        </mxCell>
        <mxCell id="zkfFHV4jXpPFQw0GAbJ--4" value="" style="line;html=1;strokeWidth=1;align=left;verticalAlign=middle;spacingTop=-1;spacingLeft=3;spacingRight=3;rotatable=0;labelPosition=right;points=[];portConstraint=eastwest;" parent="zkfFHV4jXpPFQw0GAbJ--0" vertex="1">
          <mxGeometry y="26" width="160" height="8" as="geometry" />
        </mxCell>
        <mxCell id="PDW-XX-UsWLoosBB_W_n-5" style="edgeStyle=orthogonalEdgeStyle;rounded=0;orthogonalLoop=1;jettySize=auto;html=1;entryX=0.5;entryY=1;entryDx=0;entryDy=0;endArrow=block;endFill=0;" parent="WIyWlLk6GJQsqaUBKTNV-1" source="zkfFHV4jXpPFQw0GAbJ--6" target="zkfFHV4jXpPFQw0GAbJ--13" edge="1">
          <mxGeometry relative="1" as="geometry" />
        </mxCell>
        <mxCell id="zkfFHV4jXpPFQw0GAbJ--6" value="TekScope" style="swimlane;fontStyle=0;align=center;verticalAlign=top;childLayout=stackLayout;horizontal=1;startSize=26;horizontalStack=0;resizeParent=1;resizeLast=0;collapsible=1;marginBottom=0;rounded=0;shadow=0;strokeWidth=1;" parent="WIyWlLk6GJQsqaUBKTNV-1" vertex="1">
          <mxGeometry x="174" y="585" width="160" height="138" as="geometry">
            <mxRectangle x="130" y="380" width="160" height="26" as="alternateBounds" />
          </mxGeometry>
        </mxCell>
        <mxCell id="zkfFHV4jXpPFQw0GAbJ--7" value="Channel CH1, CH2,..." style="text;align=left;verticalAlign=top;spacingLeft=4;spacingRight=4;overflow=hidden;rotatable=0;points=[[0,0.5],[1,0.5]];portConstraint=eastwest;" parent="zkfFHV4jXpPFQw0GAbJ--6" vertex="1">
          <mxGeometry y="26" width="160" height="26" as="geometry" />
        </mxCell>
        <mxCell id="zkfFHV4jXpPFQw0GAbJ--9" value="" style="line;html=1;strokeWidth=1;align=left;verticalAlign=middle;spacingTop=-1;spacingLeft=3;spacingRight=3;rotatable=0;labelPosition=right;points=[];portConstraint=eastwest;" parent="zkfFHV4jXpPFQw0GAbJ--6" vertex="1">
          <mxGeometry y="52" width="160" height="8" as="geometry" />
        </mxCell>
        <mxCell id="zkfFHV4jXpPFQw0GAbJ--13" value="Scope" style="swimlane;fontStyle=0;align=center;verticalAlign=top;childLayout=stackLayout;horizontal=1;startSize=26;horizontalStack=0;resizeParent=1;resizeLast=0;collapsible=1;marginBottom=0;rounded=0;shadow=0;strokeWidth=1;" parent="WIyWlLk6GJQsqaUBKTNV-1" vertex="1">
          <mxGeometry x="220" y="410" width="160" height="112" as="geometry">
            <mxRectangle x="340" y="380" width="170" height="26" as="alternateBounds" />
          </mxGeometry>
        </mxCell>
        <mxCell id="d4Yy6ey-tQMBBeps770n-10" value="+ item: attribute" style="text;strokeColor=none;fillColor=none;align=left;verticalAlign=top;spacingLeft=4;spacingRight=4;overflow=hidden;rotatable=0;points=[[0,0.5],[1,0.5]];portConstraint=eastwest;whiteSpace=wrap;html=1;" parent="zkfFHV4jXpPFQw0GAbJ--13" vertex="1">
          <mxGeometry y="26" width="160" height="26" as="geometry" />
        </mxCell>
        <mxCell id="zkfFHV4jXpPFQw0GAbJ--15" value="" style="line;html=1;strokeWidth=1;align=left;verticalAlign=middle;spacingTop=-1;spacingLeft=3;spacingRight=3;rotatable=0;labelPosition=right;points=[];portConstraint=eastwest;" parent="zkfFHV4jXpPFQw0GAbJ--13" vertex="1">
          <mxGeometry y="52" width="160" height="8" as="geometry" />
        </mxCell>
        <mxCell id="d4Yy6ey-tQMBBeps770n-8" value="setTimeDiv()" style="text;strokeColor=none;fillColor=none;align=left;verticalAlign=top;spacingLeft=4;spacingRight=4;overflow=hidden;rotatable=0;points=[[0,0.5],[1,0.5]];portConstraint=eastwest;whiteSpace=wrap;html=1;" parent="zkfFHV4jXpPFQw0GAbJ--13" vertex="1">
          <mxGeometry y="60" width="160" height="26" as="geometry" />
        </mxCell>
        <mxCell id="d4Yy6ey-tQMBBeps770n-11" value="setVoltsDiv()" style="text;strokeColor=none;fillColor=none;align=left;verticalAlign=top;spacingLeft=4;spacingRight=4;overflow=hidden;rotatable=0;points=[[0,0.5],[1,0.5]];portConstraint=eastwest;whiteSpace=wrap;html=1;" parent="zkfFHV4jXpPFQw0GAbJ--13" vertex="1">
          <mxGeometry y="86" width="160" height="26" as="geometry" />
        </mxCell>
        <mxCell id="zkfFHV4jXpPFQw0GAbJ--16" value="" style="endArrow=block;endSize=10;endFill=0;shadow=0;strokeWidth=1;rounded=0;edgeStyle=elbowEdgeStyle;elbow=vertical;" parent="WIyWlLk6GJQsqaUBKTNV-1" source="zkfFHV4jXpPFQw0GAbJ--13" target="zkfFHV4jXpPFQw0GAbJ--0" edge="1">
          <mxGeometry width="160" relative="1" as="geometry">
            <mxPoint x="210" y="373" as="sourcePoint" />
            <mxPoint x="310" y="271" as="targetPoint" />
          </mxGeometry>
        </mxCell>
        <mxCell id="PDW-XX-UsWLoosBB_W_n-7" value="SigilentScope" style="swimlane;fontStyle=0;align=center;verticalAlign=top;childLayout=stackLayout;horizontal=1;startSize=26;horizontalStack=0;resizeParent=1;resizeLast=0;collapsible=1;marginBottom=0;rounded=0;shadow=0;strokeWidth=1;" parent="WIyWlLk6GJQsqaUBKTNV-1" vertex="1">
          <mxGeometry x="400" y="585" width="160" height="138" as="geometry">
            <mxRectangle x="130" y="380" width="160" height="26" as="alternateBounds" />
          </mxGeometry>
        </mxCell>
        <mxCell id="PDW-XX-UsWLoosBB_W_n-8" value="Channel C1, C2,..." style="text;align=left;verticalAlign=top;spacingLeft=4;spacingRight=4;overflow=hidden;rotatable=0;points=[[0,0.5],[1,0.5]];portConstraint=eastwest;" parent="PDW-XX-UsWLoosBB_W_n-7" vertex="1">
          <mxGeometry y="26" width="160" height="26" as="geometry" />
        </mxCell>
        <mxCell id="PDW-XX-UsWLoosBB_W_n-9" value="" style="line;html=1;strokeWidth=1;align=left;verticalAlign=middle;spacingTop=-1;spacingLeft=3;spacingRight=3;rotatable=0;labelPosition=right;points=[];portConstraint=eastwest;" parent="PDW-XX-UsWLoosBB_W_n-7" vertex="1">
          <mxGeometry y="52" width="160" height="8" as="geometry" />
        </mxCell>
        <mxCell id="d4Yy6ey-tQMBBeps770n-7" value="+ method(type): type" style="text;strokeColor=none;fillColor=none;align=left;verticalAlign=top;spacingLeft=4;spacingRight=4;overflow=hidden;rotatable=0;points=[[0,0.5],[1,0.5]];portConstraint=eastwest;whiteSpace=wrap;html=1;" parent="PDW-XX-UsWLoosBB_W_n-7" vertex="1">
          <mxGeometry y="60" width="160" height="26" as="geometry" />
        </mxCell>
        <mxCell id="PDW-XX-UsWLoosBB_W_n-10" style="edgeStyle=orthogonalEdgeStyle;rounded=0;orthogonalLoop=1;jettySize=auto;html=1;entryX=0.5;entryY=1;entryDx=0;entryDy=0;endArrow=block;endFill=0;exitX=0.5;exitY=0;exitDx=0;exitDy=0;" parent="WIyWlLk6GJQsqaUBKTNV-1" source="PDW-XX-UsWLoosBB_W_n-7" target="zkfFHV4jXpPFQw0GAbJ--13" edge="1">
          <mxGeometry relative="1" as="geometry">
            <mxPoint x="264" y="595" as="sourcePoint" />
            <mxPoint x="310" y="490" as="targetPoint" />
          </mxGeometry>
        </mxCell>
        <mxCell id="d4Yy6ey-tQMBBeps770n-2" value="Classname" style="swimlane;fontStyle=1;align=center;verticalAlign=top;childLayout=stackLayout;horizontal=1;startSize=26;horizontalStack=0;resizeParent=1;resizeParentMax=0;resizeLast=0;collapsible=1;marginBottom=0;whiteSpace=wrap;html=1;" parent="WIyWlLk6GJQsqaUBKTNV-1" vertex="1">
          <mxGeometry x="330" y="820" width="160" height="86" as="geometry" />
        </mxCell>
        <mxCell id="d4Yy6ey-tQMBBeps770n-3" value="+ field: type" style="text;strokeColor=none;fillColor=none;align=left;verticalAlign=top;spacingLeft=4;spacingRight=4;overflow=hidden;rotatable=0;points=[[0,0.5],[1,0.5]];portConstraint=eastwest;whiteSpace=wrap;html=1;" parent="d4Yy6ey-tQMBBeps770n-2" vertex="1">
          <mxGeometry y="26" width="160" height="26" as="geometry" />
        </mxCell>
        <mxCell id="d4Yy6ey-tQMBBeps770n-4" value="" style="line;strokeWidth=1;fillColor=none;align=left;verticalAlign=middle;spacingTop=-1;spacingLeft=3;spacingRight=3;rotatable=0;labelPosition=right;points=[];portConstraint=eastwest;strokeColor=inherit;" parent="d4Yy6ey-tQMBBeps770n-2" vertex="1">
          <mxGeometry y="52" width="160" height="8" as="geometry" />
        </mxCell>
        <mxCell id="d4Yy6ey-tQMBBeps770n-5" value="+ method(type): type" style="text;strokeColor=none;fillColor=none;align=left;verticalAlign=top;spacingLeft=4;spacingRight=4;overflow=hidden;rotatable=0;points=[[0,0.5],[1,0.5]];portConstraint=eastwest;whiteSpace=wrap;html=1;" parent="d4Yy6ey-tQMBBeps770n-2" vertex="1">
          <mxGeometry y="60" width="160" height="26" as="geometry" />
        </mxCell>
      </root>
    </mxGraphModel>
  </diagram>
  <diagram id="jM7Y9_GWStys5rX8tkyK" name="ontwerpA oscilloscoop">
    <mxGraphModel dx="1274" dy="605" grid="1" gridSize="10" guides="1" tooltips="1" connect="1" arrows="1" fold="1" page="1" pageScale="1" pageWidth="1169" pageHeight="827" math="0" shadow="0">
      <root>
        <mxCell id="0" />
        <mxCell id="1" parent="0" />
        <mxCell id="dS_Bxh8pcJjBsYzDKE5M-42" style="edgeStyle=orthogonalEdgeStyle;rounded=0;orthogonalLoop=1;jettySize=auto;html=1;exitX=0.25;exitY=1;exitDx=0;exitDy=0;entryX=0.5;entryY=0;entryDx=0;entryDy=0;" parent="1" source="dS_Bxh8pcJjBsYzDKE5M-1" target="dS_Bxh8pcJjBsYzDKE5M-37" edge="1">
          <mxGeometry relative="1" as="geometry" />
        </mxCell>
        <mxCell id="dS_Bxh8pcJjBsYzDKE5M-43" value="heeft" style="edgeLabel;html=1;align=center;verticalAlign=middle;resizable=0;points=[];" parent="dS_Bxh8pcJjBsYzDKE5M-42" vertex="1" connectable="0">
          <mxGeometry x="0.0484" y="-1" relative="1" as="geometry">
            <mxPoint as="offset" />
          </mxGeometry>
        </mxCell>
        <mxCell id="dS_Bxh8pcJjBsYzDKE5M-1" value="Oscillosccope" style="swimlane;fontStyle=0;align=center;verticalAlign=top;childLayout=stackLayout;horizontal=1;startSize=26;horizontalStack=0;resizeParent=1;resizeLast=0;collapsible=1;marginBottom=0;rounded=0;shadow=0;strokeWidth=1;" parent="1" vertex="1">
          <mxGeometry x="445" y="290" width="160" height="112" as="geometry">
            <mxRectangle x="340" y="380" width="170" height="26" as="alternateBounds" />
          </mxGeometry>
        </mxCell>
        <mxCell id="dS_Bxh8pcJjBsYzDKE5M-2" value="Channels: array of Channel" style="text;strokeColor=none;fillColor=none;align=left;verticalAlign=top;spacingLeft=4;spacingRight=4;overflow=hidden;rotatable=0;points=[[0,0.5],[1,0.5]];portConstraint=eastwest;whiteSpace=wrap;html=1;" parent="dS_Bxh8pcJjBsYzDKE5M-1" vertex="1">
          <mxGeometry y="26" width="160" height="26" as="geometry" />
        </mxCell>
        <mxCell id="dS_Bxh8pcJjBsYzDKE5M-3" value="" style="line;html=1;strokeWidth=1;align=left;verticalAlign=middle;spacingTop=-1;spacingLeft=3;spacingRight=3;rotatable=0;labelPosition=right;points=[];portConstraint=eastwest;" parent="dS_Bxh8pcJjBsYzDKE5M-1" vertex="1">
          <mxGeometry y="52" width="160" height="8" as="geometry" />
        </mxCell>
        <mxCell id="dS_Bxh8pcJjBsYzDKE5M-33" style="edgeStyle=orthogonalEdgeStyle;rounded=0;orthogonalLoop=1;jettySize=auto;html=1;exitX=0.5;exitY=0;exitDx=0;exitDy=0;endArrow=none;endFill=0;startArrow=blockThin;startFill=1;" parent="1" source="dS_Bxh8pcJjBsYzDKE5M-6" edge="1">
          <mxGeometry relative="1" as="geometry">
            <mxPoint x="540" y="400" as="targetPoint" />
          </mxGeometry>
        </mxCell>
        <mxCell id="dS_Bxh8pcJjBsYzDKE5M-34" value="heeft" style="edgeLabel;html=1;align=center;verticalAlign=middle;resizable=0;points=[];" parent="dS_Bxh8pcJjBsYzDKE5M-33" vertex="1" connectable="0">
          <mxGeometry x="-0.0382" y="-3" relative="1" as="geometry">
            <mxPoint as="offset" />
          </mxGeometry>
        </mxCell>
        <mxCell id="dS_Bxh8pcJjBsYzDKE5M-6" value="Horizontal" style="swimlane;fontStyle=0;align=center;verticalAlign=top;childLayout=stackLayout;horizontal=1;startSize=26;horizontalStack=0;resizeParent=1;resizeLast=0;collapsible=1;marginBottom=0;rounded=0;shadow=0;strokeWidth=1;" parent="1" vertex="1">
          <mxGeometry x="490" y="480" width="160" height="112" as="geometry">
            <mxRectangle x="340" y="380" width="170" height="26" as="alternateBounds" />
          </mxGeometry>
        </mxCell>
        <mxCell id="dS_Bxh8pcJjBsYzDKE5M-7" value="+ item: attribute" style="text;strokeColor=none;fillColor=none;align=left;verticalAlign=top;spacingLeft=4;spacingRight=4;overflow=hidden;rotatable=0;points=[[0,0.5],[1,0.5]];portConstraint=eastwest;whiteSpace=wrap;html=1;" parent="dS_Bxh8pcJjBsYzDKE5M-6" vertex="1">
          <mxGeometry y="26" width="160" height="26" as="geometry" />
        </mxCell>
        <mxCell id="dS_Bxh8pcJjBsYzDKE5M-8" value="" style="line;html=1;strokeWidth=1;align=left;verticalAlign=middle;spacingTop=-1;spacingLeft=3;spacingRight=3;rotatable=0;labelPosition=right;points=[];portConstraint=eastwest;" parent="dS_Bxh8pcJjBsYzDKE5M-6" vertex="1">
          <mxGeometry y="52" width="160" height="8" as="geometry" />
        </mxCell>
        <mxCell id="dS_Bxh8pcJjBsYzDKE5M-9" value="setTimeDiv()" style="text;strokeColor=none;fillColor=none;align=left;verticalAlign=top;spacingLeft=4;spacingRight=4;overflow=hidden;rotatable=0;points=[[0,0.5],[1,0.5]];portConstraint=eastwest;whiteSpace=wrap;html=1;" parent="dS_Bxh8pcJjBsYzDKE5M-6" vertex="1">
          <mxGeometry y="60" width="160" height="26" as="geometry" />
        </mxCell>
        <mxCell id="dS_Bxh8pcJjBsYzDKE5M-22" value="" style="edgeStyle=orthogonalEdgeStyle;rounded=0;orthogonalLoop=1;jettySize=auto;html=1;endArrow=block;endFill=0;" parent="1" source="dS_Bxh8pcJjBsYzDKE5M-11" target="dS_Bxh8pcJjBsYzDKE5M-17" edge="1">
          <mxGeometry relative="1" as="geometry" />
        </mxCell>
        <mxCell id="dS_Bxh8pcJjBsYzDKE5M-31" value="erft van" style="edgeLabel;html=1;align=center;verticalAlign=middle;resizable=0;points=[];" parent="dS_Bxh8pcJjBsYzDKE5M-22" vertex="1" connectable="0">
          <mxGeometry x="0.0125" y="-1" relative="1" as="geometry">
            <mxPoint as="offset" />
          </mxGeometry>
        </mxCell>
        <mxCell id="dS_Bxh8pcJjBsYzDKE5M-11" value="Channel" style="swimlane;fontStyle=0;align=center;verticalAlign=top;childLayout=stackLayout;horizontal=1;startSize=26;horizontalStack=0;resizeParent=1;resizeLast=0;collapsible=1;marginBottom=0;rounded=0;shadow=0;strokeWidth=1;" parent="1" vertex="1">
          <mxGeometry x="760" y="290" width="160" height="112" as="geometry">
            <mxRectangle x="340" y="380" width="170" height="26" as="alternateBounds" />
          </mxGeometry>
        </mxCell>
        <mxCell id="dS_Bxh8pcJjBsYzDKE5M-12" value="+ item: attribute" style="text;strokeColor=none;fillColor=none;align=left;verticalAlign=top;spacingLeft=4;spacingRight=4;overflow=hidden;rotatable=0;points=[[0,0.5],[1,0.5]];portConstraint=eastwest;whiteSpace=wrap;html=1;" parent="dS_Bxh8pcJjBsYzDKE5M-11" vertex="1">
          <mxGeometry y="26" width="160" height="26" as="geometry" />
        </mxCell>
        <mxCell id="dS_Bxh8pcJjBsYzDKE5M-13" value="" style="line;html=1;strokeWidth=1;align=left;verticalAlign=middle;spacingTop=-1;spacingLeft=3;spacingRight=3;rotatable=0;labelPosition=right;points=[];portConstraint=eastwest;" parent="dS_Bxh8pcJjBsYzDKE5M-11" vertex="1">
          <mxGeometry y="52" width="160" height="8" as="geometry" />
        </mxCell>
        <mxCell id="dS_Bxh8pcJjBsYzDKE5M-15" value="setVoltsDiv()" style="text;strokeColor=none;fillColor=none;align=left;verticalAlign=top;spacingLeft=4;spacingRight=4;overflow=hidden;rotatable=0;points=[[0,0.5],[1,0.5]];portConstraint=eastwest;whiteSpace=wrap;html=1;" parent="dS_Bxh8pcJjBsYzDKE5M-11" vertex="1">
          <mxGeometry y="60" width="160" height="26" as="geometry" />
        </mxCell>
        <mxCell id="dS_Bxh8pcJjBsYzDKE5M-16" value="Horizontal = Timebase&amp;nbsp;&lt;div&gt;Elke oscilloscoop heeft één timebase&lt;/div&gt;" style="shape=note2;boundedLbl=1;whiteSpace=wrap;html=1;size=25;verticalAlign=top;align=center;" parent="1" vertex="1">
          <mxGeometry x="510" y="650" width="230" height="84" as="geometry" />
        </mxCell>
        <mxCell id="dS_Bxh8pcJjBsYzDKE5M-17" value="Vertical" style="swimlane;fontStyle=0;align=center;verticalAlign=top;childLayout=stackLayout;horizontal=1;startSize=26;horizontalStack=0;resizeParent=1;resizeLast=0;collapsible=1;marginBottom=0;rounded=0;shadow=0;strokeWidth=1;" parent="1" vertex="1">
          <mxGeometry x="760" y="48" width="160" height="112" as="geometry">
            <mxRectangle x="340" y="380" width="170" height="26" as="alternateBounds" />
          </mxGeometry>
        </mxCell>
        <mxCell id="dS_Bxh8pcJjBsYzDKE5M-18" value="+ item: attribute" style="text;strokeColor=none;fillColor=none;align=left;verticalAlign=top;spacingLeft=4;spacingRight=4;overflow=hidden;rotatable=0;points=[[0,0.5],[1,0.5]];portConstraint=eastwest;whiteSpace=wrap;html=1;" parent="dS_Bxh8pcJjBsYzDKE5M-17" vertex="1">
          <mxGeometry y="26" width="160" height="26" as="geometry" />
        </mxCell>
        <mxCell id="dS_Bxh8pcJjBsYzDKE5M-19" value="" style="line;html=1;strokeWidth=1;align=left;verticalAlign=middle;spacingTop=-1;spacingLeft=3;spacingRight=3;rotatable=0;labelPosition=right;points=[];portConstraint=eastwest;" parent="dS_Bxh8pcJjBsYzDKE5M-17" vertex="1">
          <mxGeometry y="52" width="160" height="8" as="geometry" />
        </mxCell>
        <mxCell id="dS_Bxh8pcJjBsYzDKE5M-20" value="setTimeDiv()" style="text;strokeColor=none;fillColor=none;align=left;verticalAlign=top;spacingLeft=4;spacingRight=4;overflow=hidden;rotatable=0;points=[[0,0.5],[1,0.5]];portConstraint=eastwest;whiteSpace=wrap;html=1;" parent="dS_Bxh8pcJjBsYzDKE5M-17" vertex="1">
          <mxGeometry y="60" width="160" height="26" as="geometry" />
        </mxCell>
        <mxCell id="dS_Bxh8pcJjBsYzDKE5M-21" value="setVoltsDiv()" style="text;strokeColor=none;fillColor=none;align=left;verticalAlign=top;spacingLeft=4;spacingRight=4;overflow=hidden;rotatable=0;points=[[0,0.5],[1,0.5]];portConstraint=eastwest;whiteSpace=wrap;html=1;" parent="dS_Bxh8pcJjBsYzDKE5M-17" vertex="1">
          <mxGeometry y="86" width="160" height="26" as="geometry" />
        </mxCell>
        <mxCell id="dS_Bxh8pcJjBsYzDKE5M-32" style="edgeStyle=orthogonalEdgeStyle;rounded=0;orthogonalLoop=1;jettySize=auto;html=1;exitX=0.5;exitY=0;exitDx=0;exitDy=0;entryX=0.5;entryY=1;entryDx=0;entryDy=0;" parent="1" source="dS_Bxh8pcJjBsYzDKE5M-26" target="dS_Bxh8pcJjBsYzDKE5M-11" edge="1">
          <mxGeometry relative="1" as="geometry">
            <mxPoint x="840" y="420" as="targetPoint" />
            <Array as="points">
              <mxPoint x="850" y="446" />
              <mxPoint x="840" y="446" />
            </Array>
          </mxGeometry>
        </mxCell>
        <mxCell id="dS_Bxh8pcJjBsYzDKE5M-26" value="Trigger" style="swimlane;fontStyle=0;align=center;verticalAlign=top;childLayout=stackLayout;horizontal=1;startSize=26;horizontalStack=0;resizeParent=1;resizeLast=0;collapsible=1;marginBottom=0;rounded=0;shadow=0;strokeWidth=1;" parent="1" vertex="1">
          <mxGeometry x="770" y="490" width="160" height="112" as="geometry">
            <mxRectangle x="340" y="380" width="170" height="26" as="alternateBounds" />
          </mxGeometry>
        </mxCell>
        <mxCell id="dS_Bxh8pcJjBsYzDKE5M-27" value="+ item: attribute" style="text;strokeColor=none;fillColor=none;align=left;verticalAlign=top;spacingLeft=4;spacingRight=4;overflow=hidden;rotatable=0;points=[[0,0.5],[1,0.5]];portConstraint=eastwest;whiteSpace=wrap;html=1;" parent="dS_Bxh8pcJjBsYzDKE5M-26" vertex="1">
          <mxGeometry y="26" width="160" height="26" as="geometry" />
        </mxCell>
        <mxCell id="dS_Bxh8pcJjBsYzDKE5M-28" value="" style="line;html=1;strokeWidth=1;align=left;verticalAlign=middle;spacingTop=-1;spacingLeft=3;spacingRight=3;rotatable=0;labelPosition=right;points=[];portConstraint=eastwest;" parent="dS_Bxh8pcJjBsYzDKE5M-26" vertex="1">
          <mxGeometry y="52" width="160" height="8" as="geometry" />
        </mxCell>
        <mxCell id="dS_Bxh8pcJjBsYzDKE5M-35" style="edgeStyle=orthogonalEdgeStyle;rounded=0;orthogonalLoop=1;jettySize=auto;html=1;exitX=1;exitY=0.5;exitDx=0;exitDy=0;entryX=-0.006;entryY=0.923;entryDx=0;entryDy=0;entryPerimeter=0;" parent="1" source="dS_Bxh8pcJjBsYzDKE5M-1" target="dS_Bxh8pcJjBsYzDKE5M-12" edge="1">
          <mxGeometry relative="1" as="geometry" />
        </mxCell>
        <mxCell id="dS_Bxh8pcJjBsYzDKE5M-36" value="heeft 1..4&lt;div&gt;&lt;br&gt;&lt;/div&gt;" style="edgeLabel;html=1;align=center;verticalAlign=middle;resizable=0;points=[];" parent="dS_Bxh8pcJjBsYzDKE5M-35" vertex="1" connectable="0">
          <mxGeometry x="-0.0681" relative="1" as="geometry">
            <mxPoint as="offset" />
          </mxGeometry>
        </mxCell>
        <mxCell id="dS_Bxh8pcJjBsYzDKE5M-37" value="Configuration" style="swimlane;fontStyle=0;align=center;verticalAlign=top;childLayout=stackLayout;horizontal=1;startSize=26;horizontalStack=0;resizeParent=1;resizeLast=0;collapsible=1;marginBottom=0;rounded=0;shadow=0;strokeWidth=1;" parent="1" vertex="1">
          <mxGeometry x="300" y="480" width="160" height="112" as="geometry">
            <mxRectangle x="340" y="380" width="170" height="26" as="alternateBounds" />
          </mxGeometry>
        </mxCell>
        <mxCell id="dS_Bxh8pcJjBsYzDKE5M-38" value="+ item: attribute" style="text;strokeColor=none;fillColor=none;align=left;verticalAlign=top;spacingLeft=4;spacingRight=4;overflow=hidden;rotatable=0;points=[[0,0.5],[1,0.5]];portConstraint=eastwest;whiteSpace=wrap;html=1;" parent="dS_Bxh8pcJjBsYzDKE5M-37" vertex="1">
          <mxGeometry y="26" width="160" height="26" as="geometry" />
        </mxCell>
        <mxCell id="dS_Bxh8pcJjBsYzDKE5M-39" value="" style="line;html=1;strokeWidth=1;align=left;verticalAlign=middle;spacingTop=-1;spacingLeft=3;spacingRight=3;rotatable=0;labelPosition=right;points=[];portConstraint=eastwest;" parent="dS_Bxh8pcJjBsYzDKE5M-37" vertex="1">
          <mxGeometry y="52" width="160" height="8" as="geometry" />
        </mxCell>
        <mxCell id="dS_Bxh8pcJjBsYzDKE5M-41" value="&lt;div&gt;Elke oscilloscoop heeft diverse &#39;utility functions&#39;, afhankelijk van uitvoering. Denk aan instellen IP-adres&lt;/div&gt;&lt;div&gt;Daarbinnen kan onder verdeeld worden: instelling voor HB-IB/VISA, algemene display functies, enz&lt;/div&gt;&lt;div&gt;&lt;br&gt;&lt;/div&gt;" style="shape=note2;boundedLbl=1;whiteSpace=wrap;html=1;size=25;verticalAlign=top;align=center;" parent="1" vertex="1">
          <mxGeometry x="240" y="650" width="250" height="140" as="geometry" />
        </mxCell>
        <mxCell id="eqKaGUmtL6dwXwVd14Sa-1" value="https://www.tek.com/en/documents/primer/oscilloscope-systems-and-controls" style="text;html=1;align=center;verticalAlign=middle;whiteSpace=wrap;rounded=0;" vertex="1" parent="1">
          <mxGeometry x="110" y="70" width="440" height="30" as="geometry" />
        </mxCell>
      </root>
    </mxGraphModel>
  </diagram>
  <diagram id="t31n2RcoIeuJhgZ2e8of" name="OntwerpB Oscilloscoop">
    <mxGraphModel dx="2123" dy="1008" grid="1" gridSize="10" guides="1" tooltips="1" connect="1" arrows="1" fold="1" page="1" pageScale="1" pageWidth="1169" pageHeight="827" math="0" shadow="0">
      <root>
        <mxCell id="0" />
        <mxCell id="1" parent="0" />
        <mxCell id="uGAUejW8zV6dBdsqU0kJ-1" style="edgeStyle=orthogonalEdgeStyle;rounded=0;orthogonalLoop=1;jettySize=auto;html=1;exitX=0.25;exitY=1;exitDx=0;exitDy=0;entryX=0.5;entryY=0;entryDx=0;entryDy=0;" parent="1" source="uGAUejW8zV6dBdsqU0kJ-3" target="uGAUejW8zV6dBdsqU0kJ-30" edge="1">
          <mxGeometry relative="1" as="geometry" />
        </mxCell>
        <mxCell id="uGAUejW8zV6dBdsqU0kJ-2" value="heeft" style="edgeLabel;html=1;align=center;verticalAlign=middle;resizable=0;points=[];" parent="uGAUejW8zV6dBdsqU0kJ-1" vertex="1" connectable="0">
          <mxGeometry x="0.0484" y="-1" relative="1" as="geometry">
            <mxPoint as="offset" />
          </mxGeometry>
        </mxCell>
        <mxCell id="9B4cOfEt_YTa0rVssgrD-1" style="edgeStyle=orthogonalEdgeStyle;rounded=0;orthogonalLoop=1;jettySize=auto;html=1;exitX=0.5;exitY=0;exitDx=0;exitDy=0;entryX=0.5;entryY=1;entryDx=0;entryDy=0;" edge="1" parent="1" source="uGAUejW8zV6dBdsqU0kJ-3" target="uGAUejW8zV6dBdsqU0kJ-25">
          <mxGeometry relative="1" as="geometry" />
        </mxCell>
        <mxCell id="9B4cOfEt_YTa0rVssgrD-2" value="heeft één" style="edgeLabel;html=1;align=center;verticalAlign=middle;resizable=0;points=[];" vertex="1" connectable="0" parent="9B4cOfEt_YTa0rVssgrD-1">
          <mxGeometry x="-0.0266" y="3" relative="1" as="geometry">
            <mxPoint as="offset" />
          </mxGeometry>
        </mxCell>
        <mxCell id="9B4cOfEt_YTa0rVssgrD-23" style="edgeStyle=orthogonalEdgeStyle;rounded=0;orthogonalLoop=1;jettySize=auto;html=1;exitX=0.75;exitY=1;exitDx=0;exitDy=0;entryX=0.5;entryY=0;entryDx=0;entryDy=0;" edge="1" parent="1" source="uGAUejW8zV6dBdsqU0kJ-3" target="9B4cOfEt_YTa0rVssgrD-21">
          <mxGeometry relative="1" as="geometry" />
        </mxCell>
        <mxCell id="9B4cOfEt_YTa0rVssgrD-24" value="Heeft / is een" style="edgeLabel;html=1;align=center;verticalAlign=middle;resizable=0;points=[];" vertex="1" connectable="0" parent="9B4cOfEt_YTa0rVssgrD-23">
          <mxGeometry x="-0.0203" y="1" relative="1" as="geometry">
            <mxPoint as="offset" />
          </mxGeometry>
        </mxCell>
        <mxCell id="uGAUejW8zV6dBdsqU0kJ-3" value="Scope" style="swimlane;fontStyle=0;align=center;verticalAlign=top;childLayout=stackLayout;horizontal=1;startSize=26;horizontalStack=0;resizeParent=1;resizeLast=0;collapsible=1;marginBottom=0;rounded=0;shadow=0;strokeWidth=1;" parent="1" vertex="1">
          <mxGeometry x="445" y="290" width="160" height="112" as="geometry">
            <mxRectangle x="340" y="380" width="170" height="26" as="alternateBounds" />
          </mxGeometry>
        </mxCell>
        <mxCell id="uGAUejW8zV6dBdsqU0kJ-5" value="" style="line;html=1;strokeWidth=1;align=left;verticalAlign=middle;spacingTop=-1;spacingLeft=3;spacingRight=3;rotatable=0;labelPosition=right;points=[];portConstraint=eastwest;" parent="uGAUejW8zV6dBdsqU0kJ-3" vertex="1">
          <mxGeometry y="26" width="160" height="8" as="geometry" />
        </mxCell>
        <mxCell id="uGAUejW8zV6dBdsqU0kJ-6" style="edgeStyle=orthogonalEdgeStyle;rounded=0;orthogonalLoop=1;jettySize=auto;html=1;exitX=1;exitY=0.5;exitDx=0;exitDy=0;endArrow=none;endFill=0;startArrow=blockThin;startFill=1;entryX=0;entryY=0.75;entryDx=0;entryDy=0;" parent="1" source="uGAUejW8zV6dBdsqU0kJ-9" target="uGAUejW8zV6dBdsqU0kJ-3" edge="1">
          <mxGeometry relative="1" as="geometry">
            <mxPoint x="450" y="360" as="targetPoint" />
          </mxGeometry>
        </mxCell>
        <mxCell id="uGAUejW8zV6dBdsqU0kJ-7" value="heeft" style="edgeLabel;html=1;align=center;verticalAlign=middle;resizable=0;points=[];" parent="uGAUejW8zV6dBdsqU0kJ-6" vertex="1" connectable="0">
          <mxGeometry x="-0.0382" y="-3" relative="1" as="geometry">
            <mxPoint as="offset" />
          </mxGeometry>
        </mxCell>
        <mxCell id="uGAUejW8zV6dBdsqU0kJ-8" value="Horizontal" style="swimlane;fontStyle=0;align=center;verticalAlign=top;childLayout=stackLayout;horizontal=1;startSize=26;horizontalStack=0;resizeParent=1;resizeLast=0;collapsible=1;marginBottom=0;rounded=0;shadow=0;strokeWidth=1;" parent="1" vertex="1">
          <mxGeometry x="140" y="280" width="160" height="112" as="geometry">
            <mxRectangle x="340" y="380" width="170" height="26" as="alternateBounds" />
          </mxGeometry>
        </mxCell>
        <mxCell id="uGAUejW8zV6dBdsqU0kJ-9" value="+ item: attribute" style="text;strokeColor=none;fillColor=none;align=left;verticalAlign=top;spacingLeft=4;spacingRight=4;overflow=hidden;rotatable=0;points=[[0,0.5],[1,0.5]];portConstraint=eastwest;whiteSpace=wrap;html=1;" parent="uGAUejW8zV6dBdsqU0kJ-8" vertex="1">
          <mxGeometry y="26" width="160" height="26" as="geometry" />
        </mxCell>
        <mxCell id="uGAUejW8zV6dBdsqU0kJ-10" value="" style="line;html=1;strokeWidth=1;align=left;verticalAlign=middle;spacingTop=-1;spacingLeft=3;spacingRight=3;rotatable=0;labelPosition=right;points=[];portConstraint=eastwest;" parent="uGAUejW8zV6dBdsqU0kJ-8" vertex="1">
          <mxGeometry y="52" width="160" height="8" as="geometry" />
        </mxCell>
        <mxCell id="uGAUejW8zV6dBdsqU0kJ-11" value="setTimeDiv()" style="text;strokeColor=none;fillColor=none;align=left;verticalAlign=top;spacingLeft=4;spacingRight=4;overflow=hidden;rotatable=0;points=[[0,0.5],[1,0.5]];portConstraint=eastwest;whiteSpace=wrap;html=1;" parent="uGAUejW8zV6dBdsqU0kJ-8" vertex="1">
          <mxGeometry y="60" width="160" height="26" as="geometry" />
        </mxCell>
        <mxCell id="uGAUejW8zV6dBdsqU0kJ-14" value="Channel" style="swimlane;fontStyle=0;align=center;verticalAlign=top;childLayout=stackLayout;horizontal=1;startSize=26;horizontalStack=0;resizeParent=1;resizeLast=0;collapsible=1;marginBottom=0;rounded=0;shadow=0;strokeWidth=1;" parent="1" vertex="1">
          <mxGeometry x="760" y="530" width="110" height="112" as="geometry">
            <mxRectangle x="340" y="380" width="170" height="26" as="alternateBounds" />
          </mxGeometry>
        </mxCell>
        <mxCell id="uGAUejW8zV6dBdsqU0kJ-15" value="+ item: attribute" style="text;strokeColor=none;fillColor=none;align=left;verticalAlign=top;spacingLeft=4;spacingRight=4;overflow=hidden;rotatable=0;points=[[0,0.5],[1,0.5]];portConstraint=eastwest;whiteSpace=wrap;html=1;" parent="uGAUejW8zV6dBdsqU0kJ-14" vertex="1">
          <mxGeometry y="26" width="110" height="26" as="geometry" />
        </mxCell>
        <mxCell id="uGAUejW8zV6dBdsqU0kJ-16" value="" style="line;html=1;strokeWidth=1;align=left;verticalAlign=middle;spacingTop=-1;spacingLeft=3;spacingRight=3;rotatable=0;labelPosition=right;points=[];portConstraint=eastwest;" parent="uGAUejW8zV6dBdsqU0kJ-14" vertex="1">
          <mxGeometry y="52" width="110" height="8" as="geometry" />
        </mxCell>
        <mxCell id="uGAUejW8zV6dBdsqU0kJ-17" value="setVoltsDiv()" style="text;strokeColor=none;fillColor=none;align=left;verticalAlign=top;spacingLeft=4;spacingRight=4;overflow=hidden;rotatable=0;points=[[0,0.5],[1,0.5]];portConstraint=eastwest;whiteSpace=wrap;html=1;" parent="uGAUejW8zV6dBdsqU0kJ-14" vertex="1">
          <mxGeometry y="60" width="110" height="26" as="geometry" />
        </mxCell>
        <mxCell id="uGAUejW8zV6dBdsqU0kJ-18" value="Horizontal = Timebase&amp;nbsp;&lt;div&gt;Elke oscilloscoop heeft één timebase&lt;/div&gt;" style="shape=note2;boundedLbl=1;whiteSpace=wrap;html=1;size=25;verticalAlign=top;align=center;" parent="1" vertex="1">
          <mxGeometry x="920" y="730" width="230" height="84" as="geometry" />
        </mxCell>
        <mxCell id="9B4cOfEt_YTa0rVssgrD-3" style="edgeStyle=orthogonalEdgeStyle;rounded=0;orthogonalLoop=1;jettySize=auto;html=1;exitX=0.5;exitY=1;exitDx=0;exitDy=0;entryX=0.5;entryY=0;entryDx=0;entryDy=0;" edge="1" parent="1" source="uGAUejW8zV6dBdsqU0kJ-19" target="uGAUejW8zV6dBdsqU0kJ-14">
          <mxGeometry relative="1" as="geometry" />
        </mxCell>
        <mxCell id="9B4cOfEt_YTa0rVssgrD-4" value="beheert 1..4" style="edgeLabel;html=1;align=center;verticalAlign=middle;resizable=0;points=[];" vertex="1" connectable="0" parent="9B4cOfEt_YTa0rVssgrD-3">
          <mxGeometry x="0.156" y="-3" relative="1" as="geometry">
            <mxPoint as="offset" />
          </mxGeometry>
        </mxCell>
        <mxCell id="uGAUejW8zV6dBdsqU0kJ-19" value="Vertical" style="swimlane;fontStyle=0;align=center;verticalAlign=top;childLayout=stackLayout;horizontal=1;startSize=26;horizontalStack=0;resizeParent=1;resizeLast=0;collapsible=1;marginBottom=0;rounded=0;shadow=0;strokeWidth=1;" parent="1" vertex="1">
          <mxGeometry x="750" y="290" width="160" height="150" as="geometry">
            <mxRectangle x="340" y="380" width="170" height="26" as="alternateBounds" />
          </mxGeometry>
        </mxCell>
        <mxCell id="uGAUejW8zV6dBdsqU0kJ-20" value="+ item: attribute" style="text;strokeColor=none;fillColor=none;align=left;verticalAlign=top;spacingLeft=4;spacingRight=4;overflow=hidden;rotatable=0;points=[[0,0.5],[1,0.5]];portConstraint=eastwest;whiteSpace=wrap;html=1;" parent="uGAUejW8zV6dBdsqU0kJ-19" vertex="1">
          <mxGeometry y="26" width="160" height="26" as="geometry" />
        </mxCell>
        <mxCell id="uGAUejW8zV6dBdsqU0kJ-21" value="" style="line;html=1;strokeWidth=1;align=left;verticalAlign=middle;spacingTop=-1;spacingLeft=3;spacingRight=3;rotatable=0;labelPosition=right;points=[];portConstraint=eastwest;" parent="uGAUejW8zV6dBdsqU0kJ-19" vertex="1">
          <mxGeometry y="52" width="160" height="8" as="geometry" />
        </mxCell>
        <mxCell id="uGAUejW8zV6dBdsqU0kJ-22" value="setTimeDiv()" style="text;strokeColor=none;fillColor=none;align=left;verticalAlign=top;spacingLeft=4;spacingRight=4;overflow=hidden;rotatable=0;points=[[0,0.5],[1,0.5]];portConstraint=eastwest;whiteSpace=wrap;html=1;" parent="uGAUejW8zV6dBdsqU0kJ-19" vertex="1">
          <mxGeometry y="60" width="160" height="26" as="geometry" />
        </mxCell>
        <mxCell id="uGAUejW8zV6dBdsqU0kJ-23" value="enableTrace" style="text;strokeColor=none;fillColor=none;align=left;verticalAlign=top;spacingLeft=4;spacingRight=4;overflow=hidden;rotatable=0;points=[[0,0.5],[1,0.5]];portConstraint=eastwest;whiteSpace=wrap;html=1;" parent="uGAUejW8zV6dBdsqU0kJ-19" vertex="1">
          <mxGeometry y="86" width="160" height="26" as="geometry" />
        </mxCell>
        <mxCell id="9B4cOfEt_YTa0rVssgrD-12" value="getTrace(chanNr)" style="text;strokeColor=none;fillColor=none;align=left;verticalAlign=top;spacingLeft=4;spacingRight=4;overflow=hidden;rotatable=0;points=[[0,0.5],[1,0.5]];portConstraint=eastwest;whiteSpace=wrap;html=1;" vertex="1" parent="uGAUejW8zV6dBdsqU0kJ-19">
          <mxGeometry y="112" width="160" height="26" as="geometry" />
        </mxCell>
        <mxCell id="uGAUejW8zV6dBdsqU0kJ-25" value="TriggerUnit" style="swimlane;fontStyle=0;align=center;verticalAlign=top;childLayout=stackLayout;horizontal=1;startSize=26;horizontalStack=0;resizeParent=1;resizeLast=0;collapsible=1;marginBottom=0;rounded=0;shadow=0;strokeWidth=1;" parent="1" vertex="1">
          <mxGeometry x="380" y="100" width="160" height="112" as="geometry">
            <mxRectangle x="340" y="380" width="170" height="26" as="alternateBounds" />
          </mxGeometry>
        </mxCell>
        <mxCell id="uGAUejW8zV6dBdsqU0kJ-26" value="+ item: attribute" style="text;strokeColor=none;fillColor=none;align=left;verticalAlign=top;spacingLeft=4;spacingRight=4;overflow=hidden;rotatable=0;points=[[0,0.5],[1,0.5]];portConstraint=eastwest;whiteSpace=wrap;html=1;" parent="uGAUejW8zV6dBdsqU0kJ-25" vertex="1">
          <mxGeometry y="26" width="160" height="26" as="geometry" />
        </mxCell>
        <mxCell id="uGAUejW8zV6dBdsqU0kJ-27" value="" style="line;html=1;strokeWidth=1;align=left;verticalAlign=middle;spacingTop=-1;spacingLeft=3;spacingRight=3;rotatable=0;labelPosition=right;points=[];portConstraint=eastwest;" parent="uGAUejW8zV6dBdsqU0kJ-25" vertex="1">
          <mxGeometry y="52" width="160" height="8" as="geometry" />
        </mxCell>
        <mxCell id="uGAUejW8zV6dBdsqU0kJ-28" style="edgeStyle=orthogonalEdgeStyle;rounded=0;orthogonalLoop=1;jettySize=auto;html=1;exitX=1;exitY=0.5;exitDx=0;exitDy=0;entryX=-0.002;entryY=-0.115;entryDx=0;entryDy=0;entryPerimeter=0;" parent="1" source="uGAUejW8zV6dBdsqU0kJ-3" target="uGAUejW8zV6dBdsqU0kJ-22" edge="1">
          <mxGeometry relative="1" as="geometry">
            <mxPoint x="730" y="340" as="targetPoint" />
          </mxGeometry>
        </mxCell>
        <mxCell id="uGAUejW8zV6dBdsqU0kJ-29" value="heeft één" style="edgeLabel;html=1;align=center;verticalAlign=middle;resizable=0;points=[];" parent="uGAUejW8zV6dBdsqU0kJ-28" vertex="1" connectable="0">
          <mxGeometry x="-0.0681" relative="1" as="geometry">
            <mxPoint as="offset" />
          </mxGeometry>
        </mxCell>
        <mxCell id="uGAUejW8zV6dBdsqU0kJ-40" style="edgeStyle=orthogonalEdgeStyle;rounded=0;orthogonalLoop=1;jettySize=auto;html=1;exitX=0.5;exitY=1;exitDx=0;exitDy=0;" parent="1" source="uGAUejW8zV6dBdsqU0kJ-30" target="uGAUejW8zV6dBdsqU0kJ-37" edge="1">
          <mxGeometry relative="1" as="geometry">
            <Array as="points">
              <mxPoint x="380" y="620" />
              <mxPoint x="190" y="620" />
            </Array>
          </mxGeometry>
        </mxCell>
        <mxCell id="uGAUejW8zV6dBdsqU0kJ-41" value="h" style="edgeStyle=orthogonalEdgeStyle;rounded=0;orthogonalLoop=1;jettySize=auto;html=1;entryX=0.5;entryY=0;entryDx=0;entryDy=0;" parent="1" source="uGAUejW8zV6dBdsqU0kJ-30" target="uGAUejW8zV6dBdsqU0kJ-34" edge="1">
          <mxGeometry relative="1" as="geometry" />
        </mxCell>
        <mxCell id="uGAUejW8zV6dBdsqU0kJ-42" value="heeft" style="edgeLabel;html=1;align=center;verticalAlign=middle;resizable=0;points=[];" parent="uGAUejW8zV6dBdsqU0kJ-41" vertex="1" connectable="0">
          <mxGeometry x="0.011" y="1" relative="1" as="geometry">
            <mxPoint as="offset" />
          </mxGeometry>
        </mxCell>
        <mxCell id="9B4cOfEt_YTa0rVssgrD-20" style="edgeStyle=orthogonalEdgeStyle;rounded=0;orthogonalLoop=1;jettySize=auto;html=1;exitX=0.5;exitY=1;exitDx=0;exitDy=0;entryX=0.5;entryY=0;entryDx=0;entryDy=0;" edge="1" parent="1" source="uGAUejW8zV6dBdsqU0kJ-30" target="9B4cOfEt_YTa0rVssgrD-13">
          <mxGeometry relative="1" as="geometry" />
        </mxCell>
        <mxCell id="uGAUejW8zV6dBdsqU0kJ-30" value="Utility" style="swimlane;fontStyle=0;align=center;verticalAlign=top;childLayout=stackLayout;horizontal=1;startSize=26;horizontalStack=0;resizeParent=1;resizeLast=0;collapsible=1;marginBottom=0;rounded=0;shadow=0;strokeWidth=1;" parent="1" vertex="1">
          <mxGeometry x="300" y="480" width="160" height="112" as="geometry">
            <mxRectangle x="340" y="380" width="170" height="26" as="alternateBounds" />
          </mxGeometry>
        </mxCell>
        <mxCell id="uGAUejW8zV6dBdsqU0kJ-31" value="+ item: attribute" style="text;strokeColor=none;fillColor=none;align=left;verticalAlign=top;spacingLeft=4;spacingRight=4;overflow=hidden;rotatable=0;points=[[0,0.5],[1,0.5]];portConstraint=eastwest;whiteSpace=wrap;html=1;" parent="uGAUejW8zV6dBdsqU0kJ-30" vertex="1">
          <mxGeometry y="26" width="160" height="26" as="geometry" />
        </mxCell>
        <mxCell id="uGAUejW8zV6dBdsqU0kJ-32" value="" style="line;html=1;strokeWidth=1;align=left;verticalAlign=middle;spacingTop=-1;spacingLeft=3;spacingRight=3;rotatable=0;labelPosition=right;points=[];portConstraint=eastwest;" parent="uGAUejW8zV6dBdsqU0kJ-30" vertex="1">
          <mxGeometry y="52" width="160" height="8" as="geometry" />
        </mxCell>
        <mxCell id="uGAUejW8zV6dBdsqU0kJ-33" value="&lt;div&gt;Elke oscilloscoop heeft diverse &#39;utility functions&#39;, afhankelijk van uitvoering. Denk aan instellen IP-adres&lt;/div&gt;&lt;div&gt;Daarbinnen kan onder verdeeld worden: instelling voor HB-IB/VISA, algemene display functies, enz&lt;/div&gt;&lt;div&gt;&lt;br&gt;&lt;/div&gt;" style="shape=note2;boundedLbl=1;whiteSpace=wrap;html=1;size=25;verticalAlign=top;align=center;" parent="1" vertex="1">
          <mxGeometry x="40" y="60" width="250" height="140" as="geometry" />
        </mxCell>
        <mxCell id="uGAUejW8zV6dBdsqU0kJ-34" value="Network &amp; IO Settings" style="swimlane;fontStyle=0;align=center;verticalAlign=top;childLayout=stackLayout;horizontal=1;startSize=26;horizontalStack=0;resizeParent=1;resizeLast=0;collapsible=1;marginBottom=0;rounded=0;shadow=0;strokeWidth=1;" parent="1" vertex="1">
          <mxGeometry x="300" y="670" width="160" height="112" as="geometry">
            <mxRectangle x="340" y="380" width="170" height="26" as="alternateBounds" />
          </mxGeometry>
        </mxCell>
        <mxCell id="uGAUejW8zV6dBdsqU0kJ-35" value="+ item: attribute" style="text;strokeColor=none;fillColor=none;align=left;verticalAlign=top;spacingLeft=4;spacingRight=4;overflow=hidden;rotatable=0;points=[[0,0.5],[1,0.5]];portConstraint=eastwest;whiteSpace=wrap;html=1;" parent="uGAUejW8zV6dBdsqU0kJ-34" vertex="1">
          <mxGeometry y="26" width="160" height="26" as="geometry" />
        </mxCell>
        <mxCell id="uGAUejW8zV6dBdsqU0kJ-36" value="" style="line;html=1;strokeWidth=1;align=left;verticalAlign=middle;spacingTop=-1;spacingLeft=3;spacingRight=3;rotatable=0;labelPosition=right;points=[];portConstraint=eastwest;" parent="uGAUejW8zV6dBdsqU0kJ-34" vertex="1">
          <mxGeometry y="52" width="160" height="8" as="geometry" />
        </mxCell>
        <mxCell id="uGAUejW8zV6dBdsqU0kJ-37" value="IEEE48Settings" style="swimlane;fontStyle=0;align=center;verticalAlign=top;childLayout=stackLayout;horizontal=1;startSize=26;horizontalStack=0;resizeParent=1;resizeLast=0;collapsible=1;marginBottom=0;rounded=0;shadow=0;strokeWidth=1;" parent="1" vertex="1">
          <mxGeometry x="110" y="670" width="160" height="112" as="geometry">
            <mxRectangle x="340" y="380" width="170" height="26" as="alternateBounds" />
          </mxGeometry>
        </mxCell>
        <mxCell id="uGAUejW8zV6dBdsqU0kJ-38" value="+ item: attribute" style="text;strokeColor=none;fillColor=none;align=left;verticalAlign=top;spacingLeft=4;spacingRight=4;overflow=hidden;rotatable=0;points=[[0,0.5],[1,0.5]];portConstraint=eastwest;whiteSpace=wrap;html=1;" parent="uGAUejW8zV6dBdsqU0kJ-37" vertex="1">
          <mxGeometry y="26" width="160" height="26" as="geometry" />
        </mxCell>
        <mxCell id="uGAUejW8zV6dBdsqU0kJ-39" value="" style="line;html=1;strokeWidth=1;align=left;verticalAlign=middle;spacingTop=-1;spacingLeft=3;spacingRight=3;rotatable=0;labelPosition=right;points=[];portConstraint=eastwest;" parent="uGAUejW8zV6dBdsqU0kJ-37" vertex="1">
          <mxGeometry y="52" width="160" height="8" as="geometry" />
        </mxCell>
        <mxCell id="9B4cOfEt_YTa0rVssgrD-5" value="trace" style="swimlane;fontStyle=0;align=center;verticalAlign=top;childLayout=stackLayout;horizontal=1;startSize=26;horizontalStack=0;resizeParent=1;resizeLast=0;collapsible=1;marginBottom=0;rounded=0;shadow=0;strokeWidth=1;" vertex="1" parent="1">
          <mxGeometry x="970" y="520" width="160" height="112" as="geometry">
            <mxRectangle x="340" y="380" width="170" height="26" as="alternateBounds" />
          </mxGeometry>
        </mxCell>
        <mxCell id="9B4cOfEt_YTa0rVssgrD-6" value="RawTrace, ScaledTrace" style="text;strokeColor=none;fillColor=none;align=left;verticalAlign=top;spacingLeft=4;spacingRight=4;overflow=hidden;rotatable=0;points=[[0,0.5],[1,0.5]];portConstraint=eastwest;whiteSpace=wrap;html=1;" vertex="1" parent="9B4cOfEt_YTa0rVssgrD-5">
          <mxGeometry y="26" width="160" height="26" as="geometry" />
        </mxCell>
        <mxCell id="9B4cOfEt_YTa0rVssgrD-7" value="" style="line;html=1;strokeWidth=1;align=left;verticalAlign=middle;spacingTop=-1;spacingLeft=3;spacingRight=3;rotatable=0;labelPosition=right;points=[];portConstraint=eastwest;" vertex="1" parent="9B4cOfEt_YTa0rVssgrD-5">
          <mxGeometry y="52" width="160" height="8" as="geometry" />
        </mxCell>
        <mxCell id="9B4cOfEt_YTa0rVssgrD-9" style="edgeStyle=orthogonalEdgeStyle;rounded=0;orthogonalLoop=1;jettySize=auto;html=1;exitX=1;exitY=0.5;exitDx=0;exitDy=0;entryX=0;entryY=0.5;entryDx=0;entryDy=0;" edge="1" parent="1" source="uGAUejW8zV6dBdsqU0kJ-15" target="9B4cOfEt_YTa0rVssgrD-5">
          <mxGeometry relative="1" as="geometry" />
        </mxCell>
        <mxCell id="9B4cOfEt_YTa0rVssgrD-10" value="heeft één" style="edgeLabel;html=1;align=center;verticalAlign=middle;resizable=0;points=[];" vertex="1" connectable="0" parent="9B4cOfEt_YTa0rVssgrD-9">
          <mxGeometry x="0.0064" y="-1" relative="1" as="geometry">
            <mxPoint y="1" as="offset" />
          </mxGeometry>
        </mxCell>
        <mxCell id="9B4cOfEt_YTa0rVssgrD-11" value="Mogelijke interface.&lt;div&gt;via Scope Object zet je bijv TimeDiv(Horizontal) &amp;amp; stel je de Triggerunit in. Een manier is Scope.Horizontal of Scope.Trigger&lt;/div&gt;&lt;div&gt;Via Scope.Vertical benader je een Channel om bijv Volts per Division in te stellen en start je een acquisitie (capture). Een capture retourneert of twee numpy ndarrays, bijvoorbeeld een tuple (tvect, yvect) of één Pandas Dataframe. Zowel numpy als pandas biedt save opties van de data aan.&amp;nbsp;&lt;/div&gt;&lt;div&gt;&lt;br&gt;&lt;/div&gt;&lt;div&gt;Via het Scope Object heb je de optie om een plotfunctie aan te roepen. De plot functionaliteit is een aangepaste Matplotlib&amp;nbsp;&lt;span style=&quot;background-color: initial;&quot;&gt;variant&lt;/span&gt;&lt;span style=&quot;background-color: initial;&quot;&gt;, waarbij er naar gestreeft is om het scherm van de desbetreffende oscilloscoop zoveel mogelijk na te maken.&amp;nbsp; &amp;nbsp;&lt;/span&gt;&lt;/div&gt;" style="shape=note2;boundedLbl=1;whiteSpace=wrap;html=1;size=25;verticalAlign=top;align=left;" vertex="1" parent="1">
          <mxGeometry x="790" y="5" width="350" height="250" as="geometry" />
        </mxCell>
        <mxCell id="9B4cOfEt_YTa0rVssgrD-13" value="DisplaySettings" style="swimlane;fontStyle=0;align=center;verticalAlign=top;childLayout=stackLayout;horizontal=1;startSize=26;horizontalStack=0;resizeParent=1;resizeLast=0;collapsible=1;marginBottom=0;rounded=0;shadow=0;strokeWidth=1;" vertex="1" parent="1">
          <mxGeometry x="490" y="670" width="160" height="112" as="geometry">
            <mxRectangle x="340" y="380" width="170" height="26" as="alternateBounds" />
          </mxGeometry>
        </mxCell>
        <mxCell id="9B4cOfEt_YTa0rVssgrD-14" value="+ item: attribute" style="text;strokeColor=none;fillColor=none;align=left;verticalAlign=top;spacingLeft=4;spacingRight=4;overflow=hidden;rotatable=0;points=[[0,0.5],[1,0.5]];portConstraint=eastwest;whiteSpace=wrap;html=1;" vertex="1" parent="9B4cOfEt_YTa0rVssgrD-13">
          <mxGeometry y="26" width="160" height="26" as="geometry" />
        </mxCell>
        <mxCell id="9B4cOfEt_YTa0rVssgrD-15" value="" style="line;html=1;strokeWidth=1;align=left;verticalAlign=middle;spacingTop=-1;spacingLeft=3;spacingRight=3;rotatable=0;labelPosition=right;points=[];portConstraint=eastwest;" vertex="1" parent="9B4cOfEt_YTa0rVssgrD-13">
          <mxGeometry y="52" width="160" height="8" as="geometry" />
        </mxCell>
        <mxCell id="9B4cOfEt_YTa0rVssgrD-21" value="VISA device" style="swimlane;fontStyle=0;align=center;verticalAlign=top;childLayout=stackLayout;horizontal=1;startSize=26;horizontalStack=0;resizeParent=1;resizeLast=0;collapsible=1;marginBottom=0;rounded=0;shadow=0;strokeWidth=1;" vertex="1" parent="1">
          <mxGeometry x="520" y="450" width="160" height="122" as="geometry">
            <mxRectangle x="340" y="380" width="170" height="26" as="alternateBounds" />
          </mxGeometry>
        </mxCell>
        <mxCell id="9B4cOfEt_YTa0rVssgrD-22" value="" style="line;html=1;strokeWidth=1;align=left;verticalAlign=middle;spacingTop=-1;spacingLeft=3;spacingRight=3;rotatable=0;labelPosition=right;points=[];portConstraint=eastwest;" vertex="1" parent="9B4cOfEt_YTa0rVssgrD-21">
          <mxGeometry y="26" width="160" height="44" as="geometry" />
        </mxCell>
        <mxCell id="9B4cOfEt_YTa0rVssgrD-25" value="RescourceManager()" style="text;strokeColor=none;fillColor=none;align=left;verticalAlign=top;spacingLeft=4;spacingRight=4;overflow=hidden;rotatable=0;points=[[0,0.5],[1,0.5]];portConstraint=eastwest;whiteSpace=wrap;html=1;" vertex="1" parent="9B4cOfEt_YTa0rVssgrD-21">
          <mxGeometry y="70" width="160" height="26" as="geometry" />
        </mxCell>
        <mxCell id="wwr3x7LoOGRkYNSfm_wT-2" value="open_resource(url)" style="text;strokeColor=none;fillColor=none;align=left;verticalAlign=top;spacingLeft=4;spacingRight=4;overflow=hidden;rotatable=0;points=[[0,0.5],[1,0.5]];portConstraint=eastwest;whiteSpace=wrap;html=1;" vertex="1" parent="9B4cOfEt_YTa0rVssgrD-21">
          <mxGeometry y="96" width="160" height="26" as="geometry" />
        </mxCell>
      </root>
    </mxGraphModel>
  </diagram>
  <diagram id="cJDFZQ4mgY-Ou6sg9QWY" name="kathodeStraalBas">
    <mxGraphModel dx="1213" dy="576" grid="1" gridSize="10" guides="1" tooltips="1" connect="1" arrows="1" fold="1" page="1" pageScale="1" pageWidth="1169" pageHeight="827" math="0" shadow="0">
      <root>
        <mxCell id="0" />
        <mxCell id="1" parent="0" />
        <mxCell id="zTyWqxEdRdecwzUVAb3k-1" value="" style="shape=image;verticalLabelPosition=bottom;labelBackgroundColor=default;verticalAlign=top;aspect=fixed;imageAspect=0;image=data:image/jpeg,/9j/4AAQSkZJRgABAQEAYABgAAD/2wBDAAIBAQIBAQICAgICAgICAwUDAwMDAwYEBAMFBwYHBwcGBwcICQsJCAgKCAcHCg0KCgsMDAwMBwkODw0MDgsMDAz/2wBDAQICAgMDAwYDAwYMCAcIDAwMDAwMDAwMDAwMDAwMDAwMDAwMDAwMDAwMDAwMDAwMDAwMDAwMDAwMDAwMDAwMDAz/wAARCAGkAlgDASIAAhEBAxEB/8QAHwAAAQUBAQEBAQEAAAAAAAAAAAECAwQFBgcICQoL/8QAtRAAAgEDAwIEAwUFBAQAAAF9AQIDAAQRBRIhMUEGE1FhByJxFDKBkaEII0KxwRVS0fAkM2JyggkKFhcYGRolJicoKSo0NTY3ODk6Q0RFRkdISUpTVFVWV1hZWmNkZWZnaGlqc3R1dnd4eXqDhIWGh4iJipKTlJWWl5iZmqKjpKWmp6ipqrKztLW2t7i5usLDxMXGx8jJytLT1NXW19jZ2uHi4+Tl5ufo6erx8vP09fb3+Pn6/8QAHwEAAwEBAQEBAQEBAQAAAAAAAAECAwQFBgcICQoL/8QAtREAAgECBAQDBAcFBAQAAQJ3AAECAxEEBSExBhJBUQdhcRMiMoEIFEKRobHBCSMzUvAVYnLRChYkNOEl8RcYGRomJygpKjU2Nzg5OkNERUZHSElKU1RVVldYWVpjZGVmZ2hpanN0dXZ3eHl6goOEhYaHiImKkpOUlZaXmJmaoqOkpaanqKmqsrO0tba3uLm6wsPExcbHyMnK0tPU1dbX2Nna4uPk5ebn6Onq8vP09fb3+Pn6/9oADAMBAAIRAxEAPwD9/KKKKACiiigAooooAKKKKACiiigAooooAKKKKACiiigAooooAKKKKACiiigAooooAKKKKACiiigAooooAKKKKACiiigAooooAKKKKACiiigAooooAKKKKACiiigAooooAKKKKACiiigAooooAKKKKACiiigAooooAKKKKACiiigAooooAKKKKACiiigAooooAKKKKACiiigAooooAKKKKACiiigAooooAKKKKACiiigAooooAKKKKACiiigAooooAKKKKACiiigAooooAKKKKACiiigAr4O179qr9qb4yftu/Gv4a/CGw+A1n4d+EcujQtP4v/tX7dfnULIXOf8AR/3fGH/SvvGviz9hH/lKx+29/wBhDwd/6ZpKAJ/I/wCCg3/Pf9j7/vjxDR5H/BQb/nv+x9/3x4hr7MooA+M/I/4KDf8APf8AY+/748Q0eR/wUG/57/sff98eIa+zKKAPjPyP+Cg3/Pf9j7/vjxDR5H/BQb/nv+x9/wB8eIa+zKKAPjPyP+Cg3/Pf9j7/AL48Q0eR/wAFBv8Anv8Asff98eIa+zKKAPjPyP8AgoN/z3/Y+/748Q0eR/wUG/57/sff98eIa+zKKAPzV/bu/ah/bv8A2Jv2SvG3xU1aP9lK6sPBunpe3EFhb67JLL+9jjPlxySR/wDPT/npX6Tf8ta+Mf8Ag4e/5Qu/H/8A7F+P/wBLLevtKgAooooAKKq3kLTWzxrJJGZOjp/yzr4l0/8AbB+IHhn9gDxXY32qJqHx78NeJZ/hZb37WsY/tDXJLgW2nagYPLjiKSW89veeX5YjxvHagD7kor8+fjX/AMFstE/Zs+K+o+Fn8OHxl4W+HdydJ8beMrvxv4e0rUrS4t44zcyQaRJPHc3Yj3/vPLjjHD+X5leo/En9vD4iRftFeMPh18N/gRrfxFfwddaWmpa2vijTtI0y1t7yz+0ZzOfNMkZx+7jjk4Iff/yzoA+taK/Nb9mX9vX48fEL9hjwd4s+JfgnWPh5d3nirwjpVh4isPEejam/i1NU161064MsEdt5dsgFx+8HliTBPlyRyDzB73L+3n408YftEXnhzwH8BfGHjj4c+Hdffwz4g8cwa7pljFbXkTiO4+zWc8ouLuO3lfy5JP3f7yKbyxJsoA+rqK+BPEf/AAWx0z4ef8FBIfgl4o8FaFZWGpeI4/DWnaxpvxH0bVdTku5JfLje40iOT7Tbxk4zk+ZH/wA869o/YE8Xav43v/ji+satqerf2N8VdY03Txd3kkv2K2jjtTHbx7/9XGPM/wBX70AfSdFFFABRRX5+eKf26/FH7Pf/AAUe+OfhsfDT4/fGHRo9O8Mz2Fp4NsLfUrHw55ltc+YNlxdweRJMfn/dj/lnQB+gdFfnZ+zz+3X8S779nCyj8LeFNY134qfFP4p+LNK8P6P8Q9Teyj8MQW99e3Lx6g6faJI47a3i8sQW/mAfu4467GT/AIKO/Erw/wDCvXtP1X4c+GLn40eCPH+h+BdX0Kw16QaLqEuqfZpLe4tLuSLzI45Le5jP7yL92fM/1mOQD7ior43tvG/xrh/aA8MaV4jsfBdh8VL/AMCeJ73T9L0fxTqj+DZbmO8sRZm4DwJJIcSfvJPs/mR/vPL/ANZXF/CP/goN8cfBfhz4x+J/ix4Q+FGs+DfhZphSDUfh1qeoXEOsa2Zdn9lRyX8EYkMZKRyyR/u45JPLyZI5Y4wD78or4w8N/ttfGX4V+OtV8J/GvwP8PND8Qal4O1zxn4Sn8KeIrvUrK6j0r7MbiyvBcW8Ekc6fbLb95FvjkBk6eXiqnwB/bd+O/jHxx8MovH/w3+GnhzQfjZoE994U/srxbealf2F/Hp/23y7/AP0OOJI5IhJzbySeXj/lp1oA+2qK/NL9kv8Aa1/aF+EX/BOnX/iF8UdW+BJg0+SeLwzq2reJ9deS+vP7YubeSK98y0kuD/zzto7fzZZPLijwM1j33/BQvxP+2T/wTb/ab07xRpWl6F4u8AeHo5ZbrRINYsbK+t72OUxyRR6vZ2d5HjyJB/q/LOBslz/qwD9RaKrWf+qqzQAUUUUAFFFFABRRRQAUUUUAFFFFABRRRQAUUUUAFFFFABRRRQAUUUUAFFFFABRRRQAUUUUAFFFFABRRRQAUUUUAFFFFABRRRQAUUUUAFfFn7CP/AClY/be/7CHg7/0zSV9p18WfsI/8pWP23v8AsIeDv/TNJQB9p0UUUAFFFFABRRRQAUUUUAFFFFAHxb/wcPf8oXfj/wD9i/H/AOllvX2lXxb/AMHD3/KF34//APYvx/8ApZb19pUAFFFRzTeVQBJXzP4i/YJGt/tzaf8AFxvFki+Gohb6nfeEf7LzFfa5b29xZW+qfaPM+Ty7a48vy/K58qOTzP3ddp8L/wBvH4IfG/xl/wAI94M+Mnwp8YeIZB+70rQ/F2n6jeHZ1/dRymSvYKAPz5/aG/4IbaV8XP2iNf8AGehav8KtOsfGOpHVdctfFPwY0PxXqbXDn999k1C7G+JJO0csdwEOcYH7uvrH4V/s/wAnw1+OHxN8Yyawb+P4jT6ZKlgbTy/7LNnZx2ePM3nzPMxv4RMdPeqH7RX7cXwp/ZO8SeENK+InjbTvDuseP79dK8O2EsUslzqlwZY4/wB3HGjybPMkjG8jYPMTJ557r4RfFXQPjR4ItPEvhfUI9V0S/kljt7uON0E3lyyRyff5/wBYjj8KAPl74d/8EzvGnhP4Lp8ONY+MqeI/Bnh7xh4f8Q+E4X8Ix219oVvpWvW2rfY5LiO4xceaLeO3Evlx+X/rPLk6V0Gg/sQ/Ev4b/H3U9V8AfHS68L/C3xF4jk8U6t4NuPCdpqlybieXzLyO01CSTNtBcS/vChikx5knl+XX1fXM6p450fSPGuneHrnV9Lttf1i2uLqw02W6RLi+jt/KFxJFHnfIkfnxeZxx5kfrQB8daB/wSd8beHtcGmWfxwit/hjaePY/Hdj4aTwLZxXvmf2r/aUlvd6h5nmXP72R/Lk8uOQfJ5hlxX0l+zZ+zxL+z5c/EN5dZTWV8deNNQ8XR5tPs5sftKRAW3MknmeX5R/eYTP9wd+u8L/EjQPiJqWs22h6/pGtXHhzUG0rVYrC7S4fTbuMJI9tPs/1cojkjJjfB+cV1dABRRRQAV5j8Pv2cNN+Hn7QHxC+INrqOoXGp/EePTI7+1nKfZ7b+z45IovL+TPSQ5zXp1eA/ti/8FI/gt/wT/l8ORfF3xtb+D28WfaP7ISTS7u9+1G38vzeLeOTmPzI89OtAHN+L/8Agmt4e1/4djSdO8Y+NvDPiCw8Z6r460XxPpFzBFq2h6hqMtzJPHEDF5clv5dxJEY5I5N8Zwc8VZ+Hv/BOLw14I8AQaRd+K/G3iLXZvGVh461bxNq9zBJqevahZyReV5/7sRCPyreOPZFHH+7j616h+zx+1F8Pv2sfh/H4n+G/jPQfG2gyv5LXelXkdwLZ+P3cgzmOTp+7kG/muy8T+IbDwZoF/qmo3MVjp2mwSXl3PLxHbxxgySSH8P5UAeW/H/8AZLtfjv4ouNZ/4SfxN4X1qXwhrHhG2vdGkjjlsY9RNtvuY3eM4uIjbjyzXlnwe/4JWweAPhDq/wAOvE3xc+I/xJ+HmqeHZPDUXhvWodKtrawi48ueB7Ozt5fPQf8ALTzPfqBXX/Af/go54J/aF8T+GdN0rRviToVx4wnvU0FvEfhK90VNYitLeK4e5i+0Im+3kinTy3xyR2r6NoA+Vfhr/wAEzLLwpqGv6p4v+KPxR+KXiDVvDN54QsNU8T3dlLJ4e0y78vz4reOC2ijMkhjiMksnmSSeTHzXo2n/ALI2j6ZdfBkxavq2fgrA8GlcRf6aDpx079/+7/55uT+72cmvYJ5vKi315faftceAtQ+GHgPxpb68jeGPifPYW/hi/WyuMao+oRiSzxH5fmJ5oP8Ay0Ce+KAPFLT/AIJQ6Zp3gnxF4Ws/it8W4PD13rieJvC9ql7Zj/hAtQ+2zXvm6fJ9n8zHmzyfu7jzY/LPl4xzV/T/APgl5pa+CPizouu/E34oeMdQ+MOgafoWua1rN5ZvfRpafafLkt/Lt44o/wDj5k/d+X5fty9fWFFAEcMXkx1JRRQAUUUUAFFFFABRRRQAUUUUAeMftXft0fCT9iWw0W6+KvjvSPBUHiKWS3017/f/AKXJHjfs2AnOJB+deR/8P8f2Qf8AouvhL/vzc/8Axqsn9vy1gvP+CpP7EkM8MdxHJqnjDKSR+Z/zBa+wv+EE0X/oDaT/AOAcf+FAHyl/w/0/Y+/6Lx4S/wC/F5/8ao/4f6fsff8ARePCX/fi8/8AjVfVv/CCaL/0BtJ/8A4/8KP+EE0X/oDaT/4Bx/4UAfKX/D/T9j7/AKLx4S/78Xn/AMao/wCH+n7H3/RePCX/AH4vP/jVfVv/AAgmi/8AQG0n/wAA4/8ACj/hBNF/6A2k/wDgHH/hQB8pf8P9P2Pv+i8eEv8Avxef/GqP+H+n7H3/AEXjwl/34vP/AI1X1b/wgmi/9AbSf/AOP/Cj/hBNF/6A2k/+Acf+FAHyl/w/0/Y+/wCi8eEv+/F5/wDGqf8A8P8AL9kD/ou/hH/vi4/+N19Vf8IJov8A0BtJ/wDAOP8Awo/4QTRf+gNpP/gHH/hQB4Z+zh/wVH/Z9/a++JX/AAh/w2+KGgeLPEZs5NQGnWiSiUQIQJJPnjHH7wV9FV8S/E3SLbR/+C7nwVjtLa3t0/4VH4o3+TH5f/MR0mvtqgAooooAKKKKACiiigAooooAKKKKACiiigAooooAKzJfEunWk/lTajZxSJ/BJOgNX/NSvy/+C/8AwT0+DX7cn/BSj9se++LHgWy8Y3nhvxXodlpkt3eXMX2WJ9FtpTHH5ckf/LSgD9Mf+Eu0r/oK6f8A+BKf40f8JdpX/QV0/wD8CU/xr5M/4cBfsf8A/REdA/8ABhqH/wAkUf8ADgL9j/8A6IjoH/gw1D/5IoA+s/8AhLtK/wCgrp//AIEp/jXxn+w7rdlaf8FTP21p5Lm3jhudQ8H+XI848uX/AIkslbP/AA4C/Y//AOiI6B/4MNQ/+SKZ/wAOAf2P/wDoiGgf+DDUP/kigD62/wCEu0r/AKCun/8AgSn+NH/CXaV/0FdP/wDAlP8AGvkz/hwF+x//ANER0D/wYah/8kUf8OAv2P8A/oiOgf8Agw1D/wCSKAPrP/hLtK/6Cun/APgSn+NW4bxL2EPE6SRv9x0frXxh4o/4IKfsh6d4Xv54fgnoHmW1pK8f/Ew1D/nmf+nitH/ggozS/wDBH74Eb3kcnQHQ736/6TcUAfY1FFFABRRRQAUUUUAfFv8AwcPf8oXfj/8A9i/H/wCllvX2lXxb/wAHD3/KF34//wDYvx/+llvX2lQAVWvf+PWb/rnVmo5ofNoA/If4V+Bf2a0/4IReDNR8b2Pw5s/G58H/AGjR7+1js4vEo1/959j+xyR/6T9s+07PL8vn8Kt/tc/Hr9oTxV8cNB8ASzfFrRbzwf4G0DWbtPA/jnwn4Uur/Vbi3lN7cXh1gf6XFHLFs8u3/dcSb+1foD8Nf+CdnwD+CXjm38S+D/gn8LPDHiK0ctFqumeF7O2vYvXy5Y494/Ouh+Ov7Ivww/afh09PiX8OfBXj+PSZDJYf8JDotvqX2Tf9/wAvzEOygD4k+AXwl8X/ALSP7evwh+IHjL4jeP8Awv4wtvhDpGva7o/hPxFp0nh+/nj1H/SLaQRx3EUttcSDe/lXH/XOXvXiWr/Hf4neG/2P/wBn34deBH8dafo/jU+K73Ub7wZ4n0LwvrF1JbazJ5dvb3msfu4z+8kkkji/e/u/+efmV+tHhz4UeGfDOtW2paZ4f0fTNQ03TY9Gt5rSzSKS2sI38yO2j2D5IsniMcdPSub8U/sk/C/x/wDCtfAet/DnwPrPgi3uHurfQr7RLe50yGXzPMMn2eRDGH8x3fp3oA+DPBHx6+KnxR+FPwd+GfxF+KniD4PJ4y17xNpOoeK7LXtCvPEd9b6f5cmn2L6nafaNPj1CSOX97IkaSSfYpMRx+ZUfxx/ZusvGH7X/AOznps37WPxik08eE/GmnW/jLSvFWlWd3dy22o6S/wBnkuI7P7O8n7zy5R5fmS/Yos/6qTf95Xv7Gnwm1D4Kw/DSf4X+A5vh1bESJ4Xfw/bHSYufMylv5fl7/M5/OoPEv7EXwb8afCrRPAWq/Cr4eal4K8Lz/atH0G48N20mm6ZLz+8t7cp5cZ/eSf6sfxmgD428b/GvxLoul/EzRV+Id58M9P8AFH7Rf/CG3/iqCOzjvNC0uTRba4/cSzx+VHLJIkcfmSRyeX9p9uOe8bfGj4hfDH4BfH74feEfjr4o8bW/w61/wPpvhz4hXb2epa5plxquq20V5ZXE8EcdtdyW/wC7k/eR/wCrvfLkzX6Da1+zp4D8S+FPE2h33gvwrqGieOZ3u/EOm3GmW8trrM7xxp5lxFIhE0hjjjyX/wCeY9BVTwt+yt8MvBfwsg8C6H8PvBWk+BoLuO9TQbHRreDTftEcsdxHL9nRBHvEiRvvx1QUAeI/sseFPGH7PH7bfi34aaj8VviJ8VPD+peE7PxfDceMpbOe+0u8k1G6tpY7eS2t7eNLaSNI/wB15f7vy/3f+sr68rnT4I0dPHDeJBplmfEElmmmPqPkJ9p+yeYZPs5l6+X5jl9metdFQAV8S/tr/tCeC/2b/wDgqB+z14h8e+MvDXgbQZvA3jiy+367qcWm20sj3Phx0jEkpGZD5ZOw/wBz8K+2q5vxX8N/D/joW/8Abuh6LrRtjmAX1lHc+Wf9jeKAPzf+Jvxqn+I+u/tRfGv9l9XvNLHw8s9KuPEuj2UhsvE/iC3vLp3ubQiOQXctnZSf8fEcUg/exgeb5fl14n8A9TsviD4B+OPh/RfGvw7vvBOr/CDxBe63o3hj4/az8Q726vI44pLfUZPtEUclhJ/rI5P3kfm+Zjy6/aCw02DR7SO3too7eC3TZHHDH5ccYrM0z4eaBoMd+lno+k2aaoc3Ygso4/tvH/LTj56APgTwH8C9G/Zn+In7Jdh4Bh1UXF/4Z8T6xbw6rrd5q0kt5JoVlxHJeSSSRx/u0/d5jj9q+dP+Cd/xg8V+Iv2s/hPqF3498B2vxL8QX88HjnTbv436rrPiHXv9DuftNlceF5LOOKweKURyR+X5f2f7NzJJFX7Kt4ftGltJfstt5lkNkDeX/wAe/b5KrWvgnRbTxJJq0Wk6dHq1zFskvkt4xcSD08z79AH5qfsNn4I/tBXGi/8ACbfGfxrqP7TPjS21TTfGfg9/H2oWOoRXklvc/bdN/seO48uztrb955ckccePKjk8zn5+A/YOj+GPwr/YM/Zwt/hh4zuZvG0/jbwBpPxM0tPGd7eXWjah+8jksrizknk+wDzPtMf2eOOKOTyh/wA8+P1th8IaZFr82rxabZR6rPH5T3qQJ9pkTt+89Krw+BNFs7u4ng0jSori5u0vp5Es03yz/wDPU/8ATT/boA/Kb43fFfwtY+LvH3iF/i546sv2xNG+I8uleFPBUHim8jkkt/7RijsrKDQ/+Pe4065svLkkuPs0n+slk83938noPx3/AGf7f4x+Mv24vHWoeN/ipZaz8J9UjvfClvpfjPUNO03Qbu38H6Tex3MdnbyRxyS+af8Al48yL/pn/rPM/SBvBulS+IY9Yl06wk1aKPy0vXt0+0xp/wBdOuKe3hexf7fmxtP+Jkf9M/0cf6T+78v5/wC/+7ASgDN+EutzeJfhj4c1W6YPc6npdvczuB9+SSOM5rqagtoEtIRGiJGicIo7VPQAUUUUAFFFFABRRRQAUUUUAfF37eH/AClT/Yi/7CnjD/0y19o18Xft4f8AKVP9iL/sKeMP/TLX2jQBF5v+xS18d+LPiVpv7CP7Z3xY1PVT5fhH4keD5PiDHGGjj/4m+jW8dtqEcf8A00kshp8n/bI182eLv2ifi1+yh4c8D/Cvw4/irQfG/irQbj4p+N/Eeg/CnUfiFcy6pqmoyySWX2O3kjEEcf7xPMlk/wBXFFHGOKAP1bqPz6+A9J/aq/aG/aE8Pfs/6DoL6N8I/FvxI0zxO3ie48WeCb1ntTpc1vbx3ttplxLb3Ef2guJYoriTiK5G/wAzy/3mD+y/8Hfjbov7T37ReoeJ/jV4d8U+GNL1CKLxNoEXw6Sy/wCEikPh22Ecsc8d5JLb4zH+7xJ5nl/9NKAP0aqSvzj/AGZfiV8WvjX8G/gT8LvhD4m8BfCBNJ+Cvhfxvq+q3fhl9e837ZF5FtZWdn9otgkY+x3BkkMkn+sjjHqU/by/a1/aF+GnxDtdB+GOuav4h8VeBfDFnqXjPSvDvwoi1vSHvJPMffJf3mr2X2eOTy/9RGZJY4/3nNAH6Bf8JXpv/CS/2Kt/af2x5H2z7F5yfafs+/y/M2dfL38Z9fyra/g/CvjD9m34nt8b/wDgod4Y8ZT2aWM/iz9n3S9Ze1U5+zfaNUkl8v8A8ifpX2hQB+dH7f37Q1t+zR/wWJ+C/im58K+OfGscfws8SWv9m+D9IOrap+81HSf3n2cHPljHWvQP+H1mi/8ARuv7XH/hs5f/AI7Vj4wf8p4vgh/2STxX/wCnHSa+z6APij/h9Zov/Ruv7XH/AIbOX/47R/w+s0X/AKN1/a4/8NnL/wDHa+16KAPij/h9Zov/AEbr+1x/4bOX/wCO0f8AD6zRf+jdf2uP/DZy/wDx2vteigD4o/4fWaL/ANG6/tcf+Gzl/wDjtH/D6zRf+jdf2uP/AA2cv/x2vteigD4o/wCH1mi/9G6/tcf+Gzl/+O0f8PrNF/6N1/a4/wDDZy//AB2vteigD4o/4fWaL/0br+1x/wCGzl/+O0f8PrNF/wCjdf2uP/DZy/8Ax2vteigD4o/4fWaL/wBG6/tcf+Gzl/8AjtH/AA+s0X/o3X9rj/w2cv8A8dr7XooA+KP+H1mi/wDRuv7XH/hs5f8A47Sn/gtNog+9+zv+1z+Pwwl/+OV9rVHQB+BvhT/g56+IX7J/7eHif4V+OPAnjf4l+A5Ncji0CC+0f+yPHujW9wRLHZyW2dl5JHHII4xJ5ckv7uTzPnr7/wD+CUPjeP4mftuftl6+ml61okeseJ/Dd1/Z+s2cllf2vmaDbfu57eT/AFcle9fs3f8ABPX4UfstfEXxN458OeF7S5+IXjC7uNR1vxdqX+m6vqEk7mSQfaH/ANVH/wBM4wkfCcV5J/wTl/5SM/tx/wDY6eH/AP0w21AH2xRXzL/wVW8a+KfAX7H7z+EfFWreCtb1fxd4U0EazpkUT3tjBqHiHTrK4MQkjkj8zyriT+A1wNtYfF39g346fDO11b4w6/8AGb4c/EvXv+ERurLxXpdlFrmhXkllc3FteQXdnFBHPF/o3lyRyRZ/eeZ5nGKAPtio/Pr88vAP/Befwl47/ac0nwtBpHgk+BNb8Qf8IxYaynxO0eTxJLdSXIt4pJPD2ftkdvJKBg+Z5gj/AHjxCt/Wf25dY/ZJ/ZM+J/jy+/4RzxPcab8WvEGjW6+M/H6eG7KO3Go3Plxx3lxHJjy44x5dvHHz/wAs6APvKivh79mz/gsPpf7R/wCzF4b+J9l4YtLfRpPHdv4C8UyWuvpe2Xh6WUxRpe29wIALu3+0XFpHnEfMwPbn6G+EH7Qcnxm+LPxF0Sw0do9A+Heq2+gjWVu8jVdQNv8AaL2BI/L/AHcduJbePzPM/eSmVMJ5X7wA9C8d/wDInax/14XH/ouvlL/ggX/yiA+A3/YDk/8ASm4r6s8cf8iXrH/YPn/9F18p/wDBAv8A5RAfAb/sByf+lNxQB9jUUUUAFFFFABRRRQB8W/8ABw9/yhd+P/8A2L8f/pZb19pV8W/8HD3/AChd+P8A/wBi/H/6WW9faVABRRRQAV8MfHn9sz9ofS/2mfi5pPwz8JfBHVfAXwTsNP1DXH8V69qGkanfi5sjeuIJI7eS2TGw/PLwOtfc9fDetf8ABIT4cftG/wDBQH4rfFb4yfDPwp43g1AaHF4QuNSc3Iijt7Ly7mOS3z5ePN/56R0Adr8Df28x8WfF3i7xLeWmoWfgDTPhZ4W+IlhZJo8lxrFrHqi6tLPFJHH5kkknl2cH7uOP881W8Z/8FXvASfs4/FTxl4ctfGbax8NfD8+tSaHrvg3V9JvLlOfIkFvPbxyyW/mfJJJHkR4ffVP9o/8AZQ+JnjPxR8fdS8B6hF4cvvHHgTw3o3hu/h1WXT5RcafealLcWwktx5tp5kVxHF9oj5j83enMZrwX9lv/AIJceLfCvi34q6rb/CHwV8Dbf4ofCy/8Iy2lp4/vfGF1Lqcsh8u4vLi4ij6R9o/MPH+s7IAfTXg7/gql8MtV/ZksviXq7+K9Asbq9h0aKxv/AAlqtvqWqahJbRz/AGfT7N7f7Td/f+/FG4Plyf3DWtJ/wU5+DifAa0+I3/CQavJo19rMnh23sV8N6jJrk2ppGZJLEaYLcXouBHG8nl+V/qh5n+r5r50+Nv7KPx7/AGqf2ePh1q+t+Cl8C/EP4P6jc2tp4e8M/Fq90l/E9hJp0dp9oj1e0t45bKQy/vBHJFJ+7i2P/rf3eP4Y/YZ+KPh39k6a5b4Nv4j8d6p4zTxPJpurfH/VbnxLYSR6d9ijvIPEf2PzI7nyx9n8uP8Ad/Z5Meb1oA+7fgJ+0F4c/ae+G8Hirwnc6hcaVcTS2zpfabc6ddW0sfEkclvcRxyxyDI+SRK9ErwT9hD4ffEz4ffs8W1l8VtSmvfEk2oXFzDaS6vJrVzo9lK/+j2UuoeXGbuSLvOYx+ON596/g/CgBaKKKACiiigD50/4Ke/tA+Jf2Vv2HPGXjjwlqWi6Vr2jSafHb3+rW32ixsPtGo21tJLLH5kfyJHK5/1g6V8m69/wUO+JfhfwJ8efDNv8YfhZ8YdV8HfDC58Y6V46+H+lx2p8O3vmG3jsry2NxeWxkkwZIv3nS3l3x4MdfY3/AAUQ/Zl1H9sf9k7xH8OtOn0NLnX7jTpJP7Vi8yykjttRtrmSORPLkyJI4JI+n8VZnx4/YV8NXX7D/wARvhL8JvC/gb4dw+M9GvLGCDTdLj0rTYriWPy/Nkjt4x/KgDA/bM/4KbeH/wBhXxTZ2ni74f8AxM1LQZrCO+uPFelWmn/2JYIZJBIHknvI5GljCeZIkcUnEkfXNc5N/wAFHNetv+ChEvwz0v4T/FPxV4P1HRNCvbDxBo2kWcmmWpv5ZfM1CS4kvEf7F5fljIi8zzLa4xHwPM81/be/4JL+NP2lP2lPHPibTrD9nPxLoXxA0SLTv7T+IvgifX/EHg+W3szbRxaWfMEUdvJL/pHmf8s5ZZJPLlr1bSv2WPjT8Jvj78NfE3gfX/htcaDZ+EdH8F+O7DXLK9e5Frp7yy/aNLlgkwZZPtEkey4jAH3+f9XQBseGv+ConhHxN8YLTQIfBPxai8JanrH9gWfxEfQM+Eb3UDJ9njjjuPM83y5Lg+XHcfZ/s8kmMSVe+F3/AAUZ0f4v/HU+ENC+GfxivfDyaxf6FF46/wCEfQ+F5L2yuJLa4j8/z/P+S4gli8x7fy/MjP7zvXx/8Kf+Dfg/Bf8AbO0TxRpXhX9nnUvBeh+ID4gg8Q6jpeuf8JpGftJuY4vLTUP7Okkj+4LnywP3Y/0evX/h/wD8E6vizYft+n4mXuofBHwp4fttbn1WfVPAujappPiXxpHIZf8AQ9Xj8/7FJzJH5lx5ckh8rjy6APvuiiigAooooAKKKKACiiigAooooAKKKKAPi79vD/lKn+xF/wBhTxh/6Za+0a+Lv28P+Uqf7EX/AGFPGH/plr7RoA8h/aQ/Y+8Bfta2Hhi08eaLcatB4R1qLXtPEd3JbD7RGScSeW48yJ+kkcn7uTuKo/tOfsO/D/8Aazm0e48V2OuQavoAki0/WdC1+80HU7aOTiSD7TaSxymOTvHnZXqtp4nsL/VrqygvLeW9sdn2mBJP3lt5n+r3p71p+fQB5F8N/wBkDwF8M18Dy6Jp98kvw4sNQ07QpLnU7m6kgjv/ACnuPMeSR/tEjmOM75PMPWs3V/2DPhzqP7Rl38VPsWs2vi/VLX7Hqb2WvXlnYawn2eS3jku7KOT7NcSCNygeSMn8sV7f59Vb7U4NKtZ5p3S3gto98kj/AOrjoA+c/iP/AMErfg18R/BXgLRbnRPEFh/wrLQo/DPh7UNG8T6jpOrWumJHHGLOS8t7hJZ4j5ceUkkxxnrnK/Eb/glN8Evinrdhfar4Y1SP7Fodt4bks9P8RajYW2qWFskgt7e8jguI47vy/MfH2jzP1r3DwZ8TNA+IWjaTqWha5pOsWGvWKarps9jdpNHf2kmNlxFsPzxfPH8/TpWD8K/2ofhx8c73VbPwb4/8G+LLnRbt9P1CHRtct76S0uB/yyk8t/3cnB+SgCj8Of2UfBfwl8VaLrWiadd22oaF4VtvA9g73ssnk6XbyeZHH878v/00Pz+9eq1H59Hn0AfGnxf/AOU8vwR/7JJ4r/8ATjpNfZ9fGHxf/wCU8vwR/wCySeK//TjpNfZ9ABRRRQAUUUUAFFFFABRRRQAUUUUAFFFFABRRRQAV8V/8E5f+UjP7cf8A2Onh/wD9MNtX2pXxX/wTl/5SM/tx/wDY6eH/AP0w21AHsX7d/wCyxq/7YH7N9/4J0HxcPAOttrGkazpuuyaQmrGwuNP1C21CM/Z3kjEn7y3H/LT1+lef/An9gXxv4f8Aip4f8f8Axu+Oeu/G7xJ4NE0nhy1OgWfhzRNHnljkikvBZ22fNufLlkjEkkh2JLIO+a+sqKAPgfwD/wAEULT4T/tP6Z4s8M+OdC0/wBpWsnW7bw3N8MfD9xq8Uv2g3HlLrj2/2n7P5nYg3Gz/AJeM4rtPiz/wTE1jxV4Zs5vB/wAU7nwH470Lx9rHjvw/4gHhuz1WOwk1T7QLi2ks7j93P+7uJP3nySe9fYlFAHxv44/ZEuPgv+w1+0HpXizXPGvxt1D4i2+oaxepBpUaa3qFxJp0dsltbx2cfl+Zvt4/LMcY8rI/55769i/YZ/Z8uf2YP2WPB/g3Vb6TV/EllYC48QalcS+bJquq3GZby4kf+MyXEkhr2ao6AMrx3/yJ2sf9eFx/6Lr5S/4IF/8AKID4Df8AYDk/9Kbivq3x3/yJ2sf9eFx/6Lr5S/4IF/8AKID4Df8AYDk/9KbigD7GooooAKKKKACiiigD4t/4OHv+ULvx/wD+xfj/APSy3r7Sr4t/4OHv+ULvx/8A+xfj/wDSy3r7SoAKKKKACiivjn9q74la/wDE7/gpr+zv8GfDesXmm2WhW+qfFbxmbG5e3mk0+0T+z9PtnwMSRXF7eP5kf/TtQB9jUVHBUlABRXD/AAt+OHhT413/AImh8La5ba2/gnW7jw3raW5f/iX6hEkcklvJ/wBNEEkef9+u4oAKKKKACiiigAooooAKK+YPhZ+0l4s+MX/BTH4meA9Gn07/AIVh8I/Cun2msZtM3Nz4j1CT7TGkcn/PO3sY08xPW6ir6boAkoor43/Ye+I+t/tQfty/tE/ERNZ1Ob4e+EtTtvhf4W08TyCxuLjT4zJql75f3JJPttxJAJB/yztqAPsiiiigAoor5m+PH7dHiHwJ8Zb74ffDL4NeMPjN4n0DT7PVNeGmavpek2OiwXjSi3D3F/PH5kknkSPsjD8Dk0AfTNFeN6d+1x4d8Kfs/wBj8Q/ift+CdhI3kXVr441Kz06TTbjzJIxFJL5pg+cx5jMch8zcMU/XP23fg34c8E6Z4nvvir8O7HwzrdhJqematceIrOKxvbSOSOOS4il8zy5I0eWMZzwXxQB7DRXkerftqfB/QvGHhnw7efFX4eWGv+MbaO70TTp/EdnHc6zBL/qpbeMy+ZIkn/LMx5zVz4o/tefC34HeNtE8M+NPiJ4J8J+IvEr/APEp0rWNat7K9vv3nl/uo5JAZP3nHFAHqFFeT/Fz9s74Q/s+61Jp3jz4neAPBd8iwPJaa3r1tYSj7QZPK/dySD75ikxx/wAs3+temWd7DqVlHPA8csEib43R/wB3JQBcooooAKKKKAPi79vD/lKn+xF/2FPGH/plr638X+MrHwF4R1fXtVmW203QrSS8u5v+ecUcfmOfyFfJH7eH/KVP9iL/ALCnjD/0y19SfFj4W6H8aPh5q/hTxJYjUdA8QWctjqFrvdBcwScSIdhB+cZ70Aflv/wT0/bI8C/8Nn+APGNnP4oj8Z/tFT6xZeP/AO0vCesadbxXEksl5oUf2y4tI7eX7Nbp/Z8flyc+ZHXoHxM+JH7TY8F/E34peHvjzYabo/g/4p3vhXRvCN14F0+4sZLQ6zHpsf2u4zHcSGPzMx+XJGf3ce8yZNfoB8VPg34b+MPhC28P+ItIt9R0i2vbLUILfe8QiuLO4iuLaRNhGzy5Yo3GP7g4rHuv2XfA9x4H1nwy/h6L+w/EetyeItRtfPcC6v3uhePcH5+v2hEk+o6UAfGvj743fHT9lnSv2mPC3iD4vv8AEPXPCHwnj+IHhbxBceF9P0640C7kk1O38j7Nbx+VPHHJZxyfvfMPOP3nSuosdZ+M3wI+Pej+F/H3xgs/inpPxY8Ia5enSj4Ys9Gk8KSWcEcn2i38j95JbyfaPLk+0eZiTyv3nOK9u/bC/ZGsfjz8H/ivHoFnpVn8QPiL4FuPBSalqE0gtzb4ufs8cnl78Rxy3cpzHH5n7w1X/Zh/4JofAz9j5deufh58NPDvhfUPFdt5Gr3FoJJJLmPq9ujyOTHB/wBMo9kftQB8a/BSfUpvgv8ABKw0m5sNC1eT9je6urLXI9CtLrUtLuY49IEUsc7x+Z5Q8yQ/Z/M8qTGfL4zWz+wx8NNa+AXgv9jgavr+meOJ/E+l6hrlpczeDNI0650a3k8MRSR2cElvbiUc+b/pAPmSCTy5PMr7f8PfsefDrwrYaJbWHhu2t4PDvhCTwFpka3dx/o2iSeV5lmP3n/TvF+8/1n7vrWvo37Ofg7w7F4EjtNDhtx8L7X7H4XxNJjTYPs32TYP3nz/6P+7/AHmaAPzX/Y0/4KIftI/H/wDaF8DeJbjw/wDHW68E+PNaitr/AEq7+Gmj2PgjRNPkkMf2i31dLuTUJJIv3f7yXIk/efu4/k8v6n/4J63vxi+Nut674/8AF/xdm1HwhY+MfF+gaf4Rg8M6fbJ5Fnr97Z28lxeRp5kkkcdvj935Y/56eZJ+8rstA/4JYfs8+Gf2mv8Ahbmm/CbwlY/Eb7R9tXUobaRIorvH/Hylvn7Olx380R+Z/HmvYvhd8KtC+D3ha40fw5Yf2Zp1zqd/rEkKyvJm7vL2W8uJPnz/AKy4nkf/AIHQB8w/F/8A5Ty/BH/skniv/wBOOk19n1+e37a37RXgP9mL/gtL8EfEXxE8X+HPBPh8fC7xPZRanrWox2VrJcSX2mkR+Y5xvxG5r2z/AIfPfsnf9HF/Bz/wqbP/AOOUAfTtFfMX/D579k7/AKOL+Dn/AIVNn/8AHKP+Hz37J3/Rxfwc/wDCps//AI5QB9O0V8xf8Pnv2Tv+ji/g5/4VNn/8co/4fPfsnf8ARxfwc/8ACps//jlAH07RXzF/w+e/ZO/6OL+Dn/hU2f8A8co/4fPfsnf9HF/Bz/wqbP8A+OUAfTtFfMX/AA+e/ZO/6OL+Dn/hU2f/AMco/wCHz37J3/Rxfwc/8Kmz/wDjlAH07RXzF/w+e/ZO/wCji/g5/wCFTZ//AByj/h89+yd/0cX8HP8AwqbP/wCOUAfTtFfMX/D579k7/o4v4Of+FTZ//HKP+Hz37J3/AEcX8HP/AAqbP/45QB9O0V8xf8Pnv2Tv+ji/g5/4VNn/APHKqap/wWT/AGVptOmS1/aR+DNtcOj+XO/iazk8p/8Ac8ygD6or4r/4Jy/8pGf24/8AsdPD/wD6YbavnX9jv/g6h+DPxI8e6j4A+MtzpPw68YaLqFxpjeIdMvP7S8Ga75Uvli4trvh445P9YPNjwEIPmV7r/wAEz9btfEn7fn7auo2FxDeWGoeLvDdzaXVtJ5sd1HJoNtsdHHBT6e9AH3TXgnws/aB8QeM/26/i/wDDq8Onf8I/4I0Hw3qumeVEftPmagdS+0eZJv8A+naPZx3Ne8yfcNfEvxq+Af7Unw//AG4PHnxJ+Blv+z/qGgePPD+iaVdweOtU1m2vbaTTvtv+rSzt5I9n+mGgDs/iV+35Z/s+eK/j5qni25v9Q8J/By00G8msdJ8Pf6bbpqEZziT7SftfPP8Aq4PLA/5adavfAz/gqD4I+MGreO7XWfDfxF+FjeAdMPiG7Pjzw6+jC+0ceYP7Rg+d98GYyMSeXJx/q682+Jn7CHxS+Mvgn43S6vqHgK18T/F/S/CMYSwu7w2Njd6WQbzG+38zyvM/1Xc/8tPLr0f9qL9hub9qf4peK21TULez8I+Mfhbf/D+6+zyyfbYZ7m5jk81I8eX5flg/x5z+dAE/7Nv/AAUd8PftIfE5/CZ8AfGD4b39xbvd6JL438KS6NB4mt4yPMktDvJ/diSPKS+XJ+8H7vvX0lX5t/8ABMz/AII06t+xT+1PJ421XwP8BtFt9J064stP1XwjqXii51bUvMJ8zfb395Jb2gIx+7Tz+/7zvX6SQUAZXjv/AJE7WP8ArwuP/RdfKX/BAv8A5RAfAb/sByf+lNxX1b47/wCRO1j/AK8Lj/0XXyl/wQL/AOUQHwG/7Acn/pTcUAfY1FFFABRRRQAUUUUAfFv/AAcPf8oXfj//ANi/H/6WW9faVfFv/Bw9/wAoXfj/AP8AYvx/+llvX2lQAUUUUAFfE/8AwTWQ/tBftVftM/HeaPzLLXfFifDzwxKRHKP7L8PiS3lljf8A55y6jJeSf9s469g/4KT/ALTk37IP7C3xN+INrv8A7Z0PQ5U0eNP+W2p3H+jWcf8A4EyRfnVz/gnz+zFH+xd+xR8Mvhh+5e78IaDb2upTRH93dahJ+9vJx/10uZJZP+2lAHtlee/tG/HLTP2af2fvGvxC1kt/ZPgbQrzXbsY5mjt7eSUxj/bPl4/EV6FXxF/wWCz8dNQ+CP7N8SpLH8cfG0EniCBj/rfDej+XqOo/9/PLt4P+3igDuP8Agj78CdW+Av7Avgn/AISdP+K28cef438WSlcSS6rqssl7ceZ7p5qR/wDbIV9S1FDCkMexKloAKKKKACiiigArlvip8StH+DHww8ReMNduBYaL4Y0+41bULj/njb28ZlkP/fEZrqa+J/8AgslqknxW8B/DX9nrTZpP7T/aO8X2/h+/WOR4pYvD9ni+1mUf9u1uLf8A7fKANf8A4IxfDvVdJ/Y1g+Iviq2jtvG3x+1m8+JutrvOLb+1JBLZ2/8A2ysvscez/pma+wap2djBplrHBDHHHbxpsjRE/dxpVygDxP8A4KDftRR/sa/sW/Ef4mNte68MaPLJpsB/5etQkxb2Vv8A9tLySCP/ALaVT/4JzfszXH7In7E3w28A38slzrWjaZ5+tzyH/j61S4ke5v5f+2lzcXD/AI14t+33En7UX7fP7PPwGQtc6RpWoP8AFzxnbpJgjT9KPlaXFIOkkdxqUkeUfr9lk9K+4aACiiigBP4Pwr4F/wCChmkeG4P2hrfUdV/Zt/aV8Y66unxabpnjz4Ra3/Z12YiT/o9xLb6pZ3A8uSR8C4Dx/OX6dPvuigD83NS+Gvxb+G3w4/Z/+IfxV+F3jH44j4cf8JHFq/hpJdP1rxTpcd5IBpV48XmR2WoXtvbR/ZriSOTzM3UkkfmfvK9I8J/BSx+OP7SXwL8Van8DZPB/hnSfCni2aPRdc0ez/wCKdvLi+07yPPjg823gubiL7TJ+7kJ+eXPNfbdFAH4yfti/sW/GLTf2jvitoI0v41a14Z+K2vyXmkT+Bfh54P1rSzaSW8UVvFPqGoSR3thJbeX5ef8AVx+VHJHWr/wUC/ZM+L0H7T/xWj/sz41eJPCHxelgis5fBXw88H+J4prf7FFbSW13can5d5aeW8chH7zyv3vmR8+Zj9gq8b+EX7WGn/Fj9rH4vfCpNE1Gx1L4RQaJdXd/OyfZ9Tj1W3uJY3i7/u/s0kZzQB414I/ZCt/EP7T/AMTNZ8ZeArbXxN8LfDHhzT9V13T49QkvJI/7X+2W/mf89P3luZPXzI69o/YG8J6r4B/Yl+E+ha9Y3mnavo/hTT7G8tbtf3ttJFbxxmN/cYr2WigAooooAKKKKAPi79vD/lKn+xF/2FPGH/plr7Rr4V/4Kk/8Jn4A/a7/AGX/AIpeGvhj48+J+kfDm+8SPrVh4Ts47m9txeadHbRYDyR/8tCfyrV/4e5eMP8Aozf9qv8A8EGn/wDyZQB9q0V8Vf8AD3Lxh/0Zv+1X/wCCDT//AJMo/wCHuXjD/ozf9qv/AMEGn/8AyZQB9q0V8Vf8PcvGH/Rm/wC1X/4INP8A/kysvS/+CyOu6rrmq2Vl+yf+07e32kSxW9/bwaPp0kthLJHHJHHIn2z5P3Ukcn/A6APumivir/h7l4w/6M3/AGq//BBp/wD8mUf8PcvGH/Rm/wC1X/4INP8A/kygD7Vor4q/4e5eMP8Aozf9qv8A8EGn/wDyZR/w9y8Y/wDRnH7V/wD4T+nf/JlAFD9ozwdpPjv/AILj/BLT9a0rT9asf+FT+KJTbX1pHcxEjUdKwcSdxk9u9UP+CsXwh8K+APBPwKfQvC+gaFJqfxx8E6VdvYWEVt9qtLjVo45beTYB5kckfDx9DWF8F/iP47/a8/4K5eAfiFdfAr4ufDDwn4O+HeuaLd3/AIu0+3topbu5vbKSOOPy5ZP+feSvSv8Agsz/AMiH+z5/2cH8P/8A08xUAfRH/DLXw1/6J74H/wDBBaf/ABuj/hlr4Z/9E98Df+CCz/8Ajdd9RQBwP/DLXwz/AOie+Bv/AAQWf/xuj/hlr4Z/9E98Df8Aggs//jdd9RQBwP8Awy18M/8Aonvgb/wQWf8A8bo/4Za+Gf8A0T3wN/4ILP8A+N131FAHA/8ADLXwz/6J74G/8EFn/wDG6P8Ahlr4Z/8ARPfA3/ggs/8A43XfUUAcD/wy18M/+ie+Bv8AwQWf/wAbo/4Za+Gf/RPfA3/ggs//AI3XfUUAcD/wy18M/wDonvgb/wAEFn/8bo/4Za+Gf/RPfA3/AIILP/43XfUUAcD/AMMtfDP/AKJ74G/8EFn/APG6q6p+zB8PjYT/AGT4e+AftXlnyPP0O38svj+PEdekUUAfnz+x7/wby/A34A/EnU/iR430yD4x/FfWtRl1S/1rXtJii02C7klMkhs9LGba3jz/AKvPmGLGEkHFdl/wTl/5SM/tx/8AY6eH/wD0w21falfmB8D/APgoN8F/2Kv+CmH7ZOn/ABY+IvhvwLe674r0O9sLfVpfLkuo49Fto/MjoA/T+ivkT/h/R+x7/wBHBfDz/wADH/8AiKP+H9H7Hv8A0cF8PP8AwMf/AOIoA+u6K+RP+H9H7Hv/AEcF8PP/AAMf/wCIrntE/wCDhT9kLVviDruh/wDC6PDFvHodtaXA1GeYx2V+bjzf3dvJ/wAtHj8seZxx5idaAPtyivkT/h/R+x7/ANHBfDz/AMDH/wDiKP8Ah/R+x7/0cF8PP/Ax/wD4igD6i8d/8idrH/Xhcf8AouvlL/ggX/yiA+A3/YDk/wDSm4qt4m/4Ls/sgaj4X1O3h/aA+HpkltJY40+2Sf8APP8A651Y/wCCB8+7/gj18B3/AL+gSOn/AIE3FAH2PRRRQAUUUUAFFFFAHxb/AMHD3/KF34//APYvx/8ApZb19pV8W/8ABw9/yhd+P/8A2L8f/pZb19pUAFFFR+b+8oA+JP8Agotn9ov9t79mb4BwxyXWmHX5/ir4u8uXHk6Zoyf6HHKneOXUri0/8B6+26+I/wDgn1cx/tMft+ftMfHJh5+laZq1t8JfCksqZK2mj5k1GSM/885NRuJf/AaOvuCgAr4j/Zuz+1R/wV6+NXxI2PJ4Y+B2kWfwm8PyLJ5kM+qSf8TLWZMf8s5I/MsLc/8AXOvpf9pr46aP+zF8AvGnxG14lNI8EaLd67ebHxJLHbxGTy0/25Nmwe9eN/8ABHb4Far8Fv8Agn/4MfxOn/Fb+PPP8ceK5DH5by6pqkhvZePWPzUj/wC2VAH1TRRRQAUUUUAFFFFAEfn18S/s+k/tQf8ABYH4u/ETIuvDfwE0S3+F2gSZ82KTU7zy9R1mVOuySL/QrYn/AGJEr6T/AGtf2hdL/ZT/AGbvHnxG1kwrp3gjQ7rWJN5/1pjjJjj/AO2j4QfWvLv+CS/7P+q/s6/sMeDrXxS00vxA8Yifxp4zmnH72bW9UkN7eeZ7xyT+X/2yoA+nKif/AFtS180f8FXP2jtZ/Zl/YY8a6v4Vjubjx/4gii8K+DLe14ubnXNTlFnZCP8A6aRySpJ/2zNAHnX/AATAMn7Rv7QH7QH7SNz5sll4z8T/APCEeEPMbzIo9A0LzLbzbf2uNRk1CQ19uV5b+xv+zhpv7IH7LHgD4Y6M3mWHgbRLfSfMAx9qkjjAkl/7aSb5P+B16lQAUUUUAFFFFABRRRQAV8R6BcyfDv8A4OBPEemphNP+KHwQs9WlMn/LS80rWpbfYP8At31AV9uV8Tftoyv4F/4K3/sdeJlVktNet/GHgy8k8v8A1n2iytr23j/OyloA+2aKztN1WDUI5GtZUuUikeKQxyb/AC5E6pWjQAUUUUAFFFFABRRRQAUUUUAed/tH/HfRP2Zfgj4n+IPiH7TJpXhSwkvZ7e1j824uR0jijj/jkkkxHGO5kr8GP+CLv7aP7QXwa/4K7fEfxX8b/BfivQvDfx01u00vxk0+mS+R4V1S4j+0aGJ/47ePy5Ps8fm/8s5f+mdf0SS2ySD5l3/PvFfFH7AVvHdf8FNv24o3RJI5Nf8AC4k+T/qC0Afb1FFFABRRRQAV8c/8Fmf+RD/Z8/7OD+H/AP6eYq+xq+Of+CzP/Ih/s+f9nB/D/wD9PMVAH2NRRRQAUUUUAFFFFABRRRQAUUUUAFFFR+alAElFFFABWJqPgTRdYu/PutH0m5uH++9xZxySH8cVt0UAYH/CtvD/AP0ANF/8AI/8KP8AhW3h/wD6AGi/+AEf+Fb9FAGB/wAK28P/APQA0X/wAj/wr5K/Zk8EaNcf8Fev2rbaTSdKktrXwp8PzFE9pGRCTHr2cfkK+1K+Qv2W/wDlMh+1t/2Kfw8/9F6/QB9Pf8K28P8A/QA0X/wAj/wo/wCFbeH/APoAaL/4AR/4Vv0UAYH/AArLw9/0AdE/8AI/8K07LT4NLtUgtoY4IIh+7jSPy0T8KuUUAFFFFABRRRQAUUUUAfFv/Bw9/wAoXfj/AP8AYvx/+llvX2lXxb/wcPf8oXfj/wD9i/H/AOllvX2lQAV4x+3l+0tB+x5+x58SPibcCMyeEtDuLyzTH/H1eY8uzt/9+W5kij/7aV7PXxB/wVGB/aF/aN/Zu/Z4tXmaw8ZeL/8AhOPF0UcPmQyaHoWL3yrj/plcaj/Z8f1oA9a/4Jhfs0y/sh/sDfDDwLeeb/bel6RHea28sm8y6peH7ZqEmf8Ar5nnxX0LRUc9AHxP/wAFhoh8eI/gr+znGPPX47eOIBr9tn/W+G9KMeo6ofx8u2g/7ea+3K+Hv2eV/wCGnv8Agr98ZviVLvuPD/wL0Wz+FPhwhh5J1S4A1HWJe2yUB7CD3Ar7hoAKKKKACiiigAooqOgD4l/4Kpxt+0d8YvgP+zZaN5tn8SfE6eKfGkfl+aI/DmhGO9kjk/55/aL77BEH9zX21XxR+wvdn9qH/gon+0N8cH3XPh/wnPF8HvBs7x4xBp5+0axJH28uTUpDH5g/1n2KP/nnX23QAV8RftLTj9qL/grP8FPhgim98PfBTTbj4s+KMp+6F/J5mn6HHntIJPttx5fH+qievteaVIY97NhI+tfFn/BHS3/4XT4c+K/7R91Cwu/2hPF0+o6M8sbiVfDen/6Do0cg/wCucdxcf9vtAH2zRRRQAUUUUAFFFFABRRUM8ywwl3PyR/foAmr8Af8Ag5s+DX7Rf7Jvxh8IfEf4V/EL4h3Pw18U+Jzf2Wm293JPL4J8TSW8tsPscnMsEd5Hcz+XHGfL8wycDMVfpr47/wCCnV78WvF974C/Zj8KRfGrxjp0wstW8QyXhsvA/hSX/p81MIfPk7/Z7JJZOv8Aq6z/AItfspftYePp0vI/jh8IdVtUjsL0eFtc+Fn23R01G3jt5DJHcfaftEcf22I3EZPmSR/u8H93QB7n+wf+zHD+x7+yF8Pvhukn2qfwvo1vb6hdb9/26/P7y8uS/wD00uXkk/GvZq+IfCf/AAU28W/s9fFLRvAP7VHw9tPhXeeIp47DQ/HmgapJq3gfXbl/+WH2iSKKWwkJ/wBXHcpzj/Wev21/v0ASUUUUAFFFFABRRRQAUUUUAFfE3/BPb/lJ5+2//wBjH4X/APTLX2zXxN/wT2/5Seftv/8AYx+F/wD0y0AfbNFFFABRRRQAV8c/8Fmf+RD/AGfP+zg/h/8A+nmKvsavjn/gsz/yIf7Pn/Zwfw//APTzFQB9jUUUUAFFFFABRRRQAV8Y/wDBYX9r3Xf2Ovh/8LrvTPiP4V+EFh4y8bjQdY8Wa/oP9tWumWn9lajef8e/mR5MlxbRR/6zjzK+zq+Zv+CinwE+KvxjtvhZr/wbv/AGneN/hj4v/wCEit/+Ez+2NpdzHJpWo6dJGRafvN+L8/l+BAPn/wCDX7c2r/Ef9mvV9e8MftN+Dvjnf2njvw3pEmo+F/Bn9gf2Xb3Go20cttJHJcXHmeZHJJ+8r3T4mf8ABUPwt8Nfidqek/8ACCfFrXvC/hi+/s3xJ440rw+j+GvDk/Bk+0XEkscjxxY/eyW8UqR5/eEVk6Z8D/2j/jh8D7rRfjXqXwSXxDYeLtE1vS28D2+pxWLWlle29zLHP9s8yTzT5f7vy8DpXzf+0z/wQNl+I/7WHiHxnoHh39nXX9C8c+ILnxFq+oeO/Dms3niHSJZQPMjtvsmoRW1xH5m+SPzI4/L8z/lpQB9X+P8A/go5pPhP466j4F0H4Z/GP4hf8I5fQad4i8QeFdBivdH8OXEvlyeVcSPPHJI8cckckkdvHKY45fwrzn4Lf8FSvEGq6z8dT43+EnxX0/w/8KtY1+SPXo9MsE05NP062jl+zZ+2eZJeSYfy/wB35Z82P95XR6r+zD+0H8I/2ifEd/8ACbx98LLX4bfETxB/wkWv2vivw5eXmsaFcvbW1vcDT3t7mKKRJfs/mf6T/q5P+egrO8RfsZfGY+J/j34Z0rxV8NZPhD8YrPVdQtEu9NvE8SaZq95ZRW3l+ZHJ9mezHlmT/V+Z+89qANyb/gqno1p8N/8AhIrn4RfHWAavqNnpXhPSZvDlvHq3ja4uLeS5/wBAt/tGdkcUEkkklz9nEeKZqf8AwVi8GaD8E5/F2o+Cvi1p2p6T4r0/wfqvhK48OxDxJpuoXpj+zh7bzfLkjkEkbh7eSQSZ/d7q6X9qL9lzxv488DfDvVPhv4h8O6D8T/hPejUNEuddsJb3Q7/fp8tlcWt3FHJHJ5Ukc7/vIz5ibErzPQv+Cd/xF162h8V+OvF/hDUfil4j+JHhvxv4kfR7G4s9Dt7TR/KjisrOOSSSX/VRn95If3kkn/LOgD2z9k/9s2w/axu/FenjwT8Qfh54l8GT20epaH4vsYLO/iS4jMkFxi3nljeOQRv0k/5ZngV7lXkvw4+DGo+Ev2p/iX44nubSXTPG2m6HZ2kMa/v7aSy+2+Z5n1+0R161QAUUUUAFfIX7Lf8AymQ/a2/7FP4ef+i9fr69r5C/Zb/5TIftbf8AYp/Dz/0Xr9AH17RRRQAUUUUAFFFFABRRRQAUUUUAfFv/AAcPf8oXfj//ANi/H/6WW9faVfFv/Bw9/wAoXfj/AP8AYvx/+llvX2lQBHXw/wDsUzj9p3/gqf8AtI/F9vLuNI+GzWnwY8MPswY/sey91n8fts8af9uyV9I/tiftEab+yN+yx8QPiZqvl/ZPA2gXms+W77PtMkcRMUWf78kmyMf9dK85/wCCTH7P99+zb/wT2+Gvh7XyZvFOoac/iLxFI8f7yTU9Tkk1C7/KW4eP/tmKAPpmuB/aS+OGk/sz/Abxl4/10/8AEm8F6Lea1eADl47eIybPx6V31fEP/BZGYfG6w+DH7OUEgef4+eOLe31y3/56+G9L/wCJjqv/AKLt4P8At5oA7H/gjf8ABHWPg5/wT78GXfisH/hOviP5/wAQPFkkkflyS6prEpvZfMH/AD0j8xIv+2VfVtRwVJQAUUUUAFFFFABXh/8AwUT/AGm0/Y3/AGKfiP8AEgxC4vfDujyf2XCf+XrUZyLeyt/+2lzJBH/20r3CviL9u9I/2m/+Cgf7OvwKV/O0fw/eyfGLxdBHJyLfSz5WlRyf9M5dRkEmP+Wn2KT0oA9p/wCCdf7M7/sffsTfDX4eXM8lxqmhaQj61Mxz9q1S4d7m/lz/ANNLyed/xr3Sik/g/CgD5J/4LMfFXWvBn7D+qeD/AApci38dfGrVbP4Z+G3b/lnd6rJ9nkk9vLtvtM//AGyr6K+Cnwp0T4C/CHwx4H8NWos9B8JaZb6LpsH/ADygt4xHH+iV8k+I4T+1h/wWr0Ow4l8H/sq+FX1i8PncSeJNdHlW0ZjJwfs+nwXD5HMf2kf89K+34KAJKKKKACiiigAqPz68n/ac/bG+Hf7GXgWHW/iH4mtNDgvn+zaXa583UdZuMf8AHvZ2iZluJzx+7ijJ5r59SX9pL/gokcImu/sr/By4J+d/Lf4i+I4f/RWiJ/4EXHH/ACzzwAem/tT/APBRrwT+zn47h8Babba38Sfi7f232mw+H/hW2+26xNHx/pFx/wAs7O355nuZI4+f468wj/Ye+Kv7eW6//ad8UJoPgi7cyQ/B7wTqEkembP8AnnrGqR+Xcan1/eQR+XbbwP8AWCvoP9lz9jf4cfsZeB59B+Hnhi00ODUpvtup3nmSXGo6zc/8/F3dyZluJOv7yRyea9doA5vwD8PND+Ffgqw8PeGdG0rw3oWkW/2ax03SbOOztbGMf8s440/doPp610lFFAHJ/Fv4R+Hvjp8O9Y8H+K9JsPEHhfxBayWmp6beR+ZFdRydjXx9+yL418T/APBP/wDais/2XfHusX3iTwR4is59S+DPirUp3kupra2/eXHh27k/jubOP95HIf8AWW3p5fl192187/8ABSz9k5/2yP2VNW0HSLo6R468O3Fv4p8D6yoG/R9fsJPtFlKOv/LRPLf/AKZyyUAfQnmc7e9SV4d+wB+1fF+21+yH4I+JK2f9nahrtn5Wrac//MM1O3ke3vLfn/nncxyJXuNABRRRQAUUUUAFFFFABXxN/wAE9v8AlJ5+2/8A9jH4X/8ATLX2zXhX7Pf7I/8AwpD9p/43/EX+2mvx8YtQ0q9Fj9nEY0z7FZfY/v8A/LTzMb6APdaKKKACiiigAr45/wCCzP8AyIf7Pn/Zwfw//wDTzFX2NXxz/wAFmf8AkQ/2fP8As4P4f/8Ap5ioA+xqKKKACiiigAooooAKKKKAI6+cP2o/+CpvwG/Y58ZQeG/iH8RdP0bxDcxxuNLtLC81W+s45P8AVyzxWcUskEb9pJRGOlfSdfmZ4Z/at8MfsSf8L68Ha/46+HXwR+OmvePtQ8Q22s/Eixl/svxRp9xc+ZZ3sbxy24vI47L/AEfZFcf6NJF+8j/56AH6B/B74xeFfj/8PLDxZ4L17SvE/hnWI/Ns9S064+0W10Paus8pK/NXwD+3Y9j4b/Zg+L3xk8ReGfCHh3VLrxdpWra5Y2txovhuSTmKykkjuJHMcdzHbeZGZT1/66Vy2kePbD9rX4TP/ZPjjxYnhfxj+1TJp8Op6Jq95pN9LYC2/wCPeOfMcsccuz/ll5f7uT93/wA9KAP1Xor5D/YC+Gmnfs+ftE/Hb4Y+G77xC/grwzeaJqOj6bqmt3mrS6VJe2R+0bJ7uSWfy3kj8z/WYzJJX15QAUUUUAfGXjj/AILBeGf2dfi9qHhj46+AfiN8FNOTU5LPSPF+qaZ/aHhXWY/N8uKT+0LPzI7fzR85S48vy8/vCK+pfhl8VPDXxk8HWviPwl4g0PxXoF/HvtNS0fUY76zuR/sSxkxn8DWrrWi2mvaXPZX1tb3dpcR+XJDPH5kco/6518dfEn/gif8ADP8A4TG48Y/B3VvFf7OPxAkn+0yar8PL42VjfyZx5d3pcmbKeLPUeWm/PWgD7Yr5C/Zb/wCUyH7W3/Yp/Dz/ANF6/XGr8X/2zf2LIx/wnXgXw7+1H4MsFPm+IPAWzRPF0aDrLcaVcP8AZriQ9PLspI/+udeef8E5f2/Phf8AtB/8FVv2jLy012bwxqvivwx4KgsvD3iu0fQdb+0Wf9r/AGu2NtcYkkki8+LzPK3p+8HNAH6ZVHUlFAHj2q/t1fBTQdWu9Ov/AIwfC2w1DTJnt7y0ufFdhHNayp9+OVDLlHHOQad/w8A+BP8A0Wz4R/8AhY6f/wDHa+N/+CR/7F3wi+OHwo+MGv8AjP4W/DzxbrZ+M/jOJ77VvD1nfXMiR6tL5aeZJHX1j/w7I/Zy/wCiCfB//wAI/T//AI3QBr/8N/fAn/otnwl/8K/T/wD47R/w398Cf+i2fCX/AMK/T/8A47WR/wAOyP2cv+iCfB//AMI/T/8A43R/w7I/Zy/6IJ8H/wDwj9P/APjdAGv/AMN/fAn/AKLZ8Jf/AAr9P/8AjtH/AA398Cf+i2fCX/wr9P8A/jtZH/Dsj9nL/ognwf8A/CP0/wD+N0f8OyP2cv8Aognwf/8ACP0//wCN0Aa//Df3wJ/6LZ8Jf/Cv0/8A+O0f8N/fAn/otnwl/wDCv0//AOO1kf8ADsj9nL/ognwf/wDCP0//AON0f8OyP2cv+iCfB/8A8I/T/wD43QB8rf8ABeH9sv4RfEL/AIJGfHHRdA+Kvw417WNR0OKO0srDxRZXNzc/6bbfcjjkya+vv+G/PgT5n/JbPhL/AOFhp3/xyvjL/gun+wh8EPhd/wAEk/jj4g8NfB74ZeH9b0vRI5LO903wvZW1zav9ptvuSRx5r6k8W/8ABLr9nTxV4d1Oxk+CHwntv7St5LYz2/hLT45YfMz/AKs+X8j/AD0AfMH/AAVn/a1+E37TN38FPgbZ/Ff4bXXh34kePLPUvGVwniWzltYND0c/2lcRTyRy/uzcSQW8cecfvJK+y/8Ahvz4Ff8ARbPhL/4WGnf/AB2v52f+CQ3jnxz+1X+3PH4Lf9mX4NfEDxR4P8Kx+DNT1TUtDjsdC0OO3vriSfWNQiSPFxeyDy7f+CSTyP8ArpX9BNp/wTH/AGeDbp53wK+Dzyfxung+yjz/AOQ6ANn/AIeAfAn/AKLZ8I//AAsdO/8AjlfHfwm/a7+Efxm/4LBfE74ma18V/hxZeHPhF4Usvh34Qku/E9gltf3d5jUdVvIvMk6x/wCh2/mRn/nqnY173+0T+x3+y7+zX8BvGXxA1r4FfCJNI8F6RcazeY8Jaf8AvI7eIyf88/b9a8j/AOCUf/BKz4WaB+wR4A1P4mfCL4b6z4+8a2cni/xDNf8AhGz821uNUkN4bbEkeY0t45I4BH/B5XFAH1L/AMPAvgP/ANFt+Ev/AIV+n/8Ax2n/APDf3wJ/6LZ8Jf8Awr9P/wDjtZH/AA7I/Zy/6IJ8H/8Awj9P/wDjdH/Dsj9nL/ognwf/APCP0/8A+N0Aa/8Aw398Cf8Aotnwl/8ACv0//wCO0f8ADf3wJ/6LZ8Jf/Cv0/wD+O1kf8OyP2cv+iCfB/wD8I/T/AP43R/w7I/Zy/wCiCfB//wAI/T//AI3QBr/8N/fAn/otnwl/8K/T/wD47R/w398Cf+i2fCX/AMK/T/8A47WR/wAOyP2cv+iCfB//AMI/T/8A43R/w7I/Zy/6IJ8H/wDwj9P/APjdADdQ/wCCkH7P+j61p+mz/G34U/a9Y8yOyT/hLLL975cfmSfP5npXyh/wTt/a8+EfxQ/aN/aE+PXiv4rfDzSrvx14nj8IeErTU/E9nHLa+HNGH2aKWON5BJGLm8+2XHocxvXif/Bz3/wTm+H3hr/gnlour/Cn4UeEfD3jK18daZb2v/CL+Hba1vtQ+0CW3SL9xF5kn7x48R+tdf8A8EVP+CAdl8Avgjp3iH9o3R/D/jbxxqemx29v4Wu9LtLnR/ClsQMRSR+X5Vzef89JJBJ5ZJEZ+/JIAfoH/wAN+/Ar/otnwl/8LDTv/jleU/F3/gsl+zp8BPij4N8P618U/Bb2HjODUZE1qw1y3vbDTpLSOOXZdOkh8gyRyP5fYmIp1KV6D/w7I/Z0/wCiCfCD/wAI/T//AI3XwN/wcDf8ETtM/aN/Zl+HHh79nz4PeC9D8b3PxBs7e/v9F0a206Ox0ySzvfPluJI4x/o6S/Z8/wAqAPWP+CP/AO1Z8LtJ/Z18Q/E/xz8Tvhz4e8dfH3xZqHj7U9N1LxXZR3OlW9w/l6dZuPM/5Zafb2/X3r64/wCHgPwH/wCi2/CX/wAK/T//AI7XzZ+wJ/wQN/Z6/Ye/Z/svDWqeAvCnxL8VSRxz634i8RaPFfTajc/9Mo5PMFvB/cjj6cE75MmvfP8Ah2R+zl/0QT4P/wDhH6f/APG6ANf/AIb++BP/AEWz4S/+Ffp//wAdo/4b++BP/RbPhL/4V+n/APx2sj/h2R+zl/0QT4P/APhH6f8A/G6P+HZH7OX/AEQT4P8A/hH6f/8AG6ALWpf8FDvgFpljLd3Hxy+ENvb26b5JH8Z6cI4v/IteEf8ADcfxR/bs8yx/ZY8N22m+DpHe3k+MPjaxkj0QjlHfSNPzHcanJkn95IY7bzIusgr23/h2T+zoB8vwH+EH/hH6f/8AG69W8GeDNJ+HvhOx0PQNLstF0fSIBbWdhYW6W9raxp/yzjROEH0oA8K/ZZ/4Jt+DP2dvHlx491e+1/4nfF29iWK88eeMJft2reXz/o9oMCKzt+T+6t0Tp8++vpHyKkooAKKKKACiiigAqOpKKAPhv9k7Sj+yX/wVf+M3wmgQReDvjPp3/C4vDkPl/u7XUPNi0/WY/wDtpL9muP8At4r7kr4d/wCCrLn4H/Hr9mH49xW5CeA/iBH4U1584ij0fxDG+nSSyf8AXK5Nm9fb0FAElFFFABRRRQB5r+078U/EfwS+A/ibxZ4W8It491/w/Zm8t9COrRaT/aPl/wCsH2if93HiPzHyf7nvXlXwo/4KM+Hz+yh4L+JnxwHhr4DT+ObaTULLS9Z8V297F9nEfmRP9pTy4pN8HlybAOPMx1FelftZ+ItT8P8A7NnjS50jwv4j8aanNpctrb6Poawfbb55P3X7vz5I4+N+85k+5H+B+ZvgX8KvE/xZ8P8A7HGoeJfhb4g8N/8ACr7G/stYsfEcFnLdaLcW+kizt7n5JJMeZJH+7kj/AHn7z/ln0oA+ix+3J8Hz8DtL+Jv/AAsrwbH8Ptdu47Gw8Sy6pFHpk07yGIR+e58tP3iEcntUfwv/AG7fg58YfhRf+OvC3xL8HeIfCGl3sWnXmq2GqRz21rcSSRxxxyEfcd3ljABH8dfE/wC038P9e+DPw18ST6r4A1DXrPV/2p9L8Q6LoEBs9/iC0kFicQC4kjt8y3CXH+skj/eV0njH4H/E79pbwR+0N8Q7P4U6x8PdT8a6X4XtvD/g7Wryzj1LXZ9Cvbm9e4uTBJLbwS3P2iO3j/ef8u0ZOKAPrL9qT9szwN+yX8L/ABrrPiPWdMi1Hwh4YuPFr6XNdC3luYI38qMgkfJ5lx5cWcf6yQVf/ZK/bE+H37bnwrXxb8O/FGi+J9PhkSzv3064+0JYXnlRSvbv/wBNEEifnXyZrXhb4qftn/HL4o+IZ/g14t+G2leIfgdqngzQz4r1DTxc3+oXFzJiOSO2nuPs4/eDrJX03+w18SPEHxC+Aemr4n+Gfi/4WatoKQ6XPp3iA2IkuWjt4vMnt/slxJH9nMhfH+r/ANWf3Y4oA9yooooAK+Of+CzP/Ih/s+f9nB/D/wD9PMVfY1fHP/BZn/kQ/wBnz/s4P4f/APp5ioA+xqKKKACiiigAooooAKKKKACsjVfCuna95K3tjZ3v2bmP7RAknlVr0UAUNU0K11jTzbXNvb3MB/5Zzx+Yn60n9hW3/Ptb/wDHx9p+5/y0/wCenT7/AL1oUUAVYLKCKd5kRBJL/rHCf6yrVFFABRRRQAUUUUAR+RX53yfsZ/C39tX/AIKpftX+H/ip4E0Hxrp1v4U8Am0N/bf6Rp5kj1rfJb3CYlt5P3f34nQ+9fopXyF+y3/ymQ/a2/7FP4ef+i9foA423/4JyfHf9ka3Lfs5fHzUNS0CM/J4E+Lvma9pB4AEdvqEf+m2ceP4B5kfP+rpdP8A+CwWrfs63MemftRfBjxp8EbhX8o+LdPjPibwXPjYBIdQtx5lt5p/guIk8sf6ySvu6oZ4kni2Mu9JOtAH5e/8Ezf2+/hx+zD+wz43+I+va5az+A9e+PviPT5NdspY5rXTYtQ1SX7NeSEHi3cmLMnbzd/+r6fp5Z3kF9bQzwSRvDIN8bxv8klfzn6r/wAEQPiX/wAFGPCPxA/4U3oXw1+H2nx/FLxbp3iPXr/xJqNjJ4jgt9Zk+zaf/Z9vbyW/2e22AxySfvPMA/1fl/vP1e/4Ipfsd/tC/sFfs3RfDD40eN/Bvj7R/DqInhefS5byW90u2/58nknjj823j48r/nmCY/8AViMRgH29RRRQAUUUUAcv8Tvib4b+DngO/wDE3ivXNM8N+HNHj86+1LUrlLa1tk+5mSR8BBkivG/+HvH7Lf8A0cL8HP8AwrLL/wCOV7j4t8JaX470G40rW9O0/VtLvY/LntL63juLa4H+3G45+lcb/wAMafCH/olfw3/8Jez/APjdAHwl/wAFsP8Agoz8A/j7/wAErfjV4Q8GfGn4XeJfFGu6JHFp2m2HiWzlub6T7Tb/ACRx+Z89fVsn/BXP9lvzdv8Aw0L8Hf3fX/irLL/45Xon/DHHwh/6JZ8OP/Cbs/8A43TP+GNPhB/0Sv4b/wDhN2f/AMboA+Yf2Wf2rf2Gv2NdB8Qaf4D+M3wU0X/hLdbvPEWt3X/CWWUlxqV5cSmWSSSTzM9/3cef3cY6Cvs/wt4r0zx34asNX0e+ttS0jUreO7tLuCTzYrmOQZjdH+n8643/AIY0+EH/AESn4b/+EvZf/G67rS9Jt/DumW9lZW9tZ2ltH5cMMEQjjjQfwIg47UAfGf8AwWSvT8Y9K+DP7N9lIn2j9oTxvBZ6xHjGfDul/wDEx1UjHfy4IIP+3mvtqGNI12D/AJZ18R/s/wA//DTn/BZr4x+PXbz/AA/8BPDln8MtEf78Uup3nl6jqsiekkf+h2//AH8r7hoAKKKKACiiigAooooA+Vf+Cjf7Qfib4E+Mf2d7Hw3PZRw+Pfi1pfhjWI57JLjzLKSK5kk8sv8A6uTMafvBX1NBXxb/AMFgP+Sk/sg/9l40P/0mva+0qAJK+UP2WPi/4o8X/wDBTP8Aan8J6rrd5e+G/B0fhM6Hpsj/ALrS/tOnSS3Hl/8AXST+VfV9fGX7Gv8Ayl+/bO/64eB//TTLQB9m0UUUAFFFFABRRRQAUUUUAFFFFABRRRQAUUUUAfIf/BdDwXc+Lf8Agk58bfsbvFd6Fo8fie38v/nppdzb6kn62dfTHwz8a2/xC+Heg6/aSRy2+uabb38Eg/5aJLGJB/OuX/bB0KLxV+yb8T9NmRJIr/wnqts8bpxJvs5RXC/8EodSOq/8EvP2cJt+9pPhh4b8x9/O/wDsq2zQB9DUUUUAFFFFABTPk9q+T/8Agoj+2R4t/Z48S+APC/hHUvhZ4Ov/AB5LdkeK/iTPcReHtONt5X+hfuHj825uDJ+7jNxH/qpP9Z9ym6d+0B8ZPh3+zPB4h8d618Fr/WLvxRpGl6frfhGy1C90fU7O9vre3f8A0eSfzI5B5kg8z7RJHwJP+mdAH0X47+Fug/Eu30dde0m01VdB1W31uw88Z+y3lucwXA/6aR101fJn7Rf/AAV8+G37NvxC8SaJeeG/iv4vh8HIf+Ek1nwl4NvNW0jw5P5Yl+z3l5GPLjk8t04yfLz+8MdX/wBon/gqt4B/Zk+JmueDr7wr8WPFWv8Ahmzs9V1WDwl4NvNcSzsrgyj7ZJJboY444/s7mTzCh/uCSgD6oor5q/aQ/wCCkXhf9njwt4O1228FfFz4j+HvGlgNWtdV8CeELnXrK0ssI4ubh4/9XHsfzP7+BTl/aqb4i/tG/A9fBetpf/Dz4leGdb1s/wCheX9v8r7D9mk/eR+an/HxJ+7/AHZ/v+lAH0nRUdSUAFfHP/BZn/kQ/wBnz/s4P4f/APp5ir7Gr45/4LM/8iH+z5/2cH8P/wD08xUAfY1FFFABRRRQAUUUUAFFFFABRRRQAUUUUAFFFFABRRRQAUUUUAFfIX7Lf/KZD9rb/sU/h5/6L1+vr2vkL9lv/lMh+1t/2Kfw8/8ARev0AfXtRz1JRQB+S3/BM/8A4J12f7QvgH4t+IJvjT+0J4JH/C3/ABfa/wBm+FfHB02xzFqsgEnl+V/rD3NfSf8Aw5w0z/o5f9rr/wAOY/8A8j183/8ABMH/AIJOfAP9q7wB8XPFfjzwD/bniAfGLxhZi7/tzULbMcWqyeX+7t7iOP8ASvp3/hwH+yT/ANEo/wDLo1n/AOTKAPmPw/8AsSWN1/wU88SfCPxt+0f+0fF4R0rwTp3iLwxpupfEu9srnxPcSXN7HeXEdxH5W9LMR28flR9PtPmV9Af8E3P2jtf039mb403Emp+MPjf4f+D/AIz1TQvB2s2sf23WPGOl29vbSRxRyfu47y4iuJLi0+0D/WG3+tX7n/g3u/Y+1XyWvvgxp1/9nfehvtc1W42f9/LivrP4e/DzQfhR4NsPDnhjRtN0DQdGgFtY6dpttHbWtog/gjjTGwUAecfsmftW3n7UnhfWdSu/hd8T/he+j3aWqWPjTSY9NuL/AOTzPMtxHJJ5kdYn7Mn7cOoftIfErV/D918FfjT8OYtMt3uItV8XaHHY2N+fM8vy45I5ZP3nfHpX0LRQB86w/tvanP8AtXP8L/8AhSfxq+xfbPsf/CaPoUf/AAjJ/deZ5v2nzc+X/wAs/wDV/wCs4p/7S/7cl/8As7fE3TPDNv8ABf40/EOLUoI5Tq3hTQ473TbMyPs8uSQyx4PevoeigDxX9rf9qy8/ZX0HR761+FvxT+J39sXL28kHgnR49RksNqf6y4EkkeyPtn1zU/jX9pu+8DfsyWnxHj+GnxN1q7u7a3uf+EQ03So5fEMJk/5ZyW/m48yPPz/vOxr2OigDxv4HftP3vxl+AOpeOp/hn8S/B8+mm7I8OeINLS11u6FumR5cHmH/AFv/ACz55/GvFfDH/BZLwfc6X40Txl4F+JPwe1vwl4UvfGFvpXj7TY9JudesrOOSS4+x/vJPM8sRx+Z6eaK+zq/Gj/g6M/4J9fET9vX4n/s16Z8MNButT8T3mpaxolxOD5dvpltJHbSvcXMn/LO3xG//AKLGXkEZAPcv+CEPxa8S6R8F7DwZ4t+C/wAafDHjHxveav8AEDxX4w1zw/HZaHf6pqF19pk8uTzPM3+XJHHH+7/5ZV9P+Ov22dT8G/tOWXw1j+C3xr1m0u7m2tj4v0/Qo5PD0Ql6yPcebkJH/wAtP3fFZf8AwTe/YEtv2AfgNY+HbzxV4n+IPjLVFjuPEXibXL+4vJ9SuduMR+ZIfIt4+fLT065ck19NUAfPv7Wv7beofsta7o1nZfBj4zfFBdZt5Lh7rwRoceoxWPlnHlzmSWPY57VvftI/tP3n7Ovwu0zxLa/Db4k/ER9SnjjOj+EtLjvdStt6by8kZkj6d+a9kooA8c/4advpf2UP+FnD4Z/EwXX2P7YPBb6ZH/wk3+s8vyvs/mY8z+PHmdO9fDXwU/bN/ay/bk/ag+NWheBdU8P/AAd0n4a/2dcW/h/x/wDDiSTXDb3lvJJF5nl6h1/dP/38r9R/4Pwr4r/Y9/5TP/tkf9gjwP8A+m65oA8L/ZW+M37e/wC1B4n1fTLzVdG+GX9kwR3Ed14x+DNzY21+fM8vy45P7Uk/ed6Z4U+NX7fHiT9p+f4YvqOl6Za2l3cWv/CYXnwXuY/DcoiGRJHc/wBqZKSfcj/d81+plFAH4u/t6/En9pj4Y/tu/sz+G/jBLF8RPDFp8UvD+o2ereEfh5Lpth9sk+0xfZhdyXknmSeWZJPL8vtX6Yftb/tfXn7KlporWPwm+LXxTOrySK6+CdGj1H7Bs7z5kj2V43/wWA/5KT+yD/2XjQ//AEmva+0qAPIPi/8AtO3/AMJv2ebDx9B8NPiX4snvktH/AOEX0LSo7rXLb7R/z0t/MAzH/wAtP3nGDX5o/B/4o/tEfGX9uX9r34kfCFB8MPs1h4Xu9Q8IeOfAkmpeJbsx6VKkccVvBeR+XJIY5CP+enmRelfsjXxl+xr/AMpfv2zv+uHgf/00y0AeMfsnePv29/2ptL1y6vPEvhb4YHSLmOAW/jL4O3OnSX3mAnzIP+JpJvjj9aw/2b/jh+3x8fvivqvhi71HSvAEGmR3Eia14n+ClzZabd+XJ5f7uT+1P+Wn+sr9UKKAPyt1L42/t8aX+1BB8MU1HSp4Jb1LQ+NIfgtc/wDCNRb4/M837T/amfL7E+X/AKziu08Hf8FOPjD8Bv20fHfwe+IXgDxZ8a7nwfoHh+4k1b4Z+EMx21zeC5klkuI5Lj93HgR+X/1ylr9Hq+Kf2Uv+U237Wv8A2K/gj/0nvqAPcP2qf2qLz9mHwbpGrWnww+J/xNfVLwW0lj4M0uO+urH93v8AMlSSSPYnGKdrn7TV5oX7LVt8S1+GXxMvbu50+C9Pg230uOTxLEZCP3Ulv5mPMj5z+8r2SigDxr9n39p68+PPwS1TxfP8NPiT4Il06W5iTw/4k0xLLWLryk3744vMP+s/g5FY37Iv7Zt/+1Zea7b3nwf+MHwvOiRwSI/jfRItNS/8zecW+ySTzPL2fqK9+ooA+dfhd+3HqHxO/aOvPh1L8E/jd4dtrOa8jHizWvD8dv4euRb9Clx5uT5v/LP93zij4qftw6j8Mv2jtP8Ah3B8EvjX4jhvJ7OKTxZo2hJP4ftRcdZHuPMz+7/5afu+M19FUUAeCftdftk6h+yleaLDZ/B34xfFM62krvJ4I0SLUUsPL2cT75Y/L35/Stf9oL9py++AvwX07xhF8NfiT45uNRe2jk8P+F9MS91i1Mqb/niMkePL/j5r2SigDxvQv2mrzWP2W7n4nP8ADL4mWN3aafPer4NutLjHiWQx5/dR2/mY82TsDJ6U39lT9qi8/ad8G6xq178MPif8Mn0q8Nstj4z0yOwur/8Adh/MjjEknydutezUUAfK3w7/AGzb39qbRPH3hvUPgv8AGX4aW2m+H7uQar4z0OOxsbzrEI4pBJJ5kn8dY/8AwQl8TXXi3/gkb8BHvNOvNPfT/CdnZRi6j2faY4oxHHLH/sPGARX0D+05qg0D9m74h33/AD6+GNRn/wC/dtIa8x/4JBaVHoX/AASs/Zvgi+7J8NPD9z+MmnW8n/s9AH0dRRRQAUUUUAeAftjeF/jH4t0qwtfhp4d+C/i7SpN41nRviFJe28U3eOSOS3iuB/wCSL/63hnws/4Jt+OPDvwP8V213B8LvCmveNvHfh7xfceGfCK3Ft4V0JNPvbGS48gSRZe5uI7eSSSTyo/Mk8v08yvvKm7KAPyE/b7+Kvij4HXfx4+BPhj4gfAfWW+L+p3Go2nhq8vL+Tx7DearFH5llHp9vGY7iP8A5aR3Eksflxv+8jPl1+gfh/8AZ31/Tfj18a/ErTaX/Z/xF0DSNK0yJLl/Niks4L2OQyfu/wB3/wAfEZH+s/pXtP8AYFl/an237HZ/a8f67yh5n/ffWrvkUAfmj41/4JOfEXWPD3wO06+8NfAP4nWXgX4X6P4G1PSvHk+o3OkaFqFmMXOo6fbxx+VceYNkf7yO3kxax/vI95x7f+yl+w54w+BFt+zlb38vhZl+EHhDV9A1iPTJ5RFLJc/Zfs/2NHj/ANUPIkz5nl9I/SvsHZRsoAdRRRQAV8c/8Fmf+RD/AGfP+zg/h/8A+nmKvsavjn/gsz/yIf7Pn/Zwfw//APTzFQB9jUUUUAFFFFABRRRQAUUUUAFFFFABRRRQAUUUUAFFFFABRRRQAV8hfst/8pkP2tv+xT+Hn/ovX6+va+Qv2W/+UyH7W3/Yp/Dz/wBF6/QB9e0UUUAfFX/BDT/k334uf9lr8a/+naSvtWvir/ghp/yb78XP+y1+Nf8A07SV9q0AFFFFABRRRQBzXxFsNY1XwTq9l4f1SPRdbuLOSOw1B7T7THYz7CEk8o/6zBwdntXyZ/wyL+2t/wBHgeEv/DR2f/yRX2xRQB+a/wC2X4U/bP8A2Q/2UviJ8T2/aq8J+IB4A0C71ptNHwssrb7cLePzPL8z7QfL/I123w//AGcf20fG3gTRNa/4a78J2/8AbOn2975f/CprL935kfmf8/HvXpf/AAWv/wCUSP7Rf/Yg6r/6Tmvdf2fv+SDeCP8AsAWH/pPHQB8s/wDDIv7aX/R4HhP/AMNHZf8AyRX098CfC3izwf8ACbRNL8deKYPGviu2twmp6xBpkemx38u//WC3j4j+g4ruqKACiiigAooooAT+D8K+K/2Pf+Uz/wC2R/2CPA//AKbrmvtT+D8K+K/2Pf8AlM/+2R/2CPA//puuaAPtWiiigD52/bm/ZP1j9qHxT8EL7RdRsNOT4YfEfT/Gd+tzv/0uC3iuI3ij2f8ALX973r6Fgo8ipKACvDvgz+ykvwn/AGvfjP8AFI6x9uHxdTQ4/wCzjbhBpn9nWclv/rP+WnmeZmvcaKACiiigAr4p/ZS/5Tbfta/9iv4I/wDSe+r7Wr4p/ZS/5Tbfta/9iv4I/wDSe+oA+1qKKKACiiigAooooAKKKKACiiigD5l/4LDfEpvhL/wS3+O+uQSvb3Y8GahZ2Ukfa5uYzbW//kSWOvWv2ZPhfB8FP2cfh/4LtUCW3hHw3pmjQf7lvbRRD9I6+Zv+C0c//CxvhD8K/gvawx3OofHD4naBo8ifxW2n6feDWby5/wByOLT/APyJX2r/AMtaAJKKKKACiiigAooooAKKKKACiiigAooooAK+Of8Agsz/AMiH+z5/2cH8P/8A08xV9jV8c/8ABZn/AJEP9nz/ALOD+H//AKeYqAPsaiiigAooooAKKKKACiiigAooooAKKKKACiiigAooooAKKKKACvkL9lv/AJTIftbf9in8PP8A0Xr9fXtfIX7Lf/KZD9rb/sU/h5/6L1+gD69qOpKKAPz2+EvwJ/av/Yak8Z+F/hl4Q+DXxC8M+J/GGseMI9W1zxPe6LdRSajeyXH2b7NHby/6vP8ArPM/eV3H/C4P29f+iJ/s4f8AhxdR/wDlfX2jRQB8Xf8AC4P29f8Aoif7OH/hxdR/+V9H/C4P29f+iJ/s4f8AhxdR/wDlfX2jRQB8Xf8AC4P29f8Aoif7OH/hxdR/+V9H/C4P29f+iJ/s4f8AhxdR/wDlfX2jRQB8Xf8AC4P29f8Aoif7OH/hxdR/+V9H/C4P29f+iJ/s4f8AhxdR/wDlfX2jRQB+Vn/BUr4mftlXf/BOL412/jP4T/A7SfCs3g3UE1S+0zx1e3V7aW/2c+ZJHFJZxiR8esgr1v4P/FP9uO2+E/hWPS/g5+z3d6bFpFmLWSX4hajFLNH9njwSPsBx+deqf8FsP+USn7Rv/ZP9V/8ASaSvcv2fv+SEeCP+xfsv/SeOgD5g/wCFwft6/wDRE/2cP/Di6j/8r6P+Fwft6/8ARE/2cP8Aw4uo/wDyvr7RooA+Lv8AhcH7ev8A0RP9nD/w4uo//K+j/hcH7ev/AERP9nD/AMOLqP8A8r6+0aKAPi7/AIXB+3r/ANET/Zw/8OLqP/yvo/4XB+3r/wBET/Zw/wDDi6j/APK+vtGigD4v/wCFw/t6/wDRE/2dP/Diaj/8r6+Vv2bfiP8AtdW//BTj9pu50f4U/BS58XT6Z4TGvWNx43vo7KxQWdz9m+zyfY8y+bGP3n7tPL465r9eP4Pwr4r/AGPf+Uz/AO2R/wBgjwP/AOm65oAk/wCFwft6/wDRE/2cP/Di6j/8r6P+Fwft6/8ARE/2cP8Aw4uo/wDyvr7RooA+Lv8AhcH7ev8A0RP9nD/w4uo//K+j/hcH7ev/AERP9nD/AMOLqP8A8r6+0aj8+gD4y/4XB+3r/wBET/Zw/wDDi6j/APK+j/hcH7ev/RE/2cP/AA4uo/8Ayvr7M83/AGKPN/2KAPjP/hcH7ev/AERP9nD/AMOLqP8A8r6P+Fwft6/9ET/Zw/8ADi6j/wDK+vs3z6koA+Lv+Fwft6/9ET/Zw/8ADi6j/wDK+vlX4AfEf9ryH/gqv+0jc6V8K/grc+L7nQfCg1qzuPGt7HaWEQt7r7Mbef7H5knmfvPM/dp5fHWv17r4p/ZS/wCU237Wv/Yr+CP/AEnvqAJf+Fuft6/9ES/Zw/8ADiaj/wDK+s6L/goV8ZP2S4W1D9qP4RWPhrwRct5ieNfh1qFx4k0jw7Hx8mqQGJLmBAP+XiOOSPnny6+4qjoA5z4bfErw78YPBGmeJfCuuaV4k8PazELmx1HTbtLm1u4/78ckeQ9dPXxz4/8A+CYh+FnjDUfH/wCzV4pT4GeNtQuBfaposVmLjwX4ruP+n/S+PLkk+59os5I5cH/lp0pfhj/wU0k8B/EDTfh/+0h4UHwL8e6lILfTNUu7wXPg7xTJg/8AIP1j93F5nyH/AEO4EdxzHxJmgD7FoqPzUqSgAooooAKKK8u/av8A2jvDn7In7PHjL4meLbqO00HwXpz6lcO783L9I7ePJ/1kkhSONO8kkdAHzq8kP7Tv/Bb9QiSXmi/su+CX3yOhEdr4j8QeUcIem9NKj/8AJ2vtuvlH/gkR+z1rvwP/AGSLfXfHNsIPij8XNUu/iH40DpseK/1B/N+z47fZ4PIt/wDtlX1dQAUUUUAFFFFABRRRQAUUUUAFFFFABRRRQAV8c/8ABZn/AJEP9nz/ALOD+H//AKeYq+xq+Of+CzP/ACIf7Pn/AGcH8P8A/wBPMVAH2NRRRQAUUUUAFFFFABRRRQAUUUUAFFFFABRRRQAUUUUAFFFFABXyF+y3/wApkP2tv+xT+Hn/AKL1+vr2vkL9lv8A5TIftbf9in8PP/Rev0AfXtFFFABRRRQAUUUUAFFFFABRRRQB8t/8FsP+USn7Rv8A2T/Vf/SaSvcv2fv+SEeCP+xfsv8A0njrw7/gtd/yiR/aM/7J/qv/AKTPXuP7P3/JCPBH/Yv2X/pPHQB2VFFFABRRRQAUUUUAJ/B+FfFf7Hv/ACmf/bI/7BHgf/03XNfan8H4V8V/se/8pn/2yP8AsEeB/wD03XNAH2rRRRQAV8q/8FGNY1zxZ4m+DXwq0zxbrPgLSPi54ouNK1zW9IuPsupG0t9Oub02Vvcf8sJbmSCOPzE/eeX5nl819VV5Z+0v+y34N/a3+Gv/AAifjzTZ9Q0yG9g1K1ntb2WxvdMvLc77e8t7iB0kt7iM8iSM5/DigD5o/aY/YZ8H/sX/ALFfx18Q/DzWPidpz3PgDWI5bC78d6xq9u8nlGT7THHeXMnl3HbzIpI/vmvB/wDgnP4Y8N/GX9o+Xwl4C8IftE/DDwOPh/eW3xJ0H4l+JtUtrvXTem3is7mwtLjUJL23k/d3n+mW/lxj/V/6z/V/Wnw4/wCCVHhLwV4F8ZaDrPxK+O/xD/4TbRrnw9dXnjLx9eazLZWlxgSR28cn+jxv/wBNPL8z3r03xt+yt4b8eeNfAniJJ9X0TxJ8OHEOj6vpc0cd1NZ7PLudPuDsPm2UoEfmRv8A8tIo5E8uSOOQAHx38GP+CWnwgvP2+/it4Unt/iRLoHgnRPDGr6Nav8TvEg+zXNzJqP2iTP2/Mg/0a24kzjyzjqa/SWuC8J/AnR/CPxx8WePrZ7/+2vGFhp+nX8byk23l2X2jytidv+PiSu9oAK+Kf2Uv+U237Wv/AGK/gj/0nvq+1q+Kf2Uv+U237Wv/AGK/gj/0nvqAPtaiiigArlvih8LPDfxo8C6l4Z8XaBpfifw7rEX2e/03UrdLm1uo/SSOTg11NFAHxA37Gfxh/YFkN9+zf4gPjf4e2ieZL8IfGupyeVap18vRNXkzJZ9OLe58y35/5Z16t+yz/wAFG/An7THjK58FSx6r8P8A4p6NF5ureA/FUP8AZ2uWQ/56xx/6u7t+v7+2eSPpzzX0L5SV/ON/wWz/AOCq3gz4qf8ABanwR4b120Os/B34I3smga9fabJNbXyXlwYxqF5bXcDx3EEtlIIxH5cn+stZPvxykOAf0e0V8L6d4w/aF/YR0aG+uJNV/av+CIt45bPVtKit4/iDoVp5eY5JYwY7bWY9mMyReXcHzN/lyVbi/wCC+v7NWuR3cPhXxR4w8f67YjEmheHPAmuXuqRyYP7iSP7IBbyfKeLh4+Uk/uUAfbD/AOtr899c1eP/AIK/fttWGhaUv9p/s1fs864mpa1qRH+ieO/F1uQYLKP/AJ62djnzJT/q5ZMRnMfWfxDB+0p/wVOjOiXXhrXv2X/gLqpKay2q3SH4heLLPgfZoreDfFo8UnzpI8kklx02DYa+yPgl8EPC37O/wt0TwZ4I0Oz8L+FvDVoLKxsLPiK3jBJPYkkk7955fJ380Ad15FSUUUAFFFFABRRRQAUUUUAFFFFABRRRQAUUUUAFfHP/AAWZ/wCRD/Z8/wCzg/h//wCnmKvsavjn/gsz/wAiH+z5/wBnB/D/AP8ATzFQB9jUUUUAFFFFABRRRQAUUUUAFFFFABRRRQAUUUUAFFFFABRRRQAV+dviX9pS8/Yz/wCCn3x98Tan8KfjV410nx7oHhPT9PuvB/gy51OPfp8epfaPMkxHFx9sjx5ckn+rkzsr9EqjoA+MP+H0uj/9G6/tcf8Ahs5f/jtH/D6XR/8Ao3X9rj/w2cv/AMdr7TooA+LP+H0uj/8ARuv7XH/hs5f/AI7R/wAPpdH/AOjdf2uP/DZy/wDx2vtOigD4s/4fS6P/ANG6/tcf+Gzl/wDjtH/D6XR/+jdf2uP/AA2cv/x2vtOigD4s/wCH0uj/APRuv7XH/hs5f/jtH/D6XR/+jdf2uP8Aw2cv/wAdr7TooA+LP+H0uj/9G6/tcf8Ahs5f/jtH/D6XR/8Ao3X9rj/w2cv/AMdr7TooA/Mb/goT/wAFHH/aw/YZ+LXw38N/s8ftSxeIPG3hPUNJ06TUvh3LbWq3EltJ5fmyeZ8n5V+hHwLsZtM+C3hC1uInguLXRLOK4R/9ZFILeMEfXrXW0UASUUUUAFFFFABRRRQAn8H4V8V/se/8pn/2yP8AsEeB/wD03XNfan8H4V8V/se/8pn/ANsj/sEeB/8A03XNAH2rRRRQAUUUUAFFFFABRRRQAV8U/spf8ptv2tf+xX8Ef+k99X2tXxT+yl/ym2/a1/7FfwR/6T31AH2tRRRQAUUUUAV7yHzotlfnt8a/2avAPgb/AIKyfszeA9G8F+FrHwbqHgjx5HeaPHpUX2G983+zfM8+PGJPMz+88zPme9fojXxT+05/ynF/ZZ/7Efxp/wC42gD6q+HHw40n4VeCtL8N6Bp9vpmg6BBHY6fZwLiKxto/9VDGMfJHGMIiD7iAfQc1Z/ss/D/TP2gZvitaeD9D0/4iXGnSabc63aQ/Zrq+t5DH+6uDHgXAHlR483eUx8mN5r1GigCOCpKKKACiiigAooooAKKKKACiiigAooooAKKKKACiiigAr45/4LM/8iH+z5/2cH8P/wD08xV9jV8c/wDBZn/kQ/2fP+zg/h//AOnmKgD7GooooAKKKKACiiigAooooAKKKKACiiigAooooAKKKKACiiigAooooAKKKKACiiigAooooAKKKKACiiigAooooAKKKKACiiigAooooAT+D8K+K/2Pf+Uz/wC2R/2CPA//AKbrmvtT+D8K+K/2Pf8AlM/+2R/2CPA//puuaAPtWiiigAooooAKKKKACiiigAr4p/ZS/wCU237Wv/Yr+CP/AEnvq+1q+Kf2Uv8AlNt+1r/2K/gj/wBJ76gD7Woor43/AOCxXxF8beCvhN8KNM8CeNtb+H9/48+Keg+E73WtJS3kvbW0vPtAk8vz45I88R9u1AH2RRXxb/w7G+MP/R6/7QX/AIAaD/8AIFH/AA7G+MP/AEev+0F/4AaD/wDIFAH2lXxT+05/ynF/ZZ/7Efxp/wC42pP+HY3xh/6PX/aC/wDADQf/AJArkte/4Is+MvFPxc8PeOL/APa8+O9z4v8ACdnd2Gj6m1no3m2Fvd+X9ojH+if8tPLi6/8APMUAff8ARXxb/wAOxvjD/wBHr/tBf+AGg/8AyBR/w7G+MP8A0ev+0F/4AaD/APIFAH2lRXxb/wAOxvjD/wBHr/tBf+AGg/8AyBXn/h/wn8Wv2Pv+CnP7P/g3V/2hviV8UvC3xPsPEsuqab4jtdOjjieyso5IjH9nt45P9ZJQB+iVFFFABRRRQAUUUUAFFFFABRRRQAUUUUAFFFFABXxz/wAFmf8AkQ/2fP8As4P4f/8Ap5ir7Gr45/4LM/8AIh/s+f8AZwfw/wD/AE8xUAfY1FFFABRRRQAUUUUAFFFFABRRRQAUUUUAFFFFABRRRQAUUUUAFFFFABRRRQAUUUUAFFFFABRRRQAUUUUAFFFFABRRRQAUUUUAFFFFACfwfhXxX+x7/wApn/2yP+wR4H/9N1zX2p/B+FfFf7Hv/KZ/9sj/ALBHgf8A9N1zQB9q0UUUAFFFFABRRRQAUUUUAFfFP7KX/Kbb9rX/ALFfwR/6T31fa1fFP7KX/Kbb9rX/ALFfwR/6T31AH2tXxl/wWb/5Fv8AZv8A+y+eE/8A0Zc19m18Zf8ABZv/AJFv9m//ALL54T/9GXNAH1h4x8a6P8PfD1xqut6rp+i6ZZDNxe39zHbW0X+/JIcCq/gD4neHvinof9peGtf0XxHY7/L+06ZeR3tuH/34yRXy9/wXOtpb3/gmn4ziTQrTxLJJrXhvZo95JHFa6x/xP9N/0aSST92kcv8Aq/3n9+vm7Svhf8Rv2PNB8a/GXS/hP8KP2R/+EosPD3w8g8O+Gb+21XTbW4vdeitpPEeoR29vb2XmWUd4fLj/AHn/AC18yTy6AP1T8+jz6/PTxH4y+Nv7Pviv4q/CWP4xar8S/EOn/DI/ETQ9f1HR9Pg1fR7m3vDF9iljto44pLe5EX7v935n+tqn47/b/wDH2tan408S6D4jiXwH8VNL/wCEc+FGyyi8y31y3ktra4kST/lpJLcXlx5ccn/QJkoA/Rfz6PNSvyz/AGvv2tP2hNU/ak+JfhL4dj47mL4SxafZaYngnwl4b1bT9XvZLKK4Fzq0l/cR3HlSSP5fl2yRfu45CJOcj2201P4y/tR/tY32h2Pxb1X4UeHtI8BeFPE99ouk6Rp2oXUt5ey6mbmIXE8Un7vFukcnHaPy/L5MgB9x18X/ALYP/KY/9jf/ALB/jj/0221fZkFfGf7YP/KY/wDY3/7B/jj/ANNttQB9oUUUUAFFFFABRRRQAUUUUAFFFFABRRRQAUUUUAFfHP8AwWZ/5EP9nz/s4P4f/wDp5ir7Gr45/wCCzP8AyIf7Pn/Zwfw//wDTzFQB9jUUUUAFFFcN8efjR4d/Zx+DXijx94suZbHwx4P0+XVdSnjgeR4oIxvkIQcvx6etAHc0V8S2/wDwXi+Ct1awSxeH/jtcxXCeZHJF8KddIkT2P2erH/D9n4Mf9Cv8eP8Aw1Gu/wDyNQB9pUV8W/8AD9n4Mf8AQr/Hj/w1Gu//ACNR/wAP2fgx/wBCv8eP/DUa7/8AI1AH2lRXxb/w/Z+DH/Qr/Hj/AMNRrv8A8jUf8P2fgx/0K/x4/wDDUa7/API1AH2lRXxb/wAP2fgx/wBCv8eP/DUa7/8AI1H/AA/Z+DH/AEK/x4/8NRrv/wAjUAfaVFfD2uf8F8fgP4X0r7dq+nfGbRNPSSOOW/1L4a6zbW1oXk8seZI9vsT86+2LS4E0aOn3JE30AWaKKKACivFf24/2xdJ/YZ+BMnj3WfD/AIg8TW51LT9Gt9M0KKKS+vrm8uY7a3jj8ySMf6yT1rxT/h7Z43/6M1/an/8ABJp3/wAmUAfatFfFX/D2zxv/ANGa/tT/APgk07/5Mo/4e2eN/wDozX9qf/wSad/8mUAfatFfFX/D2zxv/wBGa/tT/wDgk07/AOTKP+Htnjf/AKM1/an/APBJp3/yZQB9q0V8Vf8AD2zxv/0Zr+1P/wCCTTv/AJMo/wCHtnjf/ozX9qf/AMEmnf8AyZQB9q0V8Vf8PbPG/wD0Zr+1P/4JNO/+TKP+Htnjf/ozX9qf/wAEmnf/ACZQB9q0V8Vf8PbPG/8A0Zr+1P8A+CTTv/kyj/h7Z43/AOjNf2p//BJp3/yZQB9q0V8Vf8PbPG//AEZr+1P/AOCTTv8A5Mr1f9hj9unS/wBufwr4vvbPwh4w8Daj4E8QSeGdY0fxNbxxX1reRxxyEYjkkGMSJQB79RRRQAUUV8q/8FLf2tfiZ+zVqPwg8O/CnRPBWs+LPiz4v/4RiD/hKZ7iOxtf9CubnzD9n/ef8u9AH1VRXxN/wkv/AAUJ/wChS/ZK/wDBxrv/AMbo/wCEl/4KE/8AQpfslf8Ag413/wCN0AfbNFfE3/CS/wDBQn/oUv2Sv/Bxrv8A8bo/4SX/AIKE/wDQpfslf+DjXf8A43QB9sfwfhXxX+x7/wApn/2yP+wR4H/9N1zTP+Em/wCChX/Qq/smf+DjXf8A43XlXw2/Z1/bn+GX7S/xJ+Kdhof7MVxr3xRttKt9Tt5db1kWtqNOilii+z/6P5n7zzP3nmelAH6W0V8Tf8JL/wAFCf8AoUv2Sv8Awca7/wDG6P8AhJf+ChP/AEKX7JX/AIONd/8AjdAH2zRXxN/wkv8AwUJ/6FL9kr/wca7/APG6P+El/wCChP8A0KX7JX/g413/AON0AfbNFfF37Jv7W/x71T9vHUvgp8cPDPwq06eLwJ/wmun33g28vbjKfbvsXlyfaPfzK+0aACiiigAr4p/ZS/5Tbfta/wDYr+CP/Se+r7Wr4p/ZS/5Tbfta/wDYr+CP/Se+oA+1q+Mv+Czf/It/s3/9l88J/wDoy5r7Nr4y/wCCzf8AyLf7N/8A2Xzwn/6MuaAPp/4s/Cjw/wDGzwXJoHinSrXW9Hlura8e1uBmPz7e4iubeTtzHLHG/wD2zFXPHHgHQ/in4L1Lw54j0rT9e0LW7SSyv9Ov4Bc217BIMSRyRvw6EH9a2ZrxLOF3d/Lji++71BoviGy8SWvnafeWl5B/fhkEn8qAPMf2Zv2JPhP+xr4R1HRvhh4B8PeC9P1eX7RfpptvzeyYx+8c5kfj1q1o37IHwx8NeAPA/hay8F6Fb+H/AIZajHq3hixSD93oV5GJfLuIPST9/J/38NeoefTt9AHhf7TX/BOD4GftgeLNL174nfCvwh411nRyEtL7ULDzLgIM/u3f/lpH/wBM5Mpz0r0fwx8HvDXg3xfea9pmkWNhqV9pdno1xPCmxjZ2ZlNtb+nlx/aJ8f8AXSur8+sLQPG2k+K73U4tM1LT9Rn0W8+wX8drcpLJYXHliQRyD+CTZInyf9NKAOhr4v8A2wf+Ux/7G/8A2D/HH/pttq+zPNSvjP8AbE/5THfsb/8AYO8cf+m22oA+0KKKKACiiigAooooAKKKKACiiigAooooAKKKKACvjn/gsz/yIf7Pn/Zwfw//APTzFX2NXxz/AMFmf+RD/Z8/7OD+H/8A6eYqAPsaiiigAr5e/wCC0/8AyiS/aN/7EDWP/SaSvqGvl7/gtP8A8okv2jf+xA1j/wBJpKAPa/2dP+TfPAf/AGLmn/8ApNHXbVxP7O3/ACbz4E/7FzT/AP0mjrxD9uH/AIKUQfsHG7vNa+DXxw8beHtM0R/EGp+IfCGiWd7pOlRIZPMjuJLi8t3EkYi8w/u8eW8fPPAB9S0V86fs5/t46V8a/DOv6p4n8C/EH4JWuiItxKPiRb6for3MB4NxGI7uT91GdiGRtnMkfWvRvh98fNO8f33jEfYNQ0Sy8D6r/Zlxf6lJbx2t8Ps1vdfaIHSWT9x5dxHzJs69KAPRaK5TwL8VPDPxPgabw14h0LXoI40laTTb6O5jVJM7DmMnrs4qt4H+NPhL4j3Rg8PeJvDuv3CLI7Jp2pQXMg8t9jnEZ9fpQB2lFcpofxY8LeJ7jV00zxPoOoy6BL5Wpx2uoxy/2bJgnE+w/u+h+/6Uzwx8T/D3ivVJrHSPEOiateWtvBezQWl9HcSxQS58uTZGT8jgfIe+eKAPmf8A4L6/8ojfjF/17ad/6dbKvrjR/wDkF2//AFwj/lXyL/wX3/5RGfGD/rhpf/p2sq+utH/5Bdv/ANcI/wCVAF6iiigD4s/4Lrf8me+FP+yreCv/AE/WVfZ//LWvjD/gut/yZ74U/wCyreCv/T9ZV9n0AFHn18Sf8FctL+NHwq+DHiv4rfDj4/8AijwBbeG9Ps4k8O2vhjRdTtpZZLyOJ5TJd27yA4k7Pj5K6CwX4lfswfGP4L+FfF3xq8Z/E1/iH4s1C2lnudE0PTkMEWjXtyLeT7PZp+7324f935cnmf8ALTy/3dAH1/RX5+Rf8FlvGlxa6Zr3/DLvxP1DwBrPiS68Iafr+ma9o1xLqerx6jPZwRQWclxFL9nlliP+kSeWI/Qj95XdeFf+CqjeFfg18Tte+MXw01/4V+LvhbeWFteeGpNc07Vv7S/tOTytKNvdxyR22biQ+XiSSMREZkfy/wB5QB9k1H59fJn7BH/BSdf2yvHmu+Fdd8HWvgXxjoNoNVj0+w8ZaV4otrzT3k8uOX7Rp8sgjfzBiSOQIRmPBkB48u/4Ki/tReK/g3+1b8OvC1l8ZfiD8I/DGr+E9U1S9k8I/DyPxhdahdxXllHH5kf2O8kgj8uSX94B7UAfoJ59SV8B/Ab/AIKK+LPCf/BNbxB8TtZ1XQfit4h8Ka/eaV5uqanp/gW4ltI7n/R31T7YYrawvPsxjkkjx/y0T93k+WJPhT/wXK8K/Ev9izxN8Vo/CE39r+ENet/Cl5otj4q0q+sv7QuDF9nH9ri4Fl9nxcR+ZcSSRiP95xxyAffFFfFHiD/gqxrHwu/ZT0/xv8Qfg9qXhfxn4g1b+wtB8L/8Jpod1Za7J9m+0/aotX+0JZpZ+WJN8kuwjyz+7r0v9gn9t+z/AG6fAmtXM/h6Pwr4o8JahHp+v6LF4gsNetrWWSCO4jkt7+wkkt7iN45Rz8j5EiPGMDIB9GV8U/8ABIj/AJLD+2N/2XPVP/SKyr7Sr4t/4JEf8lh/bG/7Lnqn/pFZUAfa1FFFABXxb/wVC/5O0/Yp/wCyuS/+mHUq+0q+Lf8AgqF/ydp+xT/2VyX/ANMOpUAfaVFeaftR/tD6V+yl8Cte+IWu2uqX+j+HI45LqDTo45LmTzJEjHliSSOM8yDuKd8W/wBoHTvgz4l+H+larp+r3Fx8RNf/AOEcsZLVIvLtbj7LcXO+bfICI/Lt5Pubzx0oA9Jormf+FneH28ef8Iv/AG/on/CRpb/an0kX8f27yv8Anp9nz5mz3rP8T/Gjwx4bk+zTa5pcmoSSzW1vpseoQfbb24jj8x7eKN3G+QR/P5fUDBNAHbUV41p/7cPw5t/BnhrVvE3ibw98PLjxPpsWr22j+Kdb0+x1GO3lGfnT7QY+OOUkcV2niD4v+FfC9vpEup+J/D9jD4gk8nTHutTjj/tOQ42CDn95ng/J60AdjRXJeMvix4a+H8Nw2u+ItB0aK3g+0znUL+O3EcW/y/McvjEfmfJnpzXn/wAaP24fhx+z38RPAPhzxb4l0bR3+Ii3cml313qdna2MUVvB5rySSSyodrg7I/LD5OOlAHttFcVP8dPBkHjW08Mt4x8MJ4lvo/Ms9JbV7cX12n/PSODf5jj8KxfA3x8Xxp+0f4/+H402W3fwNp2j37XpuMi9/tD7V8gTqnl/Z/X/AJaCgDwC0/5WC7z/ALN/T/1Iq+zq+MbX/lYFuP8As3+P/wBSKvs6gAooooAK+Kf2Uv8AlNt+1r/2K/gj/wBJ76vtavin9lL/AJTbfta/9iv4I/8ASe+oA+1q+Mv+Czf/ACLf7N//AGXzwn/6Mua+za+Mv+Czf/It/s3/APZfPCf/AKMuaAO3/wCCkH7NmtftSfBzR/DmkL4Z1N7TxDBqt54b8SX9xZaR4vtohJ5mn3MluHk8s7xJ/q5Y/wB3+8jI6fLWhavov7EXw9/aG07wn8BNA/Zu+MOifDG88YWU/hXULbVdC1e3to5UiuY02Rx+ZHcDn7TZJnP/AC0Ga+6f2kP2Tvh5+2L4EPhX4keE7DxToMM4u4re4d4Zbacf8tYpIykkb8v88cgrl/2dv+CdXwW/ZO8E6/4f8B/D7R9J07xbAbXWhdvLqFzrMBBTyrie6eSeeP8AeP8AJJIR+8I70Ac944+PPiPTP2xfhF4WtNcB0PxP4J1vWdTtEht5BdT24svs1x5mzzE/1sv+r/d/kK+c/wBnr41ftF+HvCv7PHxW8cfGrSPGmg/FzU9P8O33gqPwZaaeqfbIpPLvbe7iP2j7RFs8yTP+jmPzf3ceAa+kP2ff+CVfwD/ZL8UReIPht8ObDwv4itrS6s7fUY9QvZ5hb3Bi8yLzJJZD5f7uPZH0jA/dhOa47/gnv/wSA+F37G2m+EvFc3gjw1/wuHTNGjstS1yyu7u9tornYI7iSzjuD5duZf8AlpJHHG8nOaAPF9M+Pv7Rfh34d3PxwvvjLpupeE9E+KWseEY/h/J4Ls4hrFhH4vudGii+3xnzftEcSJ5RjGP3X7zzPnkrtb74s+If2eZPjN8QdL1HyPDXhH42R3PjSDyEl+1aHJpOm21xJ/q/Mj+zeZHcfu/+faWuo/ZM/wCCQHwx+D/xLuPiP4x8E+HNZ+LD+MfEfiO31uK9vLi3jjv9avb2zl+zyYt/tkVvcRReZ5fmJ5Z2SY5r1z49/s1tqvwA+L/h74e6doll4k+K8N39suNbllksJby5tY7KS4ljIk4FvGP3ax+XIY+eHOQCH9j74ueIv2gJPiL40n1QXfgm/wDEMuleCLeCOLyjYWY+zyXokXDyfaLkXDjP/LOOLZ1ryv8AbC/5THfsaf8AYO8cf+m62r6h+B/wj0P4BfCHwv4J8M2v2LQfCWl2+kafB/zzt7eMRp+gr5f/AGwf+Ux/7G//AGD/ABx/6bbagD7QooooAKKKKACiiigAooooAKKKKACiiigAooooAK+Of+CzP/Ih/s+f9nB/D/8A9PMVfY1fHP8AwWZ/5EP9nz/s4P4f/wDp5ioA+xqKj85P7yUnnJ/fT/vugCWvl7/gtP8A8okv2jf+xA1j/wBJpK7b9t/9q2z/AGI/2eNW+JWpeH9c8Q+G/DMkcmux6MiS31hYSSbJL1InP7xYuJJBkfuxI+fkr5n/AG4f28PhP+3f/wAEWv2ifEPwo8d6D4wtF+HmqPdwWtwPt2m+ZayHy7i3/wBZAcf89B69qAPs39nb/k3nwJ/2Lmn/APpNHXkf/BWrwtqvjH/gmN8edH0PS9S1rVtU8D6pbWdhY20lzc3ckltIBHHHH+8eT2/+vXrn7O3/ACbz4E/7FzT/AP0mjrtqAPjj42/sk+E/2kf27vhsfiN8NtN8ceGtF+HWqCCPXdH/ALR0m2vZL2xH7xHjNv5nlCQ7JOg/1fSvD/jZ8E9TsfDXxoXVvhp4s8U/DSD9oHS9a8QeGNJ0iSU+I/Dlv4d0mL/R7PH/ABMLeO9jg8yOPf5n2aSPH7vy6/TPz64j45fBjS/2gvhvqXhTWL7xHpthqfl+ZcaFrVxpN9FskEg8u4t5I5U6etAH5neH/h/4e8feBf2sdN+CvwR8T+A/Dl7p/gx7jwhYeFB4T1LxJp8ctzJqEcFmPKkjlubbzI/3nlySVN4Y8E+HPih8bPitpP7M3wc1H4Ea34j+AusWOlyz+BB4Flv9TkvY47aVI/Lik/dn/lo/qK+8vhF+wv4C+C3wc8T+DPDqeJoIfG5mfXNan8R6hdeINUkkj8oyyam8n2nzAnEb+b+7/wCWeKf+zF+wz4A/ZK1HXNS8Np4k1LXfE6wRaprniPxBea9qd3Bb+Z5Vv9ou5JJPLj8yXCZH+tf8AD8zv2GP2aNT8L/FDULnRtG1nQJ9J8Da3puqaTpn7M3/AArxL8SWflx295fi7lj1CTzY45I/L+0fvO/7yvv7/glb+yH4D/Zm/ZD+HU3h74baD4H8Vat4L0ePxHcQaJHZatfXEdnH5gvJMCeSQSvIf3hJHNfUHn1JQB8b/wDBff8A5RGfGD/rhpf/AKdrKvrrR/8AkF2//XCP+VfI/wDwX1/5RG/GL/r207/062VfW+jzp/Zlr86f6iP+P2oAv0VF5yf30/77ryf9r39o1P2Tf2e/E3xGn8Par4q0vwjbf2hq9lpQj+3Q2KZNxcIjn5/KjEkmzIykb80AeF/8F2f+TO/Cv/ZU/BX/AKf7KvtD+P8ACvy+/b5/4KK/Bj/goR+wV4X1r4T+OdG8TfZvid4Hlu7AyeXqOmh9fs8efbv+8j/LHvX6g/x/hQB5F+2r+zW/7Xv7Mnif4dRa2nhx/EkdvH/aUtmb37L5dxFcf6vzI9/+r/56CpfjP+z3cfFr4y/CLxf/AGwmnP8ACzXLzWntDZ+Z/af2jSb3TjH5m8eSB9s8zo/+rH1r1migD5e8Gf8ABP6fwd+z54B8Bf8ACYLcHwV4/wD+E3N8NHaMXw/tm51I2flef8n/AB8CPzDI/wDq9/l54qL9oH/gnJ4f/aQvfjBH4l1OGXT/AIt2egQx2b6Nb3P9j3OkSSywTyJceZb3kZkkjJjli8vEWw+Z5lfU1FAHyJ/wT1/4Jry/sR+LPEGsXmp/CfULrWLSOyj/AOEL+Eml+BvKjEnmfvJLd5JJ+e3meWP+eeRXQftX/shfFD4rftDeFviN8Lvi7ofww1rQtAvPDl2mpeCf+Ejj1C3uLi3uD/y+W/l/vLeOvpuigD4g8Uf8EovEPjP4XTz6h8XItT+MV743s/Hc/jK/8F2dzpst5Z2cljbxf2QZPL+zxW7/ACfvfN80CTzK1PBX/BPL4neDfB/xW2/HS2vPHPxU1Ow1G51q8+H9m9jb/Z7KKzktn0/zfLkt5RHn78cn/TRz+8r7LooA/PiL/ghlpOofs0at4T1vxP4N1DxPd+Lv+E0s7sfDTSx4V0+/+xx2RSPw7IZLbypIU/efvPNkkcyeakle7/8ABPj9huX9h/4ea1pc+p+AtQvNe1D7dK/g/wCHun+CtOj/AHYjjH2S08ze4/56SSSfhivpCigCOvi3/gkR/wAlh/bG/wCy56p/6RWVfaVfmD+w7/wUR+Bv7In7SH7XOgfE/wCKXg7wPreofGjVL62sdVv/ALPLNb/YrKMS/nG9AH6hUV8o/wDD879kD/o4j4Xf+DlKP+H537IH/RxHwu/8HKUAfV1fFn/BUf8A5Ow/Yo/7K7J/6YdSriv2yv8AgvP8D/AP7PviHX/hP8b/AIOeKfHfh+D+0rTQNS1nEfiGOI/vLOOSM/u55Y94icf8tPLz+7Jr5R8N/wDBd34Uf8FU/wBpj9jyy0K21jwR440P4nfadV0LVm82OKOXSr23zb3Y/dyjzZYk/wCWcn7z/V0Afop/wWG8Ear8Sv8Agm/8UNB0ex1vUdT1Oytre2t9Jhkkv3P2y3/1Aj/eeZ3/AArxvxv/AME5m+AP7R37P3iPQ/HP7RXxB+y+P9uoW3inxvqnibTNNt/7J1IG5e3nJjj/AHvlx/aO3m/9NK/QaigD8hrD4C28ut2Pg+0+Afiyx/att/inFrt58VP+EQl+zGz/ALf+0y6j/wAJB5f7y2k0rfb/AGfzP+Wnl+VX098Bf2MvCF18Vv2h/iHrfwy0m6+If/CdanLoHiLUtA8zU47f+ybKOP8As+eSPzI4v9bH/o5/eHf1r7booA/Hn4+eHvh5r3wt+AXw3+KP7PXiTVmtvhppEvifxnD8HbjxPq9nZRjCaBZ3H2OSS0k8zzfMf/l3jP7v95J5kfon7Qfgf4XWnxw1fWvid+zJ4z+LngnxX4F0TTPhjBa/D2TXz4dt4raUS6V9nePzNIuDJJHJvl8v/roPKxX6hUUAfnH8Av2AE+JPxb+CWk/tB/D7SviXqPgn4C6fpOo3PibSE1nTYtY+0xCWMyTxyW8txiPl/wDWEfP/AMta801n9nrwv4F+AP7Lut/E74Cap8RfCfgDU/FGg6lpMvw//wCEkvdH06SW9j0uP7HJbvcfZv3dv5f7v/nlX6z0UAfiZ/wUR+B2o/F740/FHWD8NfHVh440KS3u/Ai+D/gbpdzFf6fa29vJZ3lx4gktJL2OTMfl+Xb3NvLH5Xlxx8V+lHwS8O6nbf8ABQb446tdadqNvp2p+H/CkVnfPbyR215JF/aXmiOT/VyeX5kf/fyvouigD4xtP+Vgu8/7N/T/ANSKvs6vzW/ae+MXxJ+Ef/BdZbv4dfCK5+LOp3PwMihubODxJa6L9lj/ALfkPmeZccf88/3f/TSvV/8Ahu/9q3/oyTVf/Dp6N/8AEUAfaVFfFv8Aw3f+1b/0ZJqv/h09G/8AiKP+G7/2rf8AoyTVf/Dp6N/8RQB9pV8U/spf8ptv2tf+xX8Ef+k99Un/AA3f+1b/ANGSar/4dPRv/iKyv+Cdvgv4ya9/wUB+P/xW+KHwiufhNYePdE8N2OmWk/iOz1fzZLKO5jl/eW//AF0joA+56+Mv+Czf/It/s3/9l88J/wDoy5r7Nr5B/wCCvHwk+IPxa+E/wvvfhr4Q/wCE68QfD/4n6H4vk0X+04tMe6gs/tHmfv5P3Y6igD6+or4u/wCG6/2rf+jJNU/8Ono3/wAbo/4br/at/wCjJNU/8Ono3/xugD7Ror4u/wCG6/2rf+jJNU/8Ono3/wAbpP8Ahuj9qz/oyXV//DqaNQB9pUV+fHwP/wCCsHx+/aK8FXHiHwX+xxq2s6Ta6neaPJOfiXpUX+kWlxJb3CfPGPuSxyJXbf8ADdf7Vv8A0ZJqn/h09G/+N0AfaNfF/wC2D/ymP/Y3/wCwf44/9NttSf8ADdf7Vv8A0ZJqn/h09G/+N1xPhuz+P/7UP/BSf4D+PfG/7P8Ac/CXwr8LrPxHFf31x400/WPtb6hZRRRxpHb8/wCsjFAH6D0UUUAFFFFABRRRQAUUUUAFFFFABRRRQAUUUUAFea/tJfsweBv2tvhdL4P+Ifhyy8UaDLcR3gtbhnTy7iPPlypJGRIkkfZxXpVFAHxt/wAOA/2Tf+iVv/4VGs//ACZTP+HAH7Jv/RK3/wDCo1n/AOTK+zKKAPzM/bp/4N8vhL4n/Zs1zw/8FvhlounfEHxGY9NstY1jxNq32HQo5D+/vZI/tEnmGOLzPLj8v/WSR18+eN/+Dcz4S/8ABMz/AIJc/HnxvNqniDx98Urb4b6ug1m6uDZ2NiTbP5iW9pHxsP8A08GXp/yz7fttXy9/wWn/AOUSX7Rv/Ygax/6TSUAe1/s7f8m8+BP+xc0//wBJo684/bW/aP8AEnwN0XwfovgTw5aeK/iP8QtbGg+GrC/vBbadDJ5UlxcXl5IPn+zW9tFJIRH88mAgwZM16P8As7f8m8+BP+xc0/8A9Jo680/bc/Z08U/G7RPB+v8Aw88Q6f4Y+JHw012PXvDl1q1tJc6bdEpJb3FleIh8z7PcW0ksZkj/AHkeRIOmCAcC3xG/aj+B/wAIviJ4k+LF/wDAC4s9D8M3eq6VqnhfR9ZT7DeRx5QXFncXH7+Lj/lncxyV0fxO/wCCkPhH4QfEHSfBV74e+JXjLxzd6Xpmqyaf4N8IXmq4trySSL7VJ5XmC3t45Iv3hkk4DJjfXO6r8Ov2oP2g/gd8SvCPxI074GeHLbxF4Tv9J0eHw3rGqajJLeyxGOOS4nnt4/Lt/Xy4pJOa9N+EnwG1/wAB/tK+IPFl5Npsmk6n4Q0PQoI4J38wXFlLemT+Afuz9ojoA5bwz/wU68BeNP2ipfh5oWg/FHWIoNUn0OTxhZ+DdQuPCEWoRS+XJZnU0j8sSJJmM/8ALPzP3fmZrp9M/bq8Eav8K/hX40jj1v8Asj4xatZ6N4fLWeJBcXMckkXnpv8A3f8AqpM+mBXmP7M/wK/aF/Zn8bp4H05/hHqvwWg8Q6jqlvqt3NqEfieKzvL24vfsZt44/szyRyTvH9oMvTD+V2ry/wCH37B/7SGjp8EfAGrX3wZm+GXwM8b2et2l9bXmojXNcsLf7TFF5kf2f7PbzxxTx/u/Mk8zB/eR0AXPj9/wVg8Vfs+6RoeoL4Q1r4jpf/GbVvAl3D4L8FXl7d22n2Ud1+5SP7X8+oeZHH+8/wBXJGk2Ihivtv4XeP4/ib8OdG8RJpWv6EmrWcd4mna3YPZalZbx/q7iDrHIO6etfIXjL9g34p6b8N7u78K3fgWbxnofxu1D4q6Ba6reXKabfQXBuIxb3EkcXmQSGK5kyY45MSAepNfYPw8m8RS+BtKbxVbaRZeJHtI/7Sg0q6kurKO4x+8EEkkccjx5xjMaUAfK3/BwLYx6n/wSB+M0E8fmR3Fnp6Onqn9q2dM07/ggT+ybNYW7N8K3+5HJ/wAjRrP/AMmVZ/4L8f8AKI34x/8AXDS//TrZV9d6P/yC7f8A64R/yoA+Qf8AhwB+yb/0St//AAqNZ/8AkyvLf2vP+CA/wYvv2ePFGnfB74V6bF8RNUsv7N0e71fxXqws9Glk/dfbZB9ok8z7NHIZPL8uTzPKjjr9HqKAPwJ+In/BuZ8PP+CW/wCzx4I+IF94l1rx98VYPiN4PszqbgWWl6YkutWvmR29vn5zxs8yWSTORiOPmv31/j/Cvi3/AILrf8me+FP+yreCv/T9ZV9pfx/hQB5l+0/+014b/ZN+F8vi7xR/ak1nHcwWNpY6XZvealq95cP5VvZ2lvHzPcSScCMfy5rzT4Jftm/Erxx8SbHR/GH7NPxV+Hmla7IBYa3d6ro2q2sf7vf/AKZHaXkktp+KHnvVv/gof8KvGPxE+HngvXvh9o1l4o8WfDDxnYeMrTw7c3cdj/bqQR3FvLbJPJ+7ilMVy5jkl/diSOPNfMPw38TfFD9pr/gpT4O8deH/AAZ+2f8ADrQdLvjb+MtB8d32nad4Dis0065jQ2lnHcySXNwbr7P+8i3j/lpQB9xWH7U3w31r4w3Pw8tPiD4HvPHtjG8k/hmDX7aXV4k777TzPM49xVCX9sv4RS/Eqy8GL8Ufh1/wmOp3kllZ6G3iSzXUbm4ik2SRx25k8x5EkQgoBnr6V+Vn7J37F/xi+G37VHw68E+MNN+NV7N4R8YR+IrzVrL4YeDovDV15d55kl5/wkaSR6i/mRSfvOPtMnmSx+XX0p4i/Yl839kf4m6lD8LrYfEbU/jOfE9ndx6HH/a90kfie2ljvI5PL8z/AI9o8+Z/zzFAH2h4y/ao+Gnw0+Jmj+CPEPxC8D6H4y1zYNN0TUtftrbU7/f08i3kfzZPwFR+N/2qPhj8NPG1t4e8QfEfwHofiO5voNNg0rUvEVna301xc/8AHvAkTyB/Mlx+7TGX7V+Vf7bX7H3xgj/a8+KOmyab8Z9a0H4u+JP7RsL3wb8MfBviOxlsjb20cUdxqepyx3lhJb+V5Y8z93F5cckdfdXwc/ZkC/trfG3xrrHgnTbrWprDw3b+G9e1nTI5ZJpLfT5N/l3H/TO4/wBZ5dAHr3w8/bN+EPxb8Z6n4a8LfFT4deJdf0ZJJL/StI8TWd7fWSRnEhkiicyRiPnk9K4f9jz/AIKb/B/9sT4b6p4i8O+PPBSSaHJqE2r2P/CSWVxcaXZ215LbC8nEcv7q3kEYkjkfA8uSM96+B/2TvgJ8U/En7Y/wa8ceLPA/7S9n408LeIpLfx5da/aeH9K8D2slxpN7Hcf2Xb6ePtNxb/aCI47iT935Z/eSeZJXZ+CfgZ4mg/Zc8Z/COP8AZy8UnW/APjiTxLqgn0zT7LQ/ifo48T3Oox6dZ3nm4uP9CkjHl3Ajj/d+XQB+gfgj9r34WfEL4V6t468O/ErwFr/gjQI5H1XxBpuv2d1pumCNPMkM9xHIY02JjOTwOtbXwz+PXgz403Wrw+D/ABf4Y8Vv4du/sOqJo2rQXx0u5/553HlufLk6/Iea/OX4h/CXxV+0v8E/2svHPgn4C+NvhDpPjT4M3Hg6w8L6xo9vp+ueL9XSO/kFx9gtJJP9XHcR28byfvJPMx0jr9IfhT8JfDXwi8LwaX4W8OaJ4Y08Ige10yxjs4/uekdAHW18J/8ABKnwFofin4z/ALYs2oaRpOoTj436pHvurOOV/wDjyse9fdlfFv8AwSI/5LD+2N/2XPVP/SKyoA+rv+FSeEv+hT8Of+CyL/4ij/hUnhL/AKFPw5/4LIv/AIiuoooA+fv2yP2LdK/aZ/Z18Q/D7R7vT/Aa+L4v7O1PWdM0W3kvorCTi5jg38RySR/u/M/5Z+YZMZFfEvj7/gl78Ff+CZ3x3/Yv0z4U+EYdNv7/AOKhtdR128k+0avqYGg6l/x8XGPUZ8uPy4v+mdfq3Xxb/wAFQv8Ak7D9ij/srkn/AKYdSoA+0qxPFXijT/A3hq/1fVbqKx0rSLeS7vLuZ8R20EaeZJI/0ANbX8H4V8n/APBVk+MPHv7Odj8Lvh9pVlq/iv4savHoRg1KS5g0yPT483Wofa54o5PIjktoJLfpk/aRs5oA9S/ZM/a38K/tefAyHx/4dj1nStMllnt7i012z/s6+0ySL/WJcRn/AFZ/j6/xivRP+Ev0j/TP+Jpp3/Eu/wCPv/SY/wDRf+un9yvzi1HTfjT8NNL/AGpvDXxR8I+EdNj+NPw21jxNoNv4EvNQ1rTItQs9O+w3kcklxaRbLi4jksZI48fvPJk6nirOlf8ABJb4C6d8dP2etMh+DGijQ9T8G6nN4jga2na31ieJNOlthqZ3+XeSJJJLsF75nX2BoA/Rn/hIbA21vN9rtPIuzmB/PGJuN/yetcB8dv2ltJ+Bvgzwzrogk12z8UeKNH8M2z2MqECTUb2OzSXPTZGZcn/Jr82vGPgf4dfC/wDZ0+D3h74n+EdVuPhL4U/aD8b6dH4ej0PUNS+zaRF/wkn2KOOyt45LiSzj/dfu/Lkj8v8A6Z10XhH4b6ZL8Jr/AFT4VeAtf8JfBbXvjv4D1HwZo76JcaVEY4tS07+0NRt7CTElnZyyR/8ALSKP/VyyeX+8oA+1fjV+3rovwY+GvifW7jwv4xnvtD8TR+ENM0m4to9Om8T6jJ5XlGykuJI4nt38w/6RJIkf7qTnjnp/2dP2h7/43xTwax4E8VeBNZ02xsLu9tdSNvc2ublHkEdveW8klvcGPy/3hiPHmR18F/Gr9mzTPjTbeM9K8WeBrbxRpt1+1rpd7Ja6joxubWWzkstNiuZP3if6ox+ZHJJ/q+DXRftSfAXxdpvhz9qzwl8JPDs2kQxaJ4I03T9M0nSpBFNpFtHILyzt47eW3kkH2LzIxHbyxyciOPmgD9E7Txbpd/pdxewajps9hb5E88dxGYosff3vnAq1ZavaanJcQwXFvcPav5U6I+8xP6PX4sfDD4fRat+yH+19J4Hj8MrpGofBzWNMuNB8BfBnxD4G0ifUI7aU28kkepnFxeeXJJH/AKPHv8v/AFh/1dfrL+zf+yz8Ov2WPDNxYfD/AMF6L4Sg1iVLrUzYW373U5/Lx5txL/rJ5P8AppJzzQB4Lbf8rBN3/wBkAj/9SKvs2vjG0/5WC7z/ALN/T/1Iq+zqACiiigAqPyKkooAKjqSigAooooAKKK+ev+CiH7Z1x/wT/wDgJL8VLrwdq3i/wf4cvrdfFUWlSp/aWmafJL5ZvYIpOJ/Kk8rzIyY/3cpk8wCI5APMP+CEH/Jj2uf9lM8af+n69r7Ur8hf+DeX/gpxon7QE138Gfh54Z8Q62LLX/E/jLxP4jvY1stO0awvNWuJdPjjHMlxcS+bGNh8vyx5n3/KNfr1QAVHUlFABRRRQAUUUUAFFFFABRRRQAUUUUAFFFFABRRRQAUUUUAFFFFABXy9/wAFp/8AlEl+0b/2IGsf+k0lfUNeA/8ABTL4Na/+0D/wTz+M/gXwpZfb/E3ivwfqOlaZamURfap5beRETe/H+fegD0j9nb/k3nwJ/wBi5p//AKTR121fBnw0/ba/aZ8C/DjQNEk/Yk8bXL6Np9vp8kn/AAsDQv3nlxiP/np7Vu/8PC/2mv8Aox3xv/4cDQv/AI5QB9rUV8U/8PC/2mv+jHfG/wD4cDQv/jlH/Dwv9pr/AKMd8b/+HA0L/wCOUAfa1FfFP/Dwv9pr/ox3xv8A+HA0L/45R/w8L/aa/wCjHfG//hwNC/8AjlAH2tRXxT/w8L/aa/6Md8b/APhwNC/+OUf8PC/2mv8Aox3xv/4cDQv/AI5QBof8F9f+URvxi/69tO/9OtlX1xo//ILt/wDrhH/KvzN/4KBfFD9qD9ur9kXxd8KbT9j7xb4Wn8YfY4hqt1480a5isvLvbe48wxxyf9M6/TbTYWgsYEf/AFiJg0AWqKKKAPiz/gut/wAme+FP+yreCv8A0/WVfZ//AC1r5i/4Kufs1+Of2qP2V4PD/wAOYdAuPGGk+KtE8R2kGtXkllY3P9n6jFeeVJJHHJ18v0rjv+Fw/t5f9EN/Z4/8ORqH/wAr6APtKivi7/hcH7en/REP2df/AA4+o/8Ayvo/4XB+3p/0RD9nX/w4+o//ACvoA+0aK+Lv+Fwft6f9EQ/Z1/8ADj6j/wDK+j/hcH7en/REP2df/Dj6j/8AK+gD7Ror4u/4XB+3p/0RD9nX/wAOPqP/AMr6P+Fwft6f9EQ/Z1/8OPqP/wAr6APtGivi7/hcH7en/REP2df/AA4+o/8Ayvo/4XB+3p/0RD9nX/w4+o//ACvoA+0aK+Lv+Fwft6f9EQ/Z1/8ADj6j/wDK+j/hcH7en/REP2df/Dj6j/8AK+gD7Nnr4t/4JEf8lh/bG/7Lnqn/AKRWVS/8Lg/b0/6Ih+zr/wCHH1H/AOV9bX/BLP8AZw+JvwFsfjHrvxX07wtpPiT4qfEC88Xiw8P6pJqNtYRy29tF5fmSRx/8+9AH1vRRRQAV8W/8FQv+TtP2Kf8Asrkv/ph1KvtKvi3/AIKhf8nYfsUf9lck/wDTDqVAH2lRUfn0efQBJRUfn0efQBxXxE+Cmj/E3xv4I17Uftf274f6xJrWmeTIY4vtEllc2R8z+/8AuruWu1o8+jz6AJKKj8+jz6AJKKj8+jz6APjW0/5WC7z/ALN/T/1Iq+zq+MbH/lYFvP8AsgMf/qQV9nUAFFFFABRRRQAUUUUAR+alSV8+ftyax+0J4Z8O6XqPwET4KSGyhu7nXx8QpdUjzGiRmL7P9j+knmeZ/wBM8V87/ssf8FKPi54c+BfhH4o/tE2/woj8KfFbQ7PUvA+ifDDTNc1fxTqVxcRi4+zPZmOXzPLtiTJ5Y/dkHJoA/Quua+Jfw10f4v8Aw+1zwp4jsYtV0DxFYy6dqFpNzHc28qGOSP8AEfzrmf2df2lfCX7V3wvh8WeCtRkvNMknks7iOe0ksr6xuIj5cltcQShJLedJODHIMj8RXmvxt/4KifCb9nX4u33g/wAS6h4jF7orW39v6lY+HL+90bwx9px5Bv72OL7PZ+YCjjzXH3/xoA86/wCCLn/BKDRf+CSfwO8TeGILqy1zX/EviO8v73V4YyslxYxyyQ6dHJk/wW2yR0HCS3Moy/8ArD9tV8meF/8AgpRY337fni74LTeFPHtzBpSaPFpmt6b4R1G6sTJdxSySS3N2kZt47f8A1Xly/wCr4k54rl/2Df8Agrf4Q+Pfh7wF4e8TahrbeOvFElxp0mpx+F7y28PXOpxyS5so9Q8v7M9x5cefLjkP+rNAH23RXzhf/wDBTX4U6N8eF8Bte+JnvDrUXh2XXYPDOoSeGrbVJHEUenSap5X2NLjzHjj8vzf9ZII/9ZxWhoH/AAUJ+HnjX9ou9+Fukf8ACYa14r0bWJNG1Q2HhjULjTdCuI7cXA+2XccX2eBJI3/d+ZJ89AHv9FFFABRRRQAUUUUAFFFFABRRRQAUUUUAFFFFABRRRQAUUUUAFR1JRQAUUUUAFFFFABRRRQAUUUUAFFFFABRRRQBHUlFFABRRRQAUUUUAFFFFABRRRQAUUUUAFR1JRQAUUUUAFfOX7f8A+wteftq2vw/uNI+Ieu/DXxJ8MvEX/CR6RrGlWFveyJcfZpbfBjuAY8eXO/avo2igD4q/4dz/ALRX/R8fxU/8Izw9/wDI9H/Duf8AaK/6Pj+Kn/hGeHv/AJHr7VooA+Kv+Hc/7RX/AEfH8VP/AAjPD3/yPR/w7n/aK/6Pj+Kn/hGeHv8A5Hr7VooA+Kv+Hc/7RX/R8fxU/wDCM8Pf/I9H/Duf9or/AKPj+Kn/AIRnh7/5Hr7VooA+Kv8Ah3P+0V/0fH8VP/CM8Pf/ACPR/wAO5/2iv+j4/ip/4Rnh7/5Hr7VooA+Kv+Hc/wC0V/0fH8VP/CM8Pf8AyPR/w7n/AGiv+j4/ip/4Rnh7/wCR6+1aKAPkr9lH/gnP4l+AX7U2p/F3xz8bfFvxd8T33hT/AIRC3Os6Pp+nJa2f2z7VwLaOPP7z/wBGGvrWiigAooooAKKKKACiiigDB+IGizeIPAutafa7PtF9YXFtHvb+OSMgfzr4y8K/sn/GL4Cfs3fswX/g3SPCfiP4j/AvwfH4a1rwzq2rSWNjq8Ulja21x9nv0ik8uWOW3j8t5Ij5kfmZ61910UAfPX7DHwL8Y/Crw54+8Q/EP+w7Xxv8U/Fcni7VtN0WaS403Qz9js7KK2jkkWPzCLeyjMkvlp5kkknGMV4p8d/2X/j7Ya/8cfA/w90H4dax4B/aGvJb688R6zrc9lfeD3uNNttNvB9jjt5Pt/7u38yP97Fy/lycV94Uz5PagD5R+H/wK+J/7Nn7WtvP4V0Dw74w+Gnifw7oXh3VdTv9fksNX8Pf2XHcx+b9nFvJHeCSOX/npH+8z2rD8O/sXeOdN/ZP/Z08HzJpL618MfHWl69rf+l/u47S3kuTJ5cn/LST95HX2bRQB+W13/wSW8feHPjpc6XD4Yl8a+CdR8YyeJo9cuvjb4g0iysLeTUBe+Xc+H445Le4ljk3/wCrkjjk8uP/AFXNfb/7K/we1z4T658Vp9cFpjxf49vfEOmGCYyf6HLbW0ce/wDuSfupP0r2nj2pvye1AD6KKKACiiigAooooAKKKKACiiigAooooAKKKKACiiigAooooAKKKKACiiigAooooAKKKKACiiigAooooAKKKKACiiigAooooAKKKKACiiigAooooAKKKKACiiigAooooAKKKKACiiigAooooAKKKKACiiigAooooAKKKKACiiigAooooAKKKKAILmVre2d1XeUTOz1r87v2Nv2CfBv7fn7Pvhv42/FPxJ8R/FfxG8aGfVodW0zx5rGjReF8yyRpp9hb2dxFb26W2wof3fmeZ5hk5OK/RivkvxN/wSG+GWs/ELUNa0bxB8YfAen67qEmq6z4b8GfEHVNB0DWLuXi4lltLaWONHl/5aGPy/M796AOC+Kvxy8Rfs2XP7UeteB7DSb/AMXeGNQ8GWNpNrt5qFxDqktxb2VsftH7zy4/3cn37eOP/npJ5ldB4x+KX7Teh+L/AA18KbXWvgu/xP8AGA1XxL/b0mg6hHonh7Q7P7FF9mFp9s827vPtN4P3nmxx+X/yzr2PxJ+wx4F8VWHja2ni1NIPHdzo9xqaR3eOdL+z/Y/L9P8Aj3jpv7Vv7E/g/wDa8t9Gl8Q3nivw3r/hmSSbRfEnhXX7jQdb0jzU8ueOO8t3EgjkTAdPuEDnpmgDmPgp8ZfijZ/tPaP8NPiLN4MvdQTwHL4h1W78P2lxBb3F2mqi3jkiE8hkjj8jH7s78OT+9cV4j8M/2nvEf7SHiL9l7xBr+naD/wAJHrvjbx3pUc8C6jbQ2H9nx6vbW8gt47zypD5dnH5n2kyf8tPLEUn3PZPGf/BLr4e+N9G8E23/AAkHxW0nUfAsFxZR67o/j3VbHXdYtLi4+03NtqGoR3H2m4jluEEj+ZJxID5fl10Pwa/4J7fDv4DeHfhZo/h231m2074PX+qah4cS51CS48qXURcpceY8mfM/4/JPLz0oA+Ov2I/iJ+038F/+CZVx4t/tfwf4+L6peWemQWHhDVL290POvXMV7qFxFHcSXOoRx/vJI7e3ijk8vHpX1f8A8E6v2hvEf7Q3wm1q98UeMfh/4z1TStck043fhnR9R0CS1j+zxS+Ve2F+TcW9x+86dDGY39ayoP8AglN8PtG0zxfpul+KfjJoOk+K9QGpW+m6V4/1SztfDV39pkuXk0uOOTFn5sssjyeX18w16V+zL+yV4Y/ZR8Lalpug3finXL7WrwX+sa74n1m41vWNYnjjjiR7i7uHMknlxRxxxj7kYTgUAew0UUUAFFFFABRRRQAUUUUAFFFFABRRRQAUUUUAFFFFABRRRQAUUUUAFFFFABRRRQAUUUUAFFFFABRRRQAUUUUAFFFFABRRRQAUUUUAFFFFABRRRQAUUUUAFFFFABRRRQAUUUUAFFFFABRRRQAUUUUAFFFFABRRRQAUUUUAFFFFABRRRQAUUUUAFFFFABRRRQAUUUUAFFFFABRRRQAUUUUAf//Z;" vertex="1" parent="1">
          <mxGeometry x="130" y="100" width="914.29" height="640" as="geometry" />
        </mxCell>
        <UserObject label="https://www.keysight.com/used/us/en/knowledge/glossary/oscilloscopes/what-is-time-base-in-oscilloscopes" link="https://www.keysight.com/used/us/en/knowledge/glossary/oscilloscopes/what-is-time-base-in-oscilloscopes" id="zTyWqxEdRdecwzUVAb3k-2">
          <mxCell style="text;whiteSpace=wrap;" vertex="1" parent="1">
            <mxGeometry x="90" y="20" width="560" height="50" as="geometry" />
          </mxCell>
        </UserObject>
        <mxCell id="zTyWqxEdRdecwzUVAb3k-3" value="Link Keysight gaat over triggering" style="text;html=1;align=center;verticalAlign=middle;resizable=0;points=[];autosize=1;strokeColor=none;fillColor=none;" vertex="1" parent="1">
          <mxGeometry x="640" y="18" width="200" height="30" as="geometry" />
        </mxCell>
      </root>
    </mxGraphModel>
  </diagram>
</mxfile>
